<svg class="fig" role="img" data-fig="2i2d-dynamique-echelle" xmlns="http://www.w3.org/2000/svg" xmlns:xlink="http://www.w3.org/1999/xlink" width="251.078pt" height="155.843pt" viewBox="0 0 251.078 155.843">
<defs>
<g>
<g id="2i2d-dynamique-echelle--glyph-0-0">
<path d="M 5.91 -2.47 L 5.45 -2.47 C 5.38 -1.84 5.23 -0.44 3.59 -0.44 L 2.64 -0.44 L 2.64 -5.69 L 3.84 -5.69 L 3.84 -6.12 C 3.48 -6.11 2.47 -6.11 2.05 -6.11 C 1.67 -6.11 0.69 -6.11 0.38 -6.12 L 0.38 -5.69 L 1.34 -5.69 L 1.34 -0.44 L 0.38 -0.44 L 0.38 0 L 5.62 0 Z M 5.91 -2.47 "/>
</g>
<g id="2i2d-dynamique-echelle--glyph-0-1">
<path d="M 4.55 -1.03 C 4.55 -1.22 4.38 -1.22 4.31 -1.22 C 4.16 -1.22 4.14 -1.16 4.08 -1.03 C 3.88 -0.58 3.33 -0.33 2.77 -0.33 C 1.5 -0.33 1.48 -1.48 1.48 -1.92 L 4.25 -1.92 C 4.44 -1.92 4.55 -1.92 4.55 -2.17 C 4.55 -2.38 4.53 -3.16 3.95 -3.64 C 3.55 -3.97 3.02 -4.05 2.58 -4.05 C 1.05 -4.05 0.30 -3.08 0.30 -2.02 C 0.30 -0.84 1.19 0.05 2.70 0.05 C 4.17 0.05 4.55 -0.89 4.55 -1.03 Z M 3.67 -2.25 L 1.48 -2.25 C 1.5 -2.66 1.55 -3.69 2.58 -3.69 C 3.62 -3.69 3.66 -2.59 3.67 -2.25 Z M 3.67 -2.25 "/>
</g>
<g id="2i2d-dynamique-echelle--glyph-0-2">
<path d="M 5.5 0 L 5.5 -0.44 C 4.95 -0.44 4.89 -0.44 4.89 -0.78 L 4.89 -6.20 L 3.28 -6.12 L 3.28 -5.69 C 3.83 -5.69 3.89 -5.69 3.89 -5.34 L 3.89 -3.62 C 3.5 -3.91 3.08 -4.02 2.66 -4.02 C 1.20 -4.02 0.34 -3.14 0.34 -1.98 C 0.34 -0.80 1.19 0.05 2.55 0.05 C 3.11 0.05 3.56 -0.16 3.84 -0.39 L 3.84 0.05 Z M 3.84 -0.97 C 3.64 -0.66 3.22 -0.30 2.64 -0.30 C 1.53 -0.30 1.53 -1.38 1.53 -1.97 C 1.53 -2.48 1.55 -2.88 1.78 -3.20 C 2.02 -3.56 2.44 -3.67 2.75 -3.67 C 3.20 -3.67 3.56 -3.47 3.84 -3.12 Z M 3.84 -0.97 "/>
</g>
<g id="2i2d-dynamique-echelle--glyph-0-3">
<path d="M 5.33 -3.53 L 5.33 -3.97 C 5.08 -3.94 4.86 -3.94 4.61 -3.94 C 4.33 -3.94 4.06 -3.95 3.80 -3.97 L 3.80 -3.53 C 3.80 -3.53 4.19 -3.53 4.19 -3.42 C 4.19 -3.42 4.19 -3.41 4.14 -3.31 L 3.08 -1.14 L 1.92 -3.53 L 2.38 -3.53 L 2.38 -3.97 L 1.28 -3.94 C 0.95 -3.94 0.78 -3.94 0.25 -3.97 L 0.25 -3.53 L 0.81 -3.53 L 2.53 0 C 2.22 0.73 1.88 1.44 1.19 1.44 C 1.14 1.44 1.08 1.44 1.02 1.41 C 1.17 1.33 1.28 1.16 1.28 0.94 C 1.28 0.59 1.03 0.41 0.73 0.41 C 0.45 0.41 0.20 0.59 0.20 0.94 C 0.20 1.42 0.66 1.78 1.19 1.78 C 1.88 1.78 2.44 1.27 2.70 0.69 L 4.67 -3.33 C 4.73 -3.47 4.77 -3.53 5.33 -3.53 Z M 5.33 -3.53 "/>
</g>
<g id="2i2d-dynamique-echelle--glyph-0-4">
<path d="M 5.62 0 L 5.62 -0.44 L 5.02 -0.44 L 5.02 -2.72 C 5.02 -3.80 4.38 -4.02 3.61 -4.02 C 2.5 -4.02 2.06 -3.22 2 -3.08 L 2 -4.02 L 0.45 -3.95 L 0.45 -3.52 C 0.98 -3.52 1.05 -3.52 1.05 -3.16 L 1.05 -0.44 L 0.45 -0.44 L 0.45 0 L 1.58 -0.03 L 2.70 0 L 2.70 -0.44 L 2.09 -0.44 L 2.09 -2.27 C 2.09 -3.27 2.92 -3.67 3.45 -3.67 C 3.80 -3.67 3.98 -3.48 3.98 -2.81 L 3.98 -0.44 L 3.38 -0.44 L 3.38 0 L 4.5 -0.03 Z M 5.62 0 "/>
</g>
<g id="2i2d-dynamique-echelle--glyph-0-5">
<path d="M 5.08 -0.22 C 5.08 -0.44 4.94 -0.44 4.86 -0.44 C 4.28 -0.45 4.28 -0.53 4.28 -0.75 L 4.28 -2.66 C 4.28 -3.45 3.64 -4.05 2.27 -4.05 C 1.75 -4.05 0.61 -4.03 0.61 -3.20 C 0.61 -2.81 0.91 -2.62 1.19 -2.62 C 1.5 -2.62 1.77 -2.83 1.77 -3.20 C 1.77 -3.45 1.62 -3.61 1.59 -3.64 C 1.69 -3.66 1.89 -3.69 2.22 -3.69 C 2.88 -3.69 3.23 -3.38 3.23 -2.66 L 3.23 -2.38 C 1.75 -2.38 0.25 -2 0.25 -1 C 0.25 -0.11 1.38 0.05 2.02 0.05 C 2.69 0.05 3.16 -0.23 3.39 -0.66 C 3.39 -0.42 3.39 0 4.36 0 L 4.80 0 C 4.95 0 5.08 0 5.08 -0.22 Z M 3.23 -1.25 C 3.23 -0.30 2.20 -0.30 2.16 -0.30 C 1.70 -0.30 1.33 -0.59 1.33 -1 C 1.33 -1.30 1.5 -2 3.23 -2.08 Z M 3.23 -1.25 "/>
</g>
<g id="2i2d-dynamique-echelle--glyph-0-6">
<path d="M 8.58 0 L 8.58 -0.44 L 7.97 -0.44 L 7.97 -2.72 C 7.97 -3.78 7.33 -4.02 6.55 -4.02 C 5.61 -4.02 5.16 -3.45 4.98 -3.19 C 4.80 -3.98 4 -4.02 3.61 -4.02 C 2.5 -4.02 2.06 -3.22 2 -3.08 L 2 -4.02 L 0.45 -3.95 L 0.45 -3.52 C 0.98 -3.52 1.05 -3.52 1.05 -3.16 L 1.05 -0.44 L 0.45 -0.44 L 0.45 0 L 1.58 -0.03 L 2.70 0 L 2.70 -0.44 L 2.09 -0.44 L 2.09 -2.27 C 2.09 -3.27 2.92 -3.67 3.45 -3.67 C 3.80 -3.67 3.98 -3.48 3.98 -2.81 L 3.98 -0.44 L 3.38 -0.44 L 3.38 0 L 4.5 -0.03 L 5.64 0 L 5.64 -0.44 L 5.03 -0.44 L 5.03 -2.27 C 5.03 -3.27 5.86 -3.67 6.39 -3.67 C 6.73 -3.67 6.92 -3.48 6.92 -2.81 L 6.92 -0.44 L 6.31 -0.44 L 6.31 0 L 7.44 -0.03 Z M 8.58 0 "/>
</g>
<g id="2i2d-dynamique-echelle--glyph-0-7">
<path d="M 2.61 0 L 2.61 -0.44 L 2.06 -0.44 L 2.06 -4.02 L 0.48 -3.95 L 0.48 -3.52 C 1.02 -3.52 1.08 -3.52 1.08 -3.16 L 1.08 -0.44 L 0.47 -0.44 L 0.47 0 C 1.06 -0.02 1.19 -0.03 1.56 -0.03 C 2 -0.03 2.11 -0.02 2.61 0 Z M 2.16 -5.41 C 2.16 -5.83 1.83 -6.11 1.47 -6.11 C 1.09 -6.11 0.77 -5.81 0.77 -5.42 C 0.77 -5 1.11 -4.70 1.47 -4.70 C 1.84 -4.70 2.16 -5.02 2.16 -5.41 Z M 2.16 -5.41 "/>
</g>
<g id="2i2d-dynamique-echelle--glyph-0-8">
<path d="M 5.5 1.73 L 5.5 1.30 L 4.89 1.30 L 4.89 -4.02 L 4.5 -4.02 L 4.05 -3.33 C 3.69 -3.77 3.23 -4.02 2.64 -4.02 C 1.25 -4.02 0.34 -3.17 0.34 -1.98 C 0.34 -0.80 1.20 0.05 2.56 0.05 C 3.03 0.05 3.5 -0.11 3.86 -0.44 L 3.86 1.30 L 3.25 1.30 L 3.25 1.73 L 4.38 1.70 Z M 3.91 -1.33 C 3.91 -1.16 3.91 -1.14 3.80 -0.97 C 3.48 -0.48 3.03 -0.30 2.66 -0.30 C 2.06 -0.30 1.53 -0.84 1.53 -1.97 C 1.53 -2.27 1.56 -2.73 1.83 -3.12 C 2.16 -3.62 2.64 -3.64 2.75 -3.64 C 3.48 -3.64 3.91 -2.92 3.91 -2.48 Z M 3.91 -1.33 "/>
</g>
<g id="2i2d-dynamique-echelle--glyph-0-9">
<path d="M 5.62 0 L 5.62 -0.44 C 5.09 -0.44 5.02 -0.44 5.02 -0.78 L 5.02 -4.02 L 3.38 -3.95 L 3.38 -3.52 C 3.91 -3.52 3.98 -3.52 3.98 -3.16 L 3.98 -1.47 C 3.98 -0.75 3.52 -0.30 2.83 -0.30 C 2.14 -0.30 2.09 -0.5 2.09 -0.97 L 2.09 -4.02 L 0.45 -3.95 L 0.45 -3.52 C 0.98 -3.52 1.05 -3.52 1.05 -3.16 L 1.05 -1.09 C 1.05 -0.12 1.83 0.05 2.69 0.05 C 2.97 0.05 3.58 0.05 4.03 -0.61 L 4.03 0.05 Z M 5.62 0 "/>
</g>
<g id="2i2d-dynamique-echelle--glyph-0-10">
<path d="M 4.03 -5.45 C 4.03 -5.86 3.69 -6.25 2.98 -6.25 C 2.05 -6.25 1.08 -5.86 1.08 -4.86 L 1.08 -3.97 L 0.39 -3.97 L 0.39 -3.53 L 1.08 -3.53 L 1.08 -0.44 L 0.47 -0.44 L 0.47 0 L 1.62 -0.03 C 1.84 -0.03 2.36 -0.03 2.83 0 L 2.83 -0.44 L 2.08 -0.44 L 2.08 -3.53 L 3.14 -3.53 L 3.14 -3.97 L 2.02 -3.97 L 2.02 -4.86 C 2.02 -5.83 2.72 -5.91 2.94 -5.91 C 2.97 -5.91 3.06 -5.88 3.06 -5.88 C 3.06 -5.88 3.06 -5.86 3.03 -5.84 C 2.94 -5.73 2.89 -5.61 2.89 -5.45 C 2.89 -5.08 3.20 -4.89 3.45 -4.89 C 3.75 -4.89 4.03 -5.11 4.03 -5.45 Z M 4.03 -5.45 "/>
</g>
<g id="2i2d-dynamique-echelle--glyph-0-11">
<path d="M 4.06 -3.27 C 4.06 -3.73 3.61 -4.02 3.08 -4.02 C 2.45 -4.02 2.06 -3.56 1.88 -3.05 L 1.86 -3.05 L 1.86 -4.02 L 0.36 -3.95 L 0.36 -3.52 C 0.91 -3.52 0.97 -3.52 0.97 -3.16 L 0.97 -0.44 L 0.36 -0.44 L 0.36 0 L 1.52 -0.03 C 1.73 -0.03 2.25 -0.03 2.72 0 L 2.72 -0.44 L 1.97 -0.44 L 1.97 -1.95 C 1.97 -2.59 2.20 -3.64 3.08 -3.67 C 2.97 -3.56 2.94 -3.42 2.94 -3.27 C 2.94 -2.88 3.25 -2.70 3.5 -2.70 C 3.78 -2.70 4.06 -2.89 4.06 -3.27 Z M 4.06 -3.27 "/>
</g>
<g id="2i2d-dynamique-echelle--glyph-0-12">
<path d="M 4.55 -1.03 C 4.55 -1.22 4.38 -1.22 4.31 -1.22 C 4.16 -1.22 4.14 -1.16 4.08 -1.03 C 3.88 -0.58 3.33 -0.33 2.77 -0.33 C 1.5 -0.33 1.48 -1.48 1.48 -1.92 L 4.25 -1.92 C 4.44 -1.92 4.55 -1.92 4.55 -2.17 C 4.55 -2.38 4.53 -3.16 3.95 -3.64 C 3.55 -3.97 3.02 -4.05 2.58 -4.05 C 1.05 -4.05 0.30 -3.08 0.30 -2.02 C 0.30 -0.84 1.19 0.05 2.70 0.05 C 4.17 0.05 4.55 -0.89 4.55 -1.03 Z M 3.67 -2.25 L 1.48 -2.25 C 1.5 -2.66 1.55 -3.69 2.58 -3.69 C 3.62 -3.69 3.66 -2.59 3.67 -2.25 Z M 3.78 -5.72 C 3.78 -6.03 3.5 -6.30 3.23 -6.30 C 3.02 -6.30 2.94 -6.19 2.69 -5.92 L 1.77 -4.89 L 2.03 -4.53 L 3.44 -5.25 C 3.56 -5.31 3.78 -5.42 3.78 -5.72 Z M 3.78 -5.72 "/>
</g>
<g id="2i2d-dynamique-echelle--glyph-0-13">
<path d="M 2.31 -5.08 C 2.31 -5.72 1.97 -6.20 1.47 -6.20 C 1.02 -6.20 0.77 -5.86 0.77 -5.5 C 0.77 -5.14 1.02 -4.80 1.47 -4.80 C 1.77 -4.80 1.94 -4.95 1.95 -4.97 C 1.91 -4.30 1.59 -3.77 1.09 -3.39 C 1.05 -3.36 1.02 -3.33 1.02 -3.27 C 1.02 -3.17 1.12 -3.06 1.20 -3.06 C 1.34 -3.06 2.31 -3.83 2.31 -5.08 Z M 2.31 -5.08 "/>
</g>
<g id="2i2d-dynamique-echelle--glyph-0-14">
<path d="M 4.39 -1.03 C 4.39 -1.19 4.27 -1.19 4.17 -1.19 C 3.98 -1.19 3.98 -1.17 3.92 -1.02 C 3.73 -0.58 3.33 -0.33 2.81 -0.33 C 1.53 -0.33 1.53 -1.62 1.53 -2.02 C 1.53 -2.56 1.55 -3.67 2.72 -3.67 C 2.78 -3.67 3.27 -3.66 3.27 -3.61 L 3.23 -3.56 C 3.16 -3.47 3.12 -3.33 3.12 -3.20 C 3.12 -2.83 3.39 -2.62 3.70 -2.62 C 3.98 -2.62 4.28 -2.81 4.28 -3.20 C 4.28 -4.05 3.03 -4.05 2.69 -4.05 C 0.97 -4.05 0.34 -2.95 0.34 -1.98 C 0.34 -0.86 1.16 0.05 2.64 0.05 C 2.97 0.05 3.41 0 3.78 -0.23 C 4.30 -0.55 4.39 -1.02 4.39 -1.03 Z M 4.39 -1.03 "/>
</g>
<g id="2i2d-dynamique-echelle--glyph-0-15">
<path d="M 5.62 0 L 5.62 -0.44 L 5.02 -0.44 L 5.02 -2.72 C 5.02 -3.80 4.38 -4.02 3.61 -4.02 C 2.75 -4.02 2.28 -3.55 2.05 -3.17 L 2.05 -6.20 L 0.45 -6.12 L 0.45 -5.69 C 0.98 -5.69 1.05 -5.69 1.05 -5.34 L 1.05 -0.44 L 0.45 -0.44 L 0.45 0 L 1.58 -0.03 L 2.70 0 L 2.70 -0.44 L 2.09 -0.44 L 2.09 -2.27 C 2.09 -3.27 2.92 -3.67 3.45 -3.67 C 3.80 -3.67 3.98 -3.48 3.98 -2.81 L 3.98 -0.44 L 3.38 -0.44 L 3.38 0 L 4.5 -0.03 Z M 5.62 0 "/>
</g>
<g id="2i2d-dynamique-echelle--glyph-0-16">
<path d="M 2.67 0 L 2.67 -0.44 L 2.06 -0.44 L 2.06 -6.20 L 0.47 -6.12 L 0.47 -5.69 C 1 -5.69 1.08 -5.69 1.08 -5.34 L 1.08 -0.44 L 0.47 -0.44 L 0.47 0 L 1.56 -0.03 Z M 2.67 0 "/>
</g>
<g id="2i2d-dynamique-echelle--glyph-0-17">
<path d="M 3.52 -1.09 L 3.52 -1.58 L 3.06 -1.58 L 3.06 -1.12 C 3.06 -0.48 2.73 -0.33 2.52 -0.33 C 2 -0.33 2 -0.86 2 -1.08 L 2 -3.53 L 3.34 -3.53 L 3.34 -3.97 L 2 -3.97 L 2 -5.67 L 1.53 -5.67 C 1.53 -4.83 1.11 -3.92 0.20 -3.89 L 0.20 -3.53 L 0.95 -3.53 L 0.95 -1.09 C 0.95 -0.08 1.83 0.05 2.39 0.05 C 3.08 0.05 3.52 -0.45 3.52 -1.09 Z M 3.52 -1.09 "/>
</g>
<g id="2i2d-dynamique-echelle--glyph-1-0">
<path d="M 4.84 -5.31 C 4.83 -5.30 4.44 -4.94 4.44 -4.80 C 4.44 -4.69 4.52 -4.61 4.62 -4.61 C 4.72 -4.61 4.77 -4.67 4.80 -4.70 C 4.89 -4.83 5.11 -5.08 5.5 -5.30 C 5.61 -5.33 5.70 -5.38 5.70 -5.5 C 5.70 -5.61 5.61 -5.66 5.56 -5.69 C 5.44 -5.78 5.28 -5.91 5.19 -6.19 C 5.14 -6.30 5.11 -6.41 4.98 -6.41 C 4.89 -6.41 4.80 -6.34 4.80 -6.20 C 4.80 -6.05 4.97 -5.75 5 -5.69 L 1.97 -5.69 C 1.81 -5.69 1.64 -5.69 1.64 -5.5 C 1.64 -5.31 1.81 -5.31 1.97 -5.31 Z M 4.84 -5.31 "/>
</g>
<g id="2i2d-dynamique-echelle--glyph-1-1">
<path d="M 2.77 -2.81 L 4.25 -2.81 C 5.70 -2.81 6.88 -3.80 6.88 -4.75 C 6.88 -5.45 6.25 -6.11 5.08 -6.11 L 2.12 -6.11 C 1.97 -6.11 1.86 -6.11 1.86 -5.94 C 1.86 -5.83 1.94 -5.83 2.12 -5.83 C 2.16 -5.83 2.33 -5.83 2.47 -5.81 C 2.62 -5.80 2.69 -5.78 2.69 -5.67 C 2.69 -5.62 2.67 -5.59 2.64 -5.5 L 1.44 -0.67 C 1.36 -0.36 1.34 -0.28 0.67 -0.28 C 0.5 -0.28 0.41 -0.28 0.41 -0.11 C 0.41 -0.02 0.47 0 0.53 0 C 0.70 0 0.92 -0.02 1.09 -0.02 C 1.38 -0.03 1.39 -0.03 1.67 -0.03 C 1.95 -0.03 1.97 -0.03 2.25 -0.02 C 2.42 -0.02 2.66 0 2.83 0 C 2.89 0 3 0 3 -0.16 C 3 -0.28 2.91 -0.28 2.72 -0.28 C 2.69 -0.28 2.53 -0.28 2.39 -0.30 C 2.19 -0.33 2.19 -0.36 2.19 -0.44 C 2.19 -0.47 2.19 -0.48 2.22 -0.64 Z M 3.41 -5.48 C 3.48 -5.80 3.5 -5.83 3.88 -5.83 L 4.78 -5.83 C 5.48 -5.83 6.03 -5.61 6.03 -4.95 C 6.03 -4.77 5.94 -3.94 5.47 -3.5 C 5.27 -3.33 4.86 -3.06 4.09 -3.06 L 2.80 -3.06 Z M 3.41 -5.48 "/>
</g>
<g id="2i2d-dynamique-echelle--glyph-1-2">
<path d="M 2.78 -2.91 L 3.66 -2.91 C 4.30 -2.91 4.42 -2.80 4.42 -2.52 C 4.42 -2.48 4.41 -2.33 4.36 -2.11 C 4.31 -2 4.31 -2 4.31 -1.97 C 4.31 -1.94 4.34 -1.86 4.44 -1.86 C 4.55 -1.86 4.55 -1.91 4.58 -2.05 L 5.08 -3.98 C 5.08 -4.02 5.11 -4.06 5.11 -4.11 C 5.11 -4.17 5.06 -4.23 4.98 -4.23 C 4.88 -4.23 4.86 -4.17 4.83 -4.02 C 4.64 -3.31 4.39 -3.19 3.67 -3.19 L 2.84 -3.19 C 2.97 -3.67 3.42 -5.5 3.45 -5.62 C 3.52 -5.80 3.62 -5.80 3.89 -5.80 L 5.12 -5.80 C 6.25 -5.80 6.44 -5.5 6.44 -4.81 C 6.44 -4.52 6.41 -4.27 6.41 -4.20 C 6.41 -4.12 6.44 -4.06 6.53 -4.06 C 6.62 -4.06 6.64 -4.12 6.66 -4.30 L 6.84 -5.95 C 6.84 -6.08 6.75 -6.08 6.59 -6.08 L 2.11 -6.08 C 1.94 -6.08 1.84 -6.08 1.84 -5.92 C 1.84 -5.80 1.94 -5.80 2.12 -5.80 C 2.16 -5.80 2.31 -5.80 2.45 -5.78 C 2.66 -5.75 2.66 -5.72 2.66 -5.64 C 2.66 -5.61 2.66 -5.59 2.62 -5.44 L 1.44 -0.67 C 1.34 -0.36 1.33 -0.28 0.66 -0.28 C 0.48 -0.28 0.39 -0.28 0.39 -0.11 C 0.39 -0.06 0.42 0 0.53 0 C 0.62 0 1.05 -0.02 1.14 -0.02 C 1.20 -0.03 1.52 -0.03 1.72 -0.03 C 1.89 -0.03 2.14 -0.02 2.34 -0.02 C 2.56 -0.02 2.81 0 3.03 0 C 3.09 0 3.22 0 3.22 -0.16 C 3.22 -0.28 3.12 -0.28 2.94 -0.28 C 2.92 -0.28 2.69 -0.28 2.47 -0.30 C 2.20 -0.33 2.19 -0.36 2.19 -0.47 C 2.19 -0.48 2.19 -0.53 2.22 -0.67 Z M 2.78 -2.91 "/>
</g>
<g id="2i2d-dynamique-echelle--glyph-1-3">
<path d="M 3.41 -5.48 C 3.45 -5.70 3.48 -5.80 3.64 -5.81 C 3.73 -5.83 4.02 -5.83 4.20 -5.83 C 4.92 -5.83 5.91 -5.83 5.91 -4.92 C 5.91 -4.59 5.77 -3.92 5.25 -3.55 C 5.05 -3.39 4.59 -3.16 3.88 -3.16 L 2.83 -3.16 Z M 4.80 -3.03 C 6 -3.34 6.75 -4.02 6.75 -4.75 C 6.75 -5.53 5.91 -6.11 4.72 -6.11 L 2.12 -6.11 C 1.97 -6.11 1.86 -6.11 1.86 -5.94 C 1.86 -5.83 1.94 -5.83 2.12 -5.83 C 2.16 -5.83 2.33 -5.83 2.47 -5.81 C 2.62 -5.80 2.69 -5.78 2.69 -5.67 C 2.69 -5.62 2.67 -5.59 2.64 -5.5 L 1.44 -0.67 C 1.36 -0.36 1.34 -0.28 0.67 -0.28 C 0.5 -0.28 0.41 -0.28 0.41 -0.11 C 0.41 -0.02 0.47 0 0.53 0 C 0.67 0 0.95 -0.02 1.09 -0.02 C 1.28 -0.03 1.31 -0.03 1.66 -0.03 C 1.94 -0.03 1.95 -0.03 2.22 -0.02 C 2.41 -0.02 2.62 0 2.80 0 C 2.86 0 2.97 0 2.97 -0.16 C 2.97 -0.28 2.89 -0.28 2.70 -0.28 C 2.66 -0.28 2.5 -0.28 2.36 -0.30 C 2.16 -0.33 2.16 -0.36 2.16 -0.44 C 2.16 -0.47 2.16 -0.48 2.20 -0.64 L 2.77 -2.94 L 3.88 -2.94 C 4.67 -2.94 4.88 -2.47 4.88 -2.14 C 4.88 -2.08 4.88 -2.02 4.83 -1.81 C 4.61 -0.98 4.61 -0.91 4.61 -0.78 C 4.61 0.03 5.38 0.20 5.83 0.20 C 6.61 0.20 6.92 -0.70 6.92 -0.84 C 6.92 -0.91 6.88 -0.95 6.81 -0.95 C 6.72 -0.95 6.70 -0.91 6.67 -0.80 C 6.52 -0.34 6.19 -0.03 5.86 -0.03 C 5.52 -0.03 5.5 -0.30 5.5 -0.55 C 5.5 -0.78 5.56 -1.30 5.56 -1.36 C 5.59 -1.5 5.62 -1.86 5.62 -2 C 5.62 -2.5 5.31 -2.84 4.80 -3.03 Z M 4.80 -3.03 "/>
</g>
<g id="2i2d-dynamique-echelle--glyph-2-0">
<path d="M 1.34 -0.72 C 1.12 -0.38 0.92 -0.27 0.58 -0.23 C 0.5 -0.23 0.42 -0.22 0.42 -0.09 C 0.42 -0.03 0.47 0 0.52 0 C 0.69 0 0.88 -0.03 1.05 -0.03 C 1.20 -0.03 1.55 0 1.69 0 C 1.75 0 1.83 -0.03 1.83 -0.16 C 1.83 -0.23 1.73 -0.23 1.72 -0.23 C 1.58 -0.25 1.45 -0.28 1.45 -0.41 C 1.45 -0.48 1.52 -0.58 1.53 -0.62 L 2.02 -1.34 L 3.81 -1.34 L 3.97 -0.39 C 3.97 -0.23 3.62 -0.23 3.56 -0.23 C 3.48 -0.23 3.39 -0.23 3.39 -0.09 C 3.39 -0.06 3.42 0 3.48 0 C 3.67 0 4.11 -0.03 4.28 -0.03 C 4.41 -0.03 4.52 -0.02 4.62 -0.02 C 4.75 -0.02 4.88 0 5 0 C 5.03 0 5.12 0 5.12 -0.16 C 5.12 -0.23 5.05 -0.23 4.95 -0.23 C 4.59 -0.23 4.58 -0.28 4.56 -0.42 L 3.97 -4.09 C 3.95 -4.20 3.94 -4.25 3.81 -4.25 C 3.69 -4.25 3.66 -4.20 3.59 -4.12 Z M 2.17 -1.59 L 3.45 -3.53 L 3.77 -1.59 Z M 2.17 -1.59 "/>
</g>
<g id="2i2d-dynamique-echelle--glyph-3-0">
<path d="M 6.31 -2.05 C 6.44 -2.05 6.62 -2.05 6.62 -2.23 C 6.62 -2.44 6.45 -2.44 6.31 -2.44 L 3.77 -2.44 L 3.77 -4.98 C 3.77 -5.12 3.77 -5.30 3.56 -5.30 C 3.38 -5.30 3.38 -5.11 3.38 -4.98 L 3.38 -2.44 L 0.83 -2.44 C 0.70 -2.44 0.52 -2.44 0.52 -2.25 C 0.52 -2.05 0.67 -2.05 0.83 -2.05 L 3.38 -2.05 L 3.38 0.52 C 3.38 0.66 3.38 0.83 3.58 0.83 C 3.77 0.83 3.77 0.64 3.77 0.52 L 3.77 -2.05 Z M 6.31 -2.05 "/>
</g>
<g id="2i2d-dynamique-echelle--glyph-3-1">
<path d="M 6.33 -2.95 C 6.45 -2.95 6.62 -2.95 6.62 -3.14 C 6.62 -3.34 6.42 -3.34 6.30 -3.34 L 0.84 -3.34 C 0.70 -3.34 0.52 -3.34 0.52 -3.14 C 0.52 -2.95 0.69 -2.95 0.80 -2.95 Z M 6.30 -1.14 C 6.42 -1.14 6.62 -1.14 6.62 -1.33 C 6.62 -1.52 6.45 -1.52 6.33 -1.52 L 0.80 -1.52 C 0.69 -1.52 0.52 -1.52 0.52 -1.33 C 0.52 -1.14 0.70 -1.14 0.84 -1.14 Z M 6.30 -1.14 "/>
</g>
<g id="2i2d-dynamique-echelle--glyph-3-2">
<path d="M 4.23 -2.86 C 4.23 -3.45 4.20 -4.23 3.89 -4.89 C 3.5 -5.73 2.81 -5.95 2.30 -5.95 C 1.77 -5.95 1.08 -5.73 0.69 -4.88 C 0.41 -4.27 0.36 -3.55 0.36 -2.86 C 0.36 -2.28 0.38 -1.41 0.77 -0.70 C 1.19 0.05 1.88 0.20 2.28 0.20 C 2.88 0.20 3.53 -0.05 3.91 -0.88 C 4.17 -1.47 4.23 -2.14 4.23 -2.86 Z M 2.30 -0.03 C 2.03 -0.03 1.39 -0.16 1.22 -1.16 C 1.12 -1.69 1.12 -2.45 1.12 -2.97 C 1.12 -3.58 1.12 -4.28 1.23 -4.77 C 1.41 -5.56 1.98 -5.73 2.28 -5.73 C 2.62 -5.73 3.19 -5.55 3.36 -4.72 C 3.45 -4.23 3.45 -3.53 3.45 -2.97 C 3.45 -2.41 3.45 -1.66 3.38 -1.14 C 3.19 -0.11 2.52 -0.03 2.30 -0.03 Z M 2.30 -0.03 "/>
</g>
<g id="2i2d-dynamique-echelle--glyph-4-0">
<path d="M 4.06 -1.5 C 4.06 -2.36 3.34 -3.06 2.47 -3.06 C 2.08 -3.06 1.67 -2.92 1.39 -2.64 L 1.39 -3.06 L 0.34 -2.98 L 0.34 -2.73 C 0.83 -2.73 0.86 -2.70 0.86 -2.41 L 0.86 0.80 C 0.86 1.09 0.80 1.09 0.34 1.09 L 0.34 1.34 C 0.34 1.34 0.84 1.33 1.14 1.33 C 1.39 1.33 1.88 1.34 1.94 1.34 L 1.94 1.09 C 1.48 1.09 1.41 1.09 1.41 0.80 L 1.41 -0.33 C 1.45 -0.30 1.77 0.06 2.36 0.06 C 3.28 0.06 4.06 -0.62 4.06 -1.5 Z M 3.42 -1.5 C 3.42 -0.70 2.91 -0.12 2.31 -0.12 C 1.70 -0.12 1.44 -0.66 1.41 -0.70 L 1.41 -2.31 C 1.62 -2.66 2.02 -2.84 2.39 -2.84 C 2.97 -2.84 3.42 -2.23 3.42 -1.5 Z M 3.42 -1.5 "/>
</g>
<g id="2i2d-dynamique-echelle--glyph-4-1">
<path d="M 2.83 -2.62 C 2.83 -2.86 2.61 -3.06 2.28 -3.06 C 1.94 -3.06 1.55 -2.84 1.34 -2.33 L 1.33 -2.33 L 1.33 -3.06 L 0.34 -2.98 L 0.34 -2.73 C 0.81 -2.73 0.86 -2.69 0.86 -2.34 L 0.86 -0.55 C 0.86 -0.25 0.80 -0.25 0.34 -0.25 L 0.34 0 C 0.38 0 0.84 -0.03 1.14 -0.03 L 2.03 0 L 2.03 -0.25 L 1.89 -0.25 C 1.39 -0.25 1.39 -0.33 1.39 -0.56 L 1.39 -1.58 C 1.39 -2.17 1.66 -2.88 2.31 -2.88 C 2.25 -2.83 2.20 -2.73 2.20 -2.62 C 2.20 -2.39 2.38 -2.30 2.52 -2.30 C 2.67 -2.30 2.83 -2.41 2.83 -2.62 Z M 2.83 -2.62 "/>
</g>
<g id="2i2d-dynamique-echelle--glyph-4-2">
<path d="M 3.67 -1.48 C 3.67 -2.34 2.94 -3.09 1.97 -3.09 C 1.02 -3.09 0.27 -2.34 0.27 -1.48 C 0.27 -0.62 1.03 0.06 1.97 0.06 C 2.91 0.06 3.67 -0.62 3.67 -1.48 Z M 3.05 -1.55 C 3.05 -1.20 3.03 -0.84 2.83 -0.56 C 2.64 -0.30 2.31 -0.16 1.97 -0.16 C 1.72 -0.16 1.34 -0.23 1.11 -0.58 C 0.92 -0.86 0.91 -1.22 0.91 -1.55 C 0.91 -1.84 0.91 -2.25 1.16 -2.55 C 1.33 -2.75 1.62 -2.91 1.97 -2.91 C 2.39 -2.91 2.67 -2.72 2.83 -2.5 C 3.03 -2.22 3.05 -1.88 3.05 -1.55 Z M 3.05 -1.55 "/>
</g>
<g id="2i2d-dynamique-echelle--glyph-4-3">
<path d="M 2.61 -0.88 L 2.61 -1.27 L 2.38 -1.27 L 2.38 -0.89 C 2.38 -0.41 2.16 -0.16 1.88 -0.16 C 1.39 -0.16 1.39 -0.73 1.39 -0.86 L 1.39 -2.75 L 2.48 -2.75 L 2.48 -3 L 1.39 -3 L 1.39 -4.28 L 1.16 -4.28 C 1.16 -3.66 0.88 -2.97 0.20 -2.94 L 0.20 -2.75 L 0.84 -2.75 L 0.84 -0.88 C 0.84 -0.09 1.44 0.06 1.83 0.06 C 2.28 0.06 2.61 -0.33 2.61 -0.88 Z M 2.61 -0.88 "/>
</g>
<g id="2i2d-dynamique-echelle--glyph-4-4">
<path d="M 1.91 0 L 1.91 -0.25 C 1.5 -0.25 1.44 -0.25 1.44 -0.55 L 1.44 -3.06 L 0.41 -2.98 L 0.41 -2.73 C 0.84 -2.73 0.91 -2.70 0.91 -2.36 L 0.91 -0.55 C 0.91 -0.25 0.84 -0.25 0.39 -0.25 L 0.39 0 C 0.39 0 0.89 -0.03 1.17 -0.03 C 1.41 -0.03 1.66 -0.02 1.91 0 Z M 1.52 -4.19 C 1.52 -4.41 1.34 -4.59 1.12 -4.59 C 0.89 -4.59 0.73 -4.39 0.73 -4.19 C 0.73 -3.97 0.91 -3.80 1.12 -3.80 C 1.36 -3.80 1.52 -3.98 1.52 -4.19 Z M 1.52 -4.19 "/>
</g>
<g id="2i2d-dynamique-echelle--glyph-4-5">
<path d="M 4.11 0 L 4.11 -0.25 C 3.66 -0.25 3.58 -0.25 3.58 -0.55 L 3.58 -2.11 C 3.58 -2.72 3.28 -3.06 2.53 -3.06 C 1.97 -3.06 1.59 -2.75 1.41 -2.39 L 1.39 -2.39 L 1.39 -3.06 L 0.38 -2.98 L 0.38 -2.73 C 0.84 -2.73 0.89 -2.69 0.89 -2.34 L 0.89 -0.55 C 0.89 -0.25 0.83 -0.25 0.38 -0.25 L 0.38 0 C 0.38 0 0.88 -0.03 1.17 -0.03 C 1.42 -0.03 1.91 0 1.97 0 L 1.97 -0.25 C 1.52 -0.25 1.45 -0.25 1.45 -0.55 L 1.45 -1.80 C 1.45 -2.53 2.02 -2.88 2.48 -2.88 C 2.97 -2.88 3.03 -2.48 3.03 -2.14 L 3.03 -0.55 C 3.03 -0.25 2.97 -0.25 2.52 -0.25 L 2.52 0 C 2.52 0 3.02 -0.03 3.30 -0.03 C 3.56 -0.03 4.05 0 4.11 0 Z M 4.11 0 "/>
</g>
<g id="2i2d-dynamique-echelle--glyph-4-6">
<path d="M 2.83 -0.91 C 2.83 -1.17 2.72 -1.39 2.53 -1.55 C 2.27 -1.80 1.95 -1.84 1.70 -1.89 C 1.14 -1.98 0.70 -2.08 0.70 -2.44 C 0.70 -2.66 0.89 -2.94 1.55 -2.94 C 2.34 -2.94 2.39 -2.38 2.41 -2.17 C 2.41 -2.09 2.48 -2.09 2.52 -2.09 C 2.64 -2.09 2.64 -2.14 2.64 -2.28 L 2.64 -2.92 C 2.64 -3.03 2.64 -3.09 2.53 -3.09 C 2.5 -3.09 2.48 -3.09 2.41 -3.02 C 2.39 -3.02 2.31 -2.95 2.28 -2.91 C 2.06 -3.06 1.80 -3.09 1.55 -3.09 C 0.55 -3.09 0.31 -2.58 0.31 -2.23 C 0.31 -2.02 0.41 -1.83 0.58 -1.69 C 0.84 -1.45 1.11 -1.41 1.53 -1.34 C 1.89 -1.28 2.45 -1.19 2.45 -0.72 C 2.45 -0.44 2.27 -0.12 1.59 -0.12 C 0.92 -0.12 0.69 -0.56 0.56 -1.03 C 0.53 -1.12 0.53 -1.16 0.44 -1.16 C 0.31 -1.16 0.31 -1.11 0.31 -0.97 L 0.31 -0.11 C 0.31 0 0.31 0.06 0.41 0.06 C 0.47 0.06 0.61 -0.08 0.75 -0.23 C 1.05 0.06 1.42 0.06 1.59 0.06 C 2.5 0.06 2.83 -0.42 2.83 -0.91 Z M 2.83 -0.91 "/>
</g>
<g id="2i2d-dynamique-echelle--glyph-4-7">
<path d="M 3.25 -0.83 C 3.25 -0.86 3.23 -0.94 3.14 -0.94 C 3.05 -0.94 3.03 -0.89 3.02 -0.83 C 2.80 -0.25 2.27 -0.16 2.02 -0.16 C 1.69 -0.16 1.38 -0.30 1.17 -0.56 C 0.91 -0.89 0.91 -1.31 0.91 -1.58 L 3.06 -1.58 C 3.20 -1.58 3.25 -1.58 3.25 -1.73 C 3.25 -2.34 2.91 -3.09 1.88 -3.09 C 0.97 -3.09 0.27 -2.38 0.27 -1.52 C 0.27 -0.64 1.05 0.06 1.97 0.06 C 2.91 0.06 3.25 -0.69 3.25 -0.83 Z M 2.77 -1.77 L 0.91 -1.77 C 0.98 -2.75 1.61 -2.91 1.88 -2.91 C 2.73 -2.91 2.77 -1.94 2.77 -1.77 Z M 2.77 -1.77 "/>
</g>
<g id="2i2d-dynamique-echelle--glyph-4-8">
<path d="M 3.98 0 L 3.98 -0.25 C 3.53 -0.25 3.47 -0.30 3.31 -0.47 L 2.36 -1.56 L 2.30 -1.62 C 2.30 -1.64 2.77 -2.14 2.83 -2.20 C 3.06 -2.47 3.31 -2.73 3.86 -2.75 L 3.86 -3 C 3.67 -2.98 3.47 -2.97 3.28 -2.97 C 3.06 -2.97 2.80 -2.97 2.59 -3 L 2.59 -2.75 C 2.70 -2.72 2.72 -2.66 2.72 -2.59 C 2.72 -2.59 2.72 -2.47 2.62 -2.34 L 2.14 -1.80 L 1.56 -2.47 C 1.48 -2.53 1.48 -2.58 1.48 -2.59 C 1.48 -2.70 1.58 -2.75 1.67 -2.75 L 1.67 -3 C 1.41 -2.97 1.14 -2.97 0.89 -2.97 C 0.69 -2.97 0.42 -2.97 0.22 -3 L 0.22 -2.75 C 0.53 -2.75 0.72 -2.75 0.89 -2.53 L 1.77 -1.53 L 1.83 -1.47 C 1.83 -1.45 1.30 -0.88 1.23 -0.80 C 0.97 -0.52 0.73 -0.27 0.19 -0.25 L 0.19 0 C 0.39 -0.02 0.55 -0.03 0.77 -0.03 C 0.97 -0.03 1.25 -0.02 1.45 0 L 1.45 -0.25 C 1.38 -0.27 1.31 -0.31 1.31 -0.41 C 1.31 -0.55 1.39 -0.62 1.5 -0.75 L 1.98 -1.28 L 2.59 -0.59 C 2.72 -0.45 2.72 -0.44 2.72 -0.39 C 2.72 -0.25 2.56 -0.25 2.53 -0.25 L 2.53 0 C 2.59 0 3.09 -0.03 3.33 -0.03 C 3.55 -0.03 3.77 -0.02 3.98 0 Z M 3.98 0 "/>
</g>
<g id="2i2d-dynamique-echelle--glyph-4-9">
<path d="M 3.78 -0.62 L 3.78 -1.02 L 3.55 -1.02 L 3.55 -0.62 C 3.55 -0.56 3.55 -0.23 3.28 -0.23 C 3.03 -0.23 3.03 -0.56 3.03 -0.64 L 3.03 -1.86 C 3.03 -2.23 3.03 -2.5 2.72 -2.75 C 2.42 -2.98 2.09 -3.09 1.69 -3.09 C 1.02 -3.09 0.56 -2.84 0.56 -2.42 C 0.56 -2.20 0.70 -2.09 0.89 -2.09 C 1.08 -2.09 1.22 -2.22 1.22 -2.41 C 1.22 -2.53 1.16 -2.67 0.97 -2.73 C 1.22 -2.91 1.62 -2.91 1.67 -2.91 C 2.06 -2.91 2.48 -2.66 2.48 -2.06 L 2.48 -1.84 C 2.09 -1.83 1.64 -1.81 1.14 -1.62 C 0.5 -1.39 0.31 -1.02 0.31 -0.70 C 0.31 -0.11 1.03 0.06 1.53 0.06 C 2.09 0.06 2.41 -0.25 2.56 -0.52 C 2.59 -0.23 2.78 0.03 3.09 0.03 C 3.09 0.03 3.78 0.03 3.78 -0.62 Z M 2.48 -0.98 C 2.48 -0.31 1.89 -0.12 1.58 -0.12 C 1.23 -0.12 0.89 -0.36 0.89 -0.70 C 0.89 -1.08 1.23 -1.62 2.48 -1.67 Z M 2.48 -0.98 "/>
</g>
<g id="2i2d-dynamique-echelle--glyph-4-10">
<path d="M 3.80 -2.78 C 3.80 -2.94 3.66 -3.14 3.38 -3.14 C 3.28 -3.14 2.91 -3.11 2.58 -2.81 C 2.36 -2.97 2.08 -3.06 1.77 -3.06 C 1.05 -3.06 0.53 -2.59 0.53 -2.05 C 0.53 -1.77 0.67 -1.52 0.86 -1.34 C 0.81 -1.28 0.66 -1.05 0.66 -0.78 C 0.66 -0.69 0.67 -0.36 0.95 -0.16 C 0.62 -0.06 0.27 0.17 0.27 0.53 C 0.27 1.05 1.03 1.42 1.97 1.42 C 2.86 1.42 3.67 1.08 3.67 0.52 C 3.67 0.31 3.59 -0.06 3.22 -0.27 C 2.80 -0.48 2.39 -0.48 1.72 -0.48 C 1.56 -0.48 1.31 -0.48 1.27 -0.5 C 1.03 -0.55 0.91 -0.75 0.91 -0.95 C 0.91 -1.12 0.95 -1.19 1 -1.23 C 1.11 -1.17 1.36 -1.02 1.77 -1.02 C 2.47 -1.02 3 -1.5 3 -2.05 C 3 -2.31 2.88 -2.53 2.70 -2.72 C 3.02 -2.94 3.28 -2.94 3.41 -2.94 C 3.38 -2.91 3.34 -2.89 3.34 -2.78 C 3.34 -2.64 3.45 -2.55 3.56 -2.55 C 3.67 -2.55 3.80 -2.62 3.80 -2.78 Z M 2.44 -2.05 C 2.44 -1.94 2.44 -1.66 2.30 -1.47 C 2.20 -1.36 2.02 -1.23 1.77 -1.23 C 1.08 -1.23 1.08 -1.89 1.08 -2.05 C 1.08 -2.16 1.08 -2.44 1.22 -2.61 C 1.33 -2.73 1.52 -2.86 1.77 -2.86 C 2.44 -2.86 2.44 -2.19 2.44 -2.05 Z M 3.25 0.53 C 3.25 0.89 2.70 1.22 1.97 1.22 C 1.25 1.22 0.70 0.89 0.70 0.53 C 0.70 0.28 0.92 -0.02 1.36 -0.02 L 1.77 -0.02 C 2.39 -0.02 3.25 -0.02 3.25 0.53 Z M 3.25 0.53 "/>
</g>
<g id="2i2d-dynamique-echelle--glyph-4-11">
<path d="M 3.25 -0.83 C 3.25 -0.86 3.23 -0.94 3.14 -0.94 C 3.05 -0.94 3.03 -0.89 3.02 -0.83 C 2.80 -0.25 2.27 -0.16 2.02 -0.16 C 1.69 -0.16 1.38 -0.30 1.17 -0.56 C 0.91 -0.89 0.91 -1.31 0.91 -1.58 L 3.06 -1.58 C 3.20 -1.58 3.25 -1.58 3.25 -1.73 C 3.25 -2.34 2.91 -3.09 1.88 -3.09 C 0.97 -3.09 0.27 -2.38 0.27 -1.52 C 0.27 -0.64 1.05 0.06 1.97 0.06 C 2.91 0.06 3.25 -0.69 3.25 -0.83 Z M 2.77 -1.77 L 0.91 -1.77 C 0.98 -2.75 1.61 -2.91 1.88 -2.91 C 2.73 -2.91 2.77 -1.94 2.77 -1.77 Z M 2.72 -4.56 C 2.72 -4.70 2.59 -4.86 2.44 -4.86 C 2.33 -4.86 2.27 -4.80 2.20 -4.72 L 1.28 -3.70 L 1.45 -3.52 L 2.55 -4.31 C 2.66 -4.39 2.72 -4.44 2.72 -4.56 Z M 2.72 -4.56 "/>
</g>
<g id="2i2d-dynamique-echelle--glyph-4-12">
<path d="M 4.11 0 L 4.11 -0.25 C 3.64 -0.25 3.58 -0.30 3.58 -0.64 L 3.58 -3.06 L 2.52 -2.98 L 2.52 -2.73 C 2.97 -2.73 3.03 -2.69 3.03 -2.34 L 3.03 -1.16 C 3.03 -0.55 2.64 -0.12 2.11 -0.12 C 1.47 -0.12 1.45 -0.42 1.45 -0.78 L 1.45 -3.06 L 0.38 -2.98 L 0.38 -2.73 C 0.89 -2.73 0.89 -2.72 0.89 -2.09 L 0.89 -1.06 C 0.89 -0.58 0.89 0.06 2.06 0.06 C 2.22 0.06 2.72 0.06 3.05 -0.52 L 3.06 -0.52 L 3.06 0.06 Z M 4.11 0 "/>
</g>
<g id="2i2d-dynamique-echelle--glyph-4-13">
<path d="M 1.95 0 L 1.95 -0.25 C 1.5 -0.25 1.44 -0.25 1.44 -0.55 L 1.44 -4.83 L 0.39 -4.75 L 0.39 -4.5 C 0.86 -4.5 0.91 -4.45 0.91 -4.11 L 0.91 -0.55 C 0.91 -0.25 0.84 -0.25 0.39 -0.25 L 0.39 0 C 0.39 0 0.89 -0.03 1.17 -0.03 C 1.44 -0.03 1.69 -0.02 1.95 0 Z M 1.95 0 "/>
</g>
<g id="2i2d-dynamique-echelle--glyph-4-14">
<path d="M 4.06 -1.5 C 4.06 -2.34 3.34 -3.06 2.44 -3.06 C 2.02 -3.06 1.64 -2.91 1.39 -2.66 L 1.39 -4.83 L 0.34 -4.75 L 0.34 -4.5 C 0.81 -4.5 0.86 -4.44 0.86 -4.09 L 0.86 0 L 1.09 0 L 1.34 -0.42 C 1.61 -0.08 1.98 0.06 2.36 0.06 C 3.28 0.06 4.06 -0.62 4.06 -1.5 Z M 3.42 -1.52 C 3.42 -1.34 3.42 -0.83 3.14 -0.5 C 2.86 -0.19 2.53 -0.12 2.33 -0.12 C 1.77 -0.12 1.48 -0.56 1.41 -0.70 L 1.41 -2.33 C 1.61 -2.66 1.98 -2.88 2.41 -2.88 C 2.78 -2.88 3.06 -2.66 3.20 -2.44 C 3.34 -2.23 3.42 -1.97 3.42 -1.52 Z M 3.42 -1.52 "/>
</g>
<g id="2i2d-dynamique-echelle--glyph-4-15">
<path d="M 3.28 0 L 3.28 -0.25 L 3.03 -0.25 C 2.33 -0.25 2.33 -0.34 2.33 -0.56 L 2.33 -4.42 C 2.33 -4.61 2.31 -4.61 2.12 -4.61 C 1.67 -4.17 1.05 -4.17 0.77 -4.17 L 0.77 -3.92 C 0.92 -3.92 1.39 -3.92 1.77 -4.11 L 1.77 -0.56 C 1.77 -0.34 1.77 -0.25 1.08 -0.25 L 0.81 -0.25 L 0.81 0 L 2.05 -0.03 Z M 3.28 0 "/>
</g>
<g id="2i2d-dynamique-echelle--glyph-4-16">
<path d="M 3.25 -0.83 C 3.25 -0.92 3.16 -0.92 3.14 -0.92 C 3.05 -0.92 3.03 -0.89 3 -0.80 C 2.84 -0.38 2.48 -0.16 2.06 -0.16 C 1.58 -0.16 0.95 -0.5 0.95 -1.52 C 0.95 -2.39 1.39 -2.88 2.03 -2.88 C 2.12 -2.88 2.45 -2.88 2.70 -2.78 C 2.58 -2.72 2.52 -2.61 2.52 -2.47 C 2.52 -2.28 2.64 -2.14 2.84 -2.14 C 3.03 -2.14 3.17 -2.27 3.17 -2.48 C 3.17 -3.09 2.20 -3.09 2.02 -3.09 C 0.97 -3.09 0.31 -2.30 0.31 -1.5 C 0.31 -0.62 1.06 0.06 1.97 0.06 C 3.02 0.06 3.25 -0.75 3.25 -0.83 Z M 3.25 -0.83 "/>
</g>
<g id="2i2d-dynamique-echelle--glyph-4-17">
<path d="M 6.23 0 L 6.23 -0.25 C 5.78 -0.25 5.72 -0.25 5.72 -0.55 L 5.72 -2.11 C 5.72 -2.72 5.42 -3.06 4.67 -3.06 C 4.12 -3.06 3.75 -2.77 3.56 -2.42 C 3.42 -2.91 3.05 -3.06 2.53 -3.06 C 1.97 -3.06 1.59 -2.75 1.41 -2.39 L 1.39 -2.39 L 1.39 -3.06 L 0.38 -2.98 L 0.38 -2.73 C 0.84 -2.73 0.89 -2.69 0.89 -2.34 L 0.89 -0.55 C 0.89 -0.25 0.83 -0.25 0.38 -0.25 L 0.38 0 C 0.38 0 0.88 -0.03 1.17 -0.03 C 1.42 -0.03 1.91 0 1.97 0 L 1.97 -0.25 C 1.52 -0.25 1.45 -0.25 1.45 -0.55 L 1.45 -1.80 C 1.45 -2.53 2.02 -2.88 2.48 -2.88 C 2.97 -2.88 3.03 -2.48 3.03 -2.14 L 3.03 -0.55 C 3.03 -0.25 2.97 -0.25 2.52 -0.25 L 2.52 0 C 2.52 0 3.02 -0.03 3.30 -0.03 C 3.56 -0.03 4.05 0 4.11 0 L 4.11 -0.25 C 3.66 -0.25 3.58 -0.25 3.58 -0.55 L 3.58 -1.80 C 3.58 -2.53 4.16 -2.88 4.61 -2.88 C 5.11 -2.88 5.17 -2.48 5.17 -2.14 L 5.17 -0.55 C 5.17 -0.25 5.09 -0.25 4.64 -0.25 L 4.64 0 C 4.64 0 5.14 -0.03 5.44 -0.03 C 5.69 -0.03 6.17 0 6.23 0 Z M 6.23 0 "/>
</g>
<g id="2i2d-dynamique-echelle--glyph-4-18">
<path d="M 1.52 -2.59 C 1.52 -2.84 1.33 -3 1.12 -3 C 0.89 -3 0.72 -2.80 0.72 -2.59 C 0.72 -2.36 0.92 -2.20 1.12 -2.20 C 1.36 -2.20 1.52 -2.39 1.52 -2.59 Z M 1.52 -0.39 C 1.52 -0.64 1.33 -0.80 1.12 -0.80 C 0.89 -0.80 0.72 -0.61 0.72 -0.41 C 0.72 -0.16 0.92 0 1.12 0 C 1.36 0 1.52 -0.19 1.52 -0.39 Z M 1.52 -0.39 "/>
</g>
<g id="2i2d-dynamique-echelle--glyph-4-19">
<path d="M 2.61 1.64 C 2.61 1.61 2.59 1.59 2.53 1.55 C 1.61 0.70 1.27 -0.47 1.27 -1.73 C 1.27 -3.61 1.98 -4.53 2.56 -5.05 C 2.59 -5.08 2.61 -5.09 2.61 -5.12 C 2.61 -5.22 2.53 -5.22 2.47 -5.22 C 1.14 -4.28 0.80 -2.81 0.80 -1.75 C 0.80 -0.77 1.09 0.77 2.47 1.73 C 2.53 1.73 2.61 1.73 2.61 1.64 Z M 2.61 1.64 "/>
</g>
<g id="2i2d-dynamique-echelle--glyph-4-20">
<path d="M 3.98 0 L 3.98 -0.25 C 3.72 -0.25 3.56 -0.27 3.36 -0.52 L 2.25 -1.89 C 3.09 -2.55 3.33 -2.73 3.81 -2.75 L 3.81 -3 C 3.67 -2.98 3.48 -2.97 3.34 -2.97 C 3.06 -2.97 2.78 -2.97 2.5 -3 L 2.5 -2.75 C 2.59 -2.73 2.62 -2.67 2.62 -2.62 C 2.62 -2.52 2.5 -2.38 2.41 -2.31 L 1.39 -1.52 L 1.39 -4.83 L 0.34 -4.75 L 0.34 -4.5 C 0.81 -4.5 0.86 -4.45 0.86 -4.11 L 0.86 -0.55 C 0.86 -0.25 0.80 -0.25 0.34 -0.25 L 0.34 0 C 0.59 -0.02 0.86 -0.03 1.11 -0.03 C 1.38 -0.03 1.62 -0.02 1.89 0 L 1.89 -0.25 C 1.44 -0.25 1.36 -0.25 1.36 -0.55 L 1.36 -1.20 L 1.86 -1.59 L 2.62 -0.66 C 2.70 -0.56 2.78 -0.47 2.78 -0.38 C 2.78 -0.27 2.66 -0.25 2.59 -0.25 L 2.59 0 C 2.67 0 3.17 -0.03 3.38 -0.03 C 3.58 -0.03 3.78 -0.02 3.98 0 Z M 3.98 0 "/>
</g>
<g id="2i2d-dynamique-echelle--glyph-4-21">
<path d="M 5.47 -4.5 L 5.47 -4.75 C 5.19 -4.73 4.91 -4.72 4.61 -4.72 C 4.33 -4.72 4.05 -4.73 3.77 -4.75 L 3.77 -4.5 C 4.48 -4.5 4.48 -4.19 4.48 -4 L 4.48 -1.05 L 1.81 -4.64 C 1.73 -4.73 1.73 -4.75 1.59 -4.75 L 0.39 -4.75 L 0.39 -4.5 L 0.59 -4.5 C 0.89 -4.5 1.08 -4.47 1.11 -4.45 L 1.11 -0.75 C 1.11 -0.56 1.11 -0.25 0.39 -0.25 L 0.39 0 C 0.67 -0.02 0.95 -0.03 1.23 -0.03 C 1.52 -0.03 1.80 -0.02 2.09 0 L 2.09 -0.25 C 1.38 -0.25 1.38 -0.56 1.38 -0.75 L 1.38 -4.27 L 4.45 -0.11 C 4.53 0 4.53 0 4.61 0 C 4.75 0 4.75 -0.06 4.75 -0.19 L 4.75 -4 C 4.75 -4.19 4.75 -4.5 5.47 -4.5 Z M 5.47 -4.5 "/>
</g>
<g id="2i2d-dynamique-echelle--glyph-4-22">
<path d="M 2.30 -1.73 C 2.30 -2.72 2 -4.23 0.62 -5.22 C 0.58 -5.22 0.5 -5.22 0.5 -5.12 C 0.5 -5.09 0.52 -5.08 0.56 -5.03 C 1.16 -4.48 1.83 -3.55 1.83 -1.75 C 1.83 -0.30 1.38 0.81 0.62 1.48 C 0.5 1.61 0.5 1.61 0.5 1.64 C 0.5 1.69 0.52 1.73 0.58 1.73 C 0.67 1.73 1.33 1.27 1.78 0.41 C 2.09 -0.17 2.30 -0.92 2.30 -1.73 Z M 2.30 -1.73 "/>
</g>
<g id="2i2d-dynamique-echelle--glyph-5-0">
<path d="M 1.58 -2.44 C 2.64 -3.19 2.84 -4.36 2.84 -4.45 C 2.84 -4.58 2.73 -4.58 2.66 -4.58 C 2.56 -4.58 2.5 -4.58 2.47 -4.47 C 2.22 -3.42 1.61 -2.72 0.64 -2.36 C 0.58 -2.34 0.52 -2.31 0.52 -2.25 C 0.52 -2.16 0.58 -2.14 0.62 -2.12 C 1.75 -1.70 2.27 -0.91 2.47 -0.03 C 2.5 0.09 2.53 0.11 2.66 0.11 C 2.75 0.11 2.84 0.11 2.84 -0.02 C 2.84 -0.11 2.64 -1.30 1.58 -2.05 L 7.61 -2.05 C 6.55 -1.28 6.33 -0.11 6.33 -0.02 C 6.33 0.11 6.44 0.11 6.52 0.11 C 6.62 0.11 6.69 0.11 6.72 -0.02 C 6.95 -1.06 7.56 -1.77 8.55 -2.12 C 8.59 -2.14 8.67 -2.16 8.67 -2.23 C 8.67 -2.31 8.61 -2.34 8.55 -2.36 C 7.42 -2.78 6.92 -3.58 6.72 -4.45 C 6.69 -4.58 6.66 -4.58 6.52 -4.58 C 6.44 -4.58 6.33 -4.58 6.33 -4.45 C 6.33 -4.36 6.55 -3.19 7.61 -2.44 Z M 1.58 -2.44 "/>
</g>
<g id="2i2d-dynamique-echelle--glyph-6-0">
<path d="M 3.86 0 L 3.86 -0.28 L 3.58 -0.28 C 2.75 -0.28 2.72 -0.39 2.72 -0.72 L 2.72 -5.72 C 2.72 -5.94 2.70 -5.95 2.48 -5.95 C 1.94 -5.38 1.11 -5.38 0.83 -5.38 L 0.83 -5.11 C 1 -5.11 1.55 -5.11 2.03 -5.33 L 2.03 -0.72 C 2.03 -0.39 2 -0.28 1.17 -0.28 L 0.89 -0.28 L 0.89 0 C 1.20 -0.03 2 -0.03 2.38 -0.03 C 2.73 -0.03 3.55 -0.03 3.86 0 Z M 3.86 0 "/>
</g>
<g id="2i2d-dynamique-echelle--glyph-6-1">
<path d="M 4.23 -2.86 C 4.23 -3.45 4.20 -4.23 3.89 -4.89 C 3.5 -5.73 2.81 -5.95 2.30 -5.95 C 1.77 -5.95 1.08 -5.73 0.69 -4.88 C 0.41 -4.27 0.36 -3.55 0.36 -2.86 C 0.36 -2.28 0.38 -1.41 0.77 -0.70 C 1.19 0.05 1.88 0.20 2.28 0.20 C 2.88 0.20 3.53 -0.05 3.91 -0.88 C 4.17 -1.47 4.23 -2.14 4.23 -2.86 Z M 3.45 -2.97 C 3.45 -2.41 3.45 -1.66 3.38 -1.14 C 3.19 -0.11 2.52 -0.03 2.30 -0.03 C 2.03 -0.03 1.39 -0.16 1.22 -1.16 C 1.12 -1.69 1.12 -2.45 1.12 -2.97 C 1.12 -3.58 1.12 -4.28 1.23 -4.77 C 1.41 -5.56 1.98 -5.73 2.28 -5.73 C 2.62 -5.73 3.19 -5.55 3.36 -4.72 C 3.45 -4.23 3.45 -3.53 3.45 -2.97 Z M 3.45 -2.97 "/>
</g>
<g id="2i2d-dynamique-echelle--glyph-6-2">
<path d="M 4.69 0 L 4.69 -0.28 C 4.39 -0.28 4.17 -0.28 3.86 -0.72 L 2.58 -2.44 C 3.45 -3.20 3.88 -3.55 4.48 -3.58 L 4.48 -3.86 C 4.17 -3.83 4.14 -3.83 3.81 -3.83 L 2.83 -3.86 L 2.83 -3.58 C 2.97 -3.56 3.08 -3.5 3.08 -3.36 C 3.08 -3.19 2.94 -3.08 2.84 -3 L 1.59 -1.94 L 1.59 -6.20 L 0.27 -6.11 L 0.27 -5.83 C 0.88 -5.83 0.95 -5.77 0.95 -5.33 L 0.95 -0.69 C 0.95 -0.28 0.86 -0.28 0.27 -0.28 L 0.27 0 L 1.27 -0.03 L 2.25 0 L 2.25 -0.28 C 1.66 -0.28 1.56 -0.28 1.56 -0.69 L 1.56 -1.59 L 2.14 -2.08 L 3 -0.91 C 3.14 -0.70 3.22 -0.59 3.22 -0.47 C 3.22 -0.39 3.19 -0.28 2.91 -0.28 L 2.91 0 L 3.88 -0.03 C 4.14 -0.03 4.42 -0.03 4.69 0 Z M 4.69 0 "/>
</g>
<g id="2i2d-dynamique-echelle--glyph-6-3">
<path d="M 6.55 -5.83 L 6.55 -6.11 C 6.06 -6.09 5.92 -6.08 5.5 -6.08 C 5.06 -6.08 4.94 -6.09 4.44 -6.11 L 4.44 -5.83 C 5.36 -5.83 5.36 -5.39 5.36 -5.16 L 5.36 -1.34 L 2.11 -6 C 2.03 -6.11 2.02 -6.11 1.84 -6.11 L 0.34 -6.11 L 0.34 -5.83 L 0.59 -5.83 C 1.02 -5.83 1.25 -5.77 1.25 -5.77 L 1.25 -0.95 C 1.25 -0.70 1.25 -0.28 0.34 -0.28 L 0.34 0 C 0.83 -0.02 0.95 -0.03 1.39 -0.03 C 1.83 -0.03 1.95 -0.02 2.44 0 L 2.44 -0.28 C 1.53 -0.28 1.53 -0.70 1.53 -0.95 L 1.53 -5.56 L 5.33 -0.11 C 5.39 0 5.44 0 5.48 0 C 5.62 0 5.62 -0.08 5.62 -0.23 L 5.62 -5.16 C 5.62 -5.39 5.62 -5.83 6.55 -5.83 Z M 6.55 -5.83 "/>
</g>
<g id="2i2d-dynamique-echelle--glyph-7-0">
<path d="M 2.38 -2.23 L 3.12 -2.23 C 3.66 -2.23 3.73 -2.16 3.73 -1.92 C 3.73 -1.83 3.73 -1.81 3.69 -1.61 C 3.67 -1.58 3.67 -1.55 3.67 -1.53 C 3.67 -1.45 3.72 -1.42 3.80 -1.42 C 3.88 -1.42 3.89 -1.45 3.92 -1.58 L 4.30 -3.06 C 4.30 -3.08 4.33 -3.19 4.33 -3.20 C 4.33 -3.27 4.28 -3.30 4.20 -3.30 C 4.11 -3.30 4.11 -3.27 4.06 -3.14 C 3.92 -2.59 3.73 -2.48 3.14 -2.48 L 2.44 -2.48 L 2.88 -4.23 C 2.94 -4.45 2.94 -4.47 3.23 -4.47 L 4.30 -4.47 C 5.22 -4.47 5.39 -4.25 5.39 -3.67 C 5.39 -3.44 5.38 -3.30 5.38 -3.23 C 5.38 -3.19 5.39 -3.12 5.48 -3.12 C 5.59 -3.12 5.59 -3.19 5.61 -3.30 L 5.73 -4.52 C 5.75 -4.72 5.70 -4.72 5.53 -4.72 L 1.83 -4.72 C 1.69 -4.72 1.59 -4.72 1.59 -4.56 C 1.59 -4.47 1.69 -4.47 1.83 -4.47 C 1.83 -4.47 1.95 -4.47 2.09 -4.45 C 2.23 -4.44 2.25 -4.42 2.25 -4.36 C 2.25 -4.31 2.22 -4.23 2.22 -4.20 L 1.31 -0.56 C 1.23 -0.30 1.23 -0.25 0.69 -0.25 C 0.56 -0.25 0.48 -0.25 0.48 -0.11 C 0.48 -0.03 0.53 0 0.59 0 C 0.80 0 1.31 -0.03 1.52 -0.03 L 2.05 -0.02 C 2.22 -0.02 2.42 0 2.59 0 C 2.64 0 2.75 0 2.75 -0.16 C 2.75 -0.25 2.66 -0.25 2.5 -0.25 C 2.48 -0.25 2.31 -0.25 2.14 -0.27 C 2 -0.28 1.92 -0.28 1.92 -0.38 C 1.92 -0.41 1.92 -0.44 1.95 -0.5 Z M 2.38 -2.23 "/>
</g>
<g id="2i2d-dynamique-echelle--glyph-7-1">
<path d="M 0.83 -0.95 C 0.89 -0.5 1.12 0.08 1.72 0.08 C 1.94 0.08 2.19 0 2.44 -0.17 C 2.56 -0.23 2.92 -0.5 2.92 -0.58 C 2.92 -0.62 2.88 -0.70 2.81 -0.70 C 2.78 -0.70 2.77 -0.70 2.66 -0.61 C 2.36 -0.34 2.03 -0.11 1.72 -0.11 C 1.25 -0.11 1.25 -0.92 1.25 -1.06 C 1.25 -1.14 1.25 -1.16 1.27 -1.30 C 1.27 -1.36 1.27 -1.38 1.36 -1.45 C 1.73 -1.81 3.05 -3.08 3.05 -4.30 C 3.05 -4.39 3.05 -4.89 2.59 -4.89 C 2.02 -4.89 1.55 -4 1.44 -3.80 C 1.14 -3.20 0.97 -2.62 0.89 -2.28 C 0.80 -1.81 0.80 -1.58 0.80 -1.23 C 0.75 -1.19 0.34 -0.83 0.28 -0.77 C 0.17 -0.67 0.16 -0.67 0.16 -0.62 C 0.16 -0.58 0.22 -0.5 0.28 -0.5 C 0.33 -0.5 0.52 -0.67 0.56 -0.72 Z M 1.33 -1.75 C 1.45 -2.45 2 -4.70 2.59 -4.70 C 2.75 -4.70 2.83 -4.59 2.83 -4.34 C 2.83 -4.25 2.83 -3.64 2.23 -2.78 C 1.88 -2.28 1.5 -1.91 1.33 -1.75 Z M 1.33 -1.75 "/>
</g>
<g id="2i2d-dynamique-echelle--glyph-7-2">
<path d="M 3.48 -4.91 C 3.53 -5 3.53 -5.02 3.53 -5.05 C 3.53 -5.16 3.44 -5.22 3.36 -5.22 C 3.23 -5.22 3.20 -5.12 3.17 -5.05 L 0.58 1.44 C 0.53 1.52 0.53 1.53 0.53 1.56 C 0.53 1.67 0.62 1.73 0.70 1.73 C 0.83 1.73 0.86 1.66 0.89 1.56 Z M 3.48 -4.91 "/>
</g>
<g id="2i2d-dynamique-echelle--glyph-7-3">
<path d="M 1.47 -0.11 C 1.47 0.27 1.39 0.72 0.92 1.16 C 0.89 1.19 0.88 1.20 0.88 1.25 C 0.88 1.30 0.94 1.34 0.97 1.34 C 1.08 1.34 1.66 0.78 1.66 -0.05 C 1.66 -0.47 1.5 -0.80 1.17 -0.80 C 0.95 -0.80 0.78 -0.62 0.78 -0.41 C 0.78 -0.19 0.94 0 1.19 0 C 1.34 0 1.45 -0.11 1.47 -0.11 Z M 1.47 -0.11 "/>
</g>
<g id="2i2d-dynamique-echelle--glyph-8-0">
<path d="M 5.34 -2.34 C 5.44 -2.34 5.61 -2.34 5.61 -2.52 C 5.61 -2.67 5.44 -2.67 5.34 -2.67 L 0.75 -2.67 C 0.66 -2.67 0.48 -2.67 0.48 -2.52 C 0.48 -2.34 0.64 -2.34 0.75 -2.34 Z M 5.34 -0.81 C 5.44 -0.81 5.61 -0.81 5.61 -0.97 C 5.61 -1.14 5.44 -1.14 5.34 -1.14 L 0.75 -1.14 C 0.64 -1.14 0.48 -1.14 0.48 -0.97 C 0.48 -0.81 0.66 -0.81 0.75 -0.81 Z M 5.34 -0.81 "/>
</g>
<g id="2i2d-dynamique-echelle--glyph-8-1">
<path d="M 2.33 -4.42 C 2.33 -4.61 2.31 -4.61 2.12 -4.61 C 1.67 -4.17 1.05 -4.17 0.77 -4.17 L 0.77 -3.92 C 0.92 -3.92 1.39 -3.92 1.77 -4.11 L 1.77 -0.56 C 1.77 -0.34 1.77 -0.25 1.08 -0.25 L 0.81 -0.25 L 0.81 0 C 0.94 0 1.78 -0.03 2.05 -0.03 C 2.27 -0.03 3.14 0 3.28 0 L 3.28 -0.25 L 3.03 -0.25 C 2.33 -0.25 2.33 -0.34 2.33 -0.56 Z M 2.33 -4.42 "/>
</g>
<g id="2i2d-dynamique-echelle--glyph-8-2">
<path d="M 3.59 -2.22 C 3.59 -2.98 3.5 -3.53 3.17 -4.02 C 2.97 -4.34 2.53 -4.61 1.97 -4.61 C 0.36 -4.61 0.36 -2.72 0.36 -2.22 C 0.36 -1.72 0.36 0.14 1.97 0.14 C 3.59 0.14 3.59 -1.72 3.59 -2.22 Z M 1.97 -0.06 C 1.66 -0.06 1.23 -0.25 1.09 -0.81 C 1 -1.22 1 -1.80 1 -2.31 C 1 -2.81 1 -3.34 1.09 -3.73 C 1.25 -4.28 1.69 -4.42 1.97 -4.42 C 2.34 -4.42 2.72 -4.19 2.84 -3.80 C 2.95 -3.41 2.95 -2.91 2.95 -2.31 C 2.95 -1.80 2.95 -1.28 2.86 -0.84 C 2.72 -0.20 2.25 -0.06 1.97 -0.06 Z M 1.97 -0.06 "/>
</g>
<g id="2i2d-dynamique-echelle--glyph-8-3">
<path d="M 3.67 -1.14 L 3.67 -1.39 L 2.91 -1.39 L 2.91 -4.48 C 2.91 -4.64 2.91 -4.69 2.75 -4.69 C 2.67 -4.69 2.64 -4.69 2.58 -4.59 L 0.27 -1.39 L 0.27 -1.14 L 2.31 -1.14 L 2.31 -0.56 C 2.31 -0.33 2.31 -0.25 1.75 -0.25 L 1.56 -0.25 L 1.56 0 C 1.91 -0.02 2.36 -0.03 2.61 -0.03 C 2.86 -0.03 3.31 -0.02 3.66 0 L 3.66 -0.25 L 3.47 -0.25 C 2.91 -0.25 2.91 -0.33 2.91 -0.56 L 2.91 -1.14 Z M 2.36 -3.94 L 2.36 -1.39 L 0.53 -1.39 Z M 2.36 -3.94 "/>
</g>
<g id="2i2d-dynamique-echelle--glyph-8-4">
<path d="M 1.89 -2.33 C 2.44 -2.33 2.83 -1.95 2.83 -1.20 C 2.83 -0.34 2.33 -0.08 1.92 -0.08 C 1.64 -0.08 1.03 -0.16 0.75 -0.56 C 1.08 -0.58 1.14 -0.81 1.14 -0.95 C 1.14 -1.19 0.98 -1.34 0.77 -1.34 C 0.56 -1.34 0.38 -1.22 0.38 -0.94 C 0.38 -0.28 1.09 0.14 1.94 0.14 C 2.91 0.14 3.58 -0.5 3.58 -1.20 C 3.58 -1.75 3.12 -2.28 2.36 -2.45 C 3.09 -2.72 3.36 -3.23 3.36 -3.66 C 3.36 -4.20 2.72 -4.61 1.95 -4.61 C 1.19 -4.61 0.59 -4.23 0.59 -3.69 C 0.59 -3.45 0.75 -3.31 0.95 -3.31 C 1.17 -3.31 1.31 -3.48 1.31 -3.67 C 1.31 -3.88 1.17 -4.02 0.95 -4.03 C 1.20 -4.34 1.67 -4.42 1.94 -4.42 C 2.25 -4.42 2.69 -4.27 2.69 -3.66 C 2.69 -3.36 2.59 -3.05 2.41 -2.83 C 2.17 -2.56 1.98 -2.55 1.64 -2.53 C 1.45 -2.52 1.45 -2.52 1.41 -2.52 C 1.39 -2.52 1.34 -2.5 1.34 -2.42 C 1.34 -2.33 1.41 -2.33 1.52 -2.33 Z M 1.89 -2.33 "/>
</g>
<g id="2i2d-dynamique-echelle--glyph-9-0">
<path d="M 5.12 0 L 5.12 -0.22 L 5.03 -0.22 C 4.70 -0.22 4.70 -0.27 4.70 -0.42 L 4.70 -1.5 C 4.70 -2.11 4.25 -2.20 3.88 -2.20 C 3.39 -2.20 3.09 -1.95 2.97 -1.73 C 2.84 -2.19 2.33 -2.20 2.14 -2.20 C 1.64 -2.20 1.34 -1.92 1.22 -1.70 L 1.22 -2.20 L 0.41 -2.14 L 0.41 -1.92 C 0.78 -1.92 0.81 -1.89 0.81 -1.64 L 0.81 -0.42 C 0.81 -0.27 0.81 -0.22 0.5 -0.22 L 0.41 -0.22 L 0.41 0 C 0.62 -0.02 0.83 -0.02 1.05 -0.02 C 1.25 -0.02 1.47 -0.02 1.67 0 L 1.67 -0.22 L 1.58 -0.22 C 1.27 -0.22 1.27 -0.27 1.27 -0.42 L 1.27 -1.28 C 1.27 -1.83 1.77 -2.03 2.09 -2.03 C 2.45 -2.03 2.55 -1.83 2.55 -1.5 L 2.55 -0.42 C 2.55 -0.27 2.55 -0.22 2.22 -0.22 L 2.12 -0.22 L 2.12 0 C 2.34 -0.02 2.55 -0.02 2.77 -0.02 C 2.97 -0.02 3.19 -0.02 3.41 0 L 3.41 -0.22 L 3.31 -0.22 C 2.98 -0.22 2.98 -0.27 2.98 -0.42 L 2.98 -1.28 C 2.98 -1.83 3.5 -2.03 3.81 -2.03 C 4.17 -2.03 4.27 -1.83 4.27 -1.5 L 4.27 -0.42 C 4.27 -0.27 4.27 -0.22 3.94 -0.22 L 3.86 -0.22 L 3.86 0 C 4.06 -0.02 4.28 -0.02 4.48 -0.02 C 4.70 -0.02 4.91 -0.02 5.12 0 Z M 5.12 0 "/>
</g>
<g id="2i2d-dynamique-echelle--glyph-9-1">
<path d="M 2.72 -0.59 C 2.72 -0.67 2.64 -0.67 2.61 -0.67 C 2.53 -0.67 2.53 -0.66 2.5 -0.59 C 2.36 -0.25 2 -0.12 1.72 -0.12 C 1.31 -0.12 1.09 -0.34 1.02 -0.44 C 0.81 -0.67 0.81 -0.98 0.81 -1.12 L 2.56 -1.12 C 2.67 -1.12 2.72 -1.12 2.72 -1.23 C 2.72 -1.56 2.53 -2.22 1.61 -2.22 C 0.86 -2.22 0.33 -1.69 0.33 -1.09 C 0.33 -0.47 0.92 0.05 1.69 0.05 C 2.47 0.05 2.72 -0.5 2.72 -0.59 Z M 2.33 -1.27 L 0.83 -1.27 C 0.89 -1.92 1.38 -2.06 1.61 -2.06 C 2.30 -2.06 2.33 -1.42 2.33 -1.27 Z M 2.33 -1.27 "/>
</g>
<g id="2i2d-dynamique-echelle--glyph-9-2">
<path d="M 2.38 -0.62 C 2.38 -0.84 2.25 -1.02 2.06 -1.14 C 1.86 -1.25 1.72 -1.28 1.30 -1.34 C 0.98 -1.39 0.59 -1.45 0.59 -1.72 C 0.59 -1.89 0.80 -2.08 1.33 -2.08 C 1.75 -2.08 1.98 -1.91 2.02 -1.56 C 2.02 -1.5 2.02 -1.47 2.11 -1.47 C 2.22 -1.47 2.22 -1.5 2.22 -1.61 L 2.22 -2.09 C 2.22 -2.17 2.22 -2.22 2.14 -2.22 C 2.11 -2.22 2.09 -2.22 2.06 -2.19 C 2.03 -2.17 1.95 -2.09 1.92 -2.09 C 1.92 -2.09 1.91 -2.09 1.89 -2.11 C 1.77 -2.17 1.58 -2.22 1.34 -2.22 C 0.52 -2.22 0.34 -1.84 0.34 -1.62 C 0.34 -1.16 0.92 -1.06 1.38 -1 C 1.67 -0.95 2.12 -0.88 2.12 -0.55 C 2.12 -0.38 1.98 -0.11 1.38 -0.11 C 1.05 -0.11 0.72 -0.23 0.56 -0.77 C 0.55 -0.84 0.53 -0.86 0.45 -0.86 C 0.34 -0.86 0.34 -0.83 0.34 -0.72 L 0.34 -0.08 C 0.34 0 0.34 0.05 0.42 0.05 C 0.47 0.05 0.47 0.05 0.56 -0.05 L 0.70 -0.17 C 0.94 0.05 1.25 0.05 1.38 0.05 C 2.22 0.05 2.38 -0.38 2.38 -0.62 Z M 2.38 -0.62 "/>
</g>
<g id="2i2d-dynamique-echelle--glyph-9-3">
<path d="M 3.39 0 L 3.39 -0.22 C 3.03 -0.22 2.98 -0.25 2.98 -0.5 L 2.98 -2.20 L 2.12 -2.14 L 2.12 -1.92 C 2.5 -1.92 2.53 -1.89 2.53 -1.64 L 2.53 -0.83 C 2.53 -0.38 2.20 -0.11 1.78 -0.11 C 1.28 -0.11 1.27 -0.31 1.27 -0.56 L 1.27 -2.20 L 0.41 -2.14 L 0.41 -1.92 C 0.80 -1.92 0.81 -1.89 0.81 -1.62 L 0.81 -0.55 C 0.86 0.02 1.42 0.05 1.75 0.05 C 2.17 0.05 2.41 -0.14 2.56 -0.38 L 2.56 0.05 Z M 3.39 0 "/>
</g>
<g id="2i2d-dynamique-echelle--glyph-9-4">
<path d="M 2.38 -1.86 C 2.38 -2.05 2.20 -2.20 1.94 -2.20 C 1.69 -2.20 1.38 -2.06 1.17 -1.66 L 1.17 -2.20 L 0.38 -2.14 L 0.38 -1.92 C 0.75 -1.92 0.80 -1.89 0.80 -1.64 L 0.80 -0.42 C 0.80 -0.27 0.80 -0.22 0.47 -0.22 L 0.38 -0.22 L 0.38 0 C 0.59 -0.02 0.81 -0.02 1.02 -0.02 L 1.73 0 L 1.73 -0.22 L 1.59 -0.22 C 1.22 -0.22 1.22 -0.27 1.22 -0.42 L 1.22 -1.11 C 1.22 -1.58 1.47 -2.02 1.95 -2.03 C 1.95 -2.03 1.88 -1.97 1.88 -1.86 C 1.88 -1.67 2.02 -1.59 2.12 -1.59 C 2.25 -1.59 2.38 -1.69 2.38 -1.86 Z M 2.38 -1.86 "/>
</g>
<g id="2i2d-dynamique-echelle--glyph-9-5">
<path d="M 2.72 -0.59 C 2.72 -0.67 2.64 -0.67 2.61 -0.67 C 2.53 -0.67 2.53 -0.66 2.5 -0.59 C 2.36 -0.25 2 -0.12 1.72 -0.12 C 1.31 -0.12 1.09 -0.34 1.02 -0.44 C 0.81 -0.67 0.81 -0.98 0.81 -1.12 L 2.56 -1.12 C 2.67 -1.12 2.72 -1.12 2.72 -1.23 C 2.72 -1.56 2.53 -2.22 1.61 -2.22 C 0.86 -2.22 0.33 -1.69 0.33 -1.09 C 0.33 -0.47 0.92 0.05 1.69 0.05 C 2.47 0.05 2.72 -0.5 2.72 -0.59 Z M 2.33 -1.27 L 0.83 -1.27 C 0.89 -1.92 1.38 -2.06 1.61 -2.06 C 2.30 -2.06 2.33 -1.42 2.33 -1.27 Z M 2.30 -3.23 C 2.30 -3.34 2.20 -3.47 2.06 -3.47 C 1.98 -3.47 1.95 -3.44 1.89 -3.39 L 1.12 -2.66 L 1.25 -2.5 L 2.16 -3.05 C 2.22 -3.08 2.30 -3.12 2.30 -3.23 Z M 2.30 -3.23 "/>
</g>
<g id="2i2d-dynamique-echelle--glyph-10-0">
<path d="M 4.88 -3.27 C 4.94 -3.34 4.97 -3.38 4.97 -3.42 C 4.97 -3.55 4.88 -3.61 4.80 -3.61 C 4.73 -3.61 4.70 -3.58 4.62 -3.5 L 3.09 -1.98 L 1.58 -3.5 C 1.5 -3.58 1.47 -3.61 1.41 -3.61 C 1.31 -3.61 1.23 -3.53 1.23 -3.42 C 1.23 -3.36 1.27 -3.34 1.34 -3.27 L 2.86 -1.75 L 1.34 -0.23 C 1.25 -0.12 1.23 -0.09 1.23 -0.06 C 1.23 0.05 1.31 0.12 1.41 0.12 C 1.47 0.12 1.5 0.09 1.58 0.02 L 3.09 -1.5 L 4.69 0.08 C 4.72 0.11 4.75 0.12 4.80 0.12 C 4.88 0.12 4.97 0.06 4.97 -0.06 C 4.97 -0.11 4.95 -0.12 4.94 -0.14 C 4.92 -0.17 3.56 -1.52 3.34 -1.73 Z M 4.88 -3.27 "/>
</g>
<g id="2i2d-dynamique-echelle--glyph-10-1">
<path d="M 1.52 -1.91 C 2.39 -2.55 2.52 -3.47 2.52 -3.47 C 2.52 -3.58 2.44 -3.58 2.34 -3.58 C 2.22 -3.58 2.20 -3.58 2.16 -3.45 C 1.89 -2.36 1.14 -2 0.61 -1.83 C 0.58 -1.83 0.53 -1.78 0.53 -1.75 C 0.53 -1.67 0.61 -1.64 0.62 -1.64 C 1.61 -1.34 2 -0.69 2.17 0 C 2.20 0.09 2.25 0.09 2.34 0.09 C 2.44 0.09 2.52 0.09 2.52 -0.02 C 2.52 -0.03 2.44 -0.5 2.09 -0.97 C 1.94 -1.20 1.75 -1.41 1.52 -1.58 L 6.39 -1.58 C 5.52 -0.94 5.41 -0.02 5.41 -0.02 C 5.41 0.09 5.47 0.09 5.56 0.09 C 5.69 0.09 5.72 0.09 5.75 -0.03 C 5.80 -0.20 5.91 -0.64 6.27 -1.03 C 6.67 -1.45 7.02 -1.56 7.31 -1.64 C 7.34 -1.66 7.38 -1.70 7.38 -1.73 C 7.38 -1.81 7.33 -1.83 7.25 -1.84 C 6.25 -2.17 5.89 -2.88 5.75 -3.48 C 5.72 -3.58 5.67 -3.58 5.56 -3.58 C 5.47 -3.58 5.41 -3.58 5.41 -3.47 C 5.41 -3.45 5.47 -2.98 5.81 -2.52 C 5.97 -2.28 6.17 -2.08 6.39 -1.91 Z M 1.52 -1.91 "/>
</g>
</g>
</defs>
<g fill="rgb(0%, 0%, 0%)" fill-opacity="1">
<use xlink:href="#2i2d-dynamique-echelle--glyph-0-0" x="5.956128" y="12.450919"/>
<use xlink:href="#2i2d-dynamique-echelle--glyph-0-1" x="12.3079" y="12.450919"/>
</g>
<g fill="rgb(0%, 0%, 0%)" fill-opacity="1">
<use xlink:href="#2i2d-dynamique-echelle--glyph-0-2" x="20.678659" y="12.450919"/>
<use xlink:href="#2i2d-dynamique-echelle--glyph-0-3" x="26.548017" y="12.450919"/>
<use xlink:href="#2i2d-dynamique-echelle--glyph-0-4" x="32.131501" y="12.450919"/>
<use xlink:href="#2i2d-dynamique-echelle--glyph-0-5" x="38.00086" y="12.450919"/>
<use xlink:href="#2i2d-dynamique-echelle--glyph-0-6" x="43.137665" y="12.450919"/>
<use xlink:href="#2i2d-dynamique-echelle--glyph-0-7" x="51.946169" y="12.450919"/>
<use xlink:href="#2i2d-dynamique-echelle--glyph-0-8" x="54.885315" y="12.450919"/>
<use xlink:href="#2i2d-dynamique-echelle--glyph-0-9" x="60.468799" y="12.450919"/>
<use xlink:href="#2i2d-dynamique-echelle--glyph-0-1" x="66.338158" y="12.450919"/>
</g>
<g fill="rgb(0%, 0%, 0%)" fill-opacity="1">
<use xlink:href="#2i2d-dynamique-echelle--glyph-0-10" x="74.699983" y="12.450919"/>
<use xlink:href="#2i2d-dynamique-echelle--glyph-0-1" x="77.933937" y="12.450919"/>
<use xlink:href="#2i2d-dynamique-echelle--glyph-0-11" x="82.784868" y="12.450919"/>
<use xlink:href="#2i2d-dynamique-echelle--glyph-0-6" x="87.144453" y="12.450919"/>
<use xlink:href="#2i2d-dynamique-echelle--glyph-0-12" x="95.952957" y="12.450919"/>
</g>
<path fill="none" stroke-width="1.0959" stroke-linecap="butt" stroke-linejoin="miter" stroke="rgb(88.233948%, 21.569824%, 9.803772%)" stroke-opacity="1" stroke-miterlimit="10" d="M 14.17 90.71 L 14.17 14.35 " transform="matrix(0.996341, 0, 0, -0.996341, 19.492421, 118.659902)"/>
<path fill-rule="nonzero" fill="rgb(88.233948%, 21.569824%, 9.803772%)" fill-opacity="1" stroke-width="0.8406" stroke-linecap="butt" stroke-linejoin="miter" stroke="rgb(88.233948%, 21.569824%, 9.803772%)" stroke-opacity="1" stroke-miterlimit="10" d="M 3.79 -0.00 L 1.36 0.92 L 2.17 -0.00 L 1.36 -0.92 Z M 3.79 -0.00 " transform="matrix(0, 0.996341, 0.996341, 0, 33.613954, 102.399682)"/>
<path fill="none" stroke-width="1.0959" stroke-linecap="butt" stroke-linejoin="miter" stroke="rgb(88.233948%, 21.569824%, 9.803772%)" stroke-opacity="1" stroke-miterlimit="10" d="M 14.17 11.34 L 50.84 11.34 " transform="matrix(0.996341, 0, 0, -0.996341, 19.492421, 118.659902)"/>
<path fill-rule="nonzero" fill="rgb(88.233948%, 21.569824%, 9.803772%)" fill-opacity="1" stroke-width="0.8406" stroke-linecap="butt" stroke-linejoin="miter" stroke="rgb(88.233948%, 21.569824%, 9.803772%)" stroke-opacity="1" stroke-miterlimit="10" d="M 3.78 -0.00 L 1.36 0.92 L 2.18 -0.00 L 1.36 -0.93 Z M 3.78 -0.00 " transform="matrix(0.996341, 0, 0, -0.996341, 68.190961, 107.362837)"/>
<path fill="none" stroke-width="1.0959" stroke-linecap="butt" stroke-linejoin="miter" stroke="rgb(88.233948%, 21.569824%, 9.803772%)" stroke-opacity="1" stroke-miterlimit="10" d="M 53.86 11.34 L 15.52 88.01 " transform="matrix(0.996341, 0, 0, -0.996341, 19.492421, 118.659902)"/>
<path fill-rule="nonzero" fill="rgb(88.233948%, 21.569824%, 9.803772%)" fill-opacity="1" stroke-width="0.8406" stroke-linecap="butt" stroke-linejoin="miter" stroke="rgb(88.233948%, 21.569824%, 9.803772%)" stroke-opacity="1" stroke-miterlimit="10" d="M 3.78 -0.00 L 1.36 0.92 L 2.18 0.00 L 1.36 -0.92 Z M 3.78 -0.00 " transform="matrix(-0.445534, -0.891088, -0.891088, 0.445534, 35.833354, 32.720954)"/>
<path fill-rule="nonzero" fill="rgb(88.233948%, 21.569824%, 9.803772%)" fill-opacity="1" d="M 32.20 108.77 L 32.20 105.95 L 35.03 105.95 L 35.03 108.77 Z M 32.20 108.77 "/>
<path fill-rule="nonzero" fill="rgb(88.233948%, 21.569824%, 9.803772%)" fill-opacity="1" d="M 32.20 29.70 L 32.20 26.87 L 35.03 26.87 L 35.03 29.70 Z M 32.20 29.70 "/>
<path fill-rule="nonzero" fill="rgb(88.233948%, 21.569824%, 9.803772%)" fill-opacity="1" d="M 71.74 108.77 L 71.74 105.95 L 74.57 105.95 L 74.57 108.77 Z M 71.74 108.77 "/>
<g fill="rgb(88.233948%, 21.569824%, 9.803772%)" fill-opacity="1">
<use xlink:href="#2i2d-dynamique-echelle--glyph-1-0" x="23.385126" y="67.066362"/>
</g>
<g fill="rgb(88.233948%, 21.569824%, 9.803772%)" fill-opacity="1">
<use xlink:href="#2i2d-dynamique-echelle--glyph-1-1" x="22.033091" y="69.325068"/>
</g>
<g fill="rgb(88.233948%, 21.569824%, 9.803772%)" fill-opacity="1">
<use xlink:href="#2i2d-dynamique-echelle--glyph-1-0" x="51.167106" y="118.198596"/>
</g>
<g fill="rgb(88.233948%, 21.569824%, 9.803772%)" fill-opacity="1">
<use xlink:href="#2i2d-dynamique-echelle--glyph-1-2" x="49.815071" y="120.457301"/>
</g>
<g fill="rgb(88.233948%, 21.569824%, 9.803772%)" fill-opacity="1">
<use xlink:href="#2i2d-dynamique-echelle--glyph-1-0" x="63.295568" y="63.745556"/>
</g>
<g fill="rgb(88.233948%, 21.569824%, 9.803772%)" fill-opacity="1">
<use xlink:href="#2i2d-dynamique-echelle--glyph-1-3" x="59.804388" y="66.004262"/>
</g>
<g fill="rgb(88.233948%, 21.569824%, 9.803772%)" fill-opacity="1">
<use xlink:href="#2i2d-dynamique-echelle--glyph-2-0" x="66.751876" y="66.996618"/>
</g>
<g fill="rgb(0%, 0%, 0%)" fill-opacity="1">
<use xlink:href="#2i2d-dynamique-echelle--glyph-1-0" x="21.486099" y="128.649219"/>
</g>
<g fill="rgb(0%, 0%, 0%)" fill-opacity="1">
<use xlink:href="#2i2d-dynamique-echelle--glyph-1-1" x="20.134064" y="130.906929"/>
</g>
<g fill="rgb(0%, 0%, 0%)" fill-opacity="1">
<use xlink:href="#2i2d-dynamique-echelle--glyph-3-0" x="29.31236" y="130.906929"/>
</g>
<g fill="rgb(0%, 0%, 0%)" fill-opacity="1">
<use xlink:href="#2i2d-dynamique-echelle--glyph-1-0" x="39.84568" y="128.649219"/>
</g>
<g fill="rgb(0%, 0%, 0%)" fill-opacity="1">
<use xlink:href="#2i2d-dynamique-echelle--glyph-1-2" x="38.493645" y="130.906929"/>
</g>
<g fill="rgb(0%, 0%, 0%)" fill-opacity="1">
<use xlink:href="#2i2d-dynamique-echelle--glyph-3-0" x="47.671941" y="130.906929"/>
</g>
<g fill="rgb(0%, 0%, 0%)" fill-opacity="1">
<use xlink:href="#2i2d-dynamique-echelle--glyph-1-0" x="60.344405" y="128.649219"/>
</g>
<g fill="rgb(0%, 0%, 0%)" fill-opacity="1">
<use xlink:href="#2i2d-dynamique-echelle--glyph-1-3" x="56.854222" y="130.906929"/>
</g>
<g fill="rgb(0%, 0%, 0%)" fill-opacity="1">
<use xlink:href="#2i2d-dynamique-echelle--glyph-2-0" x="63.800713" y="131.899285"/>
</g>
<g fill="rgb(0%, 0%, 0%)" fill-opacity="1">
<use xlink:href="#2i2d-dynamique-echelle--glyph-3-1" x="72.351314" y="130.906929"/>
</g>
<g fill="rgb(0%, 0%, 0%)" fill-opacity="1">
<use xlink:href="#2i2d-dynamique-echelle--glyph-1-0" x="81.35525" y="128.995946"/>
</g>
<g fill="rgb(0%, 0%, 0%)" fill-opacity="1">
<use xlink:href="#2i2d-dynamique-echelle--glyph-3-2" x="82.042726" y="130.906929"/>
</g>
<g fill="rgb(34.999084%, 34.999084%, 34.999084%)" fill-opacity="1">
<use xlink:href="#2i2d-dynamique-echelle--glyph-4-0" x="15.866735" y="140.730854"/>
<use xlink:href="#2i2d-dynamique-echelle--glyph-4-1" x="20.251134" y="140.730854"/>
<use xlink:href="#2i2d-dynamique-echelle--glyph-4-2" x="23.350091" y="140.730854"/>
<use xlink:href="#2i2d-dynamique-echelle--glyph-4-0" x="27.303693" y="140.730854"/>
</g>
<g fill="rgb(34.999084%, 34.999084%, 34.999084%)" fill-opacity="1">
<use xlink:href="#2i2d-dynamique-echelle--glyph-4-2" x="31.903491" y="140.730854"/>
<use xlink:href="#2i2d-dynamique-echelle--glyph-4-1" x="35.857093" y="140.730854"/>
<use xlink:href="#2i2d-dynamique-echelle--glyph-4-3" x="38.95605" y="140.730854"/>
<use xlink:href="#2i2d-dynamique-echelle--glyph-4-4" x="42.055008" y="140.730854"/>
<use xlink:href="#2i2d-dynamique-echelle--glyph-4-2" x="44.29932" y="140.730854"/>
<use xlink:href="#2i2d-dynamique-echelle--glyph-4-5" x="48.252922" y="140.730854"/>
<use xlink:href="#2i2d-dynamique-echelle--glyph-4-6" x="52.637321" y="140.730854"/>
</g>
<g fill="rgb(34.999084%, 34.999084%, 34.999084%)" fill-opacity="1">
<use xlink:href="#2i2d-dynamique-echelle--glyph-4-7" x="58.460026" y="140.730854"/>
<use xlink:href="#2i2d-dynamique-echelle--glyph-4-8" x="61.98978" y="140.730854"/>
<use xlink:href="#2i2d-dynamique-echelle--glyph-4-9" x="66.15878" y="140.730854"/>
<use xlink:href="#2i2d-dynamique-echelle--glyph-4-10" x="70.112383" y="140.730854"/>
<use xlink:href="#2i2d-dynamique-echelle--glyph-4-11" x="74.065985" y="140.730854"/>
<use xlink:href="#2i2d-dynamique-echelle--glyph-4-1" x="77.595739" y="140.730854"/>
<use xlink:href="#2i2d-dynamique-echelle--glyph-4-11" x="80.694696" y="140.730854"/>
<use xlink:href="#2i2d-dynamique-echelle--glyph-4-7" x="84.22445" y="140.730854"/>
<use xlink:href="#2i2d-dynamique-echelle--glyph-4-6" x="87.754204" y="140.730854"/>
</g>
<g fill="rgb(34.999084%, 34.999084%, 34.999084%)" fill-opacity="1">
<use xlink:href="#2i2d-dynamique-echelle--glyph-4-0" x="25.778338" y="148.67269"/>
</g>
<g fill="rgb(34.999084%, 34.999084%, 34.999084%)" fill-opacity="1">
<use xlink:href="#2i2d-dynamique-echelle--glyph-4-2" x="30.378135" y="148.67269"/>
<use xlink:href="#2i2d-dynamique-echelle--glyph-4-12" x="34.331738" y="148.67269"/>
<use xlink:href="#2i2d-dynamique-echelle--glyph-4-1" x="38.716137" y="148.67269"/>
</g>
<g fill="rgb(34.999084%, 34.999084%, 34.999084%)" fill-opacity="1">
<use xlink:href="#2i2d-dynamique-echelle--glyph-4-13" x="44.490203" y="148.67269"/>
<use xlink:href="#2i2d-dynamique-echelle--glyph-4-9" x="46.734515" y="148.67269"/>
</g>
<g fill="rgb(34.999084%, 34.999084%, 34.999084%)" fill-opacity="1">
<use xlink:href="#2i2d-dynamique-echelle--glyph-4-13" x="53.363226" y="148.67269"/>
<use xlink:href="#2i2d-dynamique-echelle--glyph-4-4" x="55.607538" y="148.67269"/>
<use xlink:href="#2i2d-dynamique-echelle--glyph-4-6" x="57.85185" y="148.67269"/>
<use xlink:href="#2i2d-dynamique-echelle--glyph-4-4" x="60.999446" y="148.67269"/>
<use xlink:href="#2i2d-dynamique-echelle--glyph-4-14" x="63.243758" y="148.67269"/>
<use xlink:href="#2i2d-dynamique-echelle--glyph-4-4" x="67.628157" y="148.67269"/>
<use xlink:href="#2i2d-dynamique-echelle--glyph-4-13" x="69.872469" y="148.67269"/>
<use xlink:href="#2i2d-dynamique-echelle--glyph-4-4" x="72.116781" y="148.67269"/>
<use xlink:href="#2i2d-dynamique-echelle--glyph-4-3" x="74.361093" y="148.67269"/>
<use xlink:href="#2i2d-dynamique-echelle--glyph-4-11" x="77.46005" y="148.67269"/>
</g>
<path fill="none" stroke-width="0.3985" stroke-linecap="butt" stroke-linejoin="miter" stroke="rgb(64.99939%, 64.99939%, 64.99939%)" stroke-opacity="1" stroke-miterlimit="10" d="M 94.96 -26.93 L 94.96 106.30 " transform="matrix(0.996341, 0, 0, -0.996341, 19.492421, 118.659902)"/>
<g fill="rgb(0%, 0%, 0%)" fill-opacity="1">
<use xlink:href="#2i2d-dynamique-echelle--glyph-0-0" x="142.336317" y="14.184553"/>
<use xlink:href="#2i2d-dynamique-echelle--glyph-0-13" x="148.688089" y="14.184553"/>
<use xlink:href="#2i2d-dynamique-echelle--glyph-0-12" x="151.627235" y="14.184553"/>
<use xlink:href="#2i2d-dynamique-echelle--glyph-0-14" x="156.478166" y="14.184553"/>
</g>
<g fill="rgb(0%, 0%, 0%)" fill-opacity="1">
<use xlink:href="#2i2d-dynamique-echelle--glyph-0-15" x="160.882418" y="14.184553"/>
<use xlink:href="#2i2d-dynamique-echelle--glyph-0-1" x="166.751776" y="14.184553"/>
<use xlink:href="#2i2d-dynamique-echelle--glyph-0-16" x="171.602707" y="14.184553"/>
<use xlink:href="#2i2d-dynamique-echelle--glyph-0-16" x="174.541853" y="14.184553"/>
<use xlink:href="#2i2d-dynamique-echelle--glyph-0-1" x="177.480999" y="14.184553"/>
</g>
<g fill="rgb(0%, 0%, 0%)" fill-opacity="1">
<use xlink:href="#2i2d-dynamique-echelle--glyph-0-2" x="185.842825" y="14.184553"/>
<use xlink:href="#2i2d-dynamique-echelle--glyph-0-9" x="191.712183" y="14.184553"/>
</g>
<g fill="rgb(0%, 0%, 0%)" fill-opacity="1">
<use xlink:href="#2i2d-dynamique-echelle--glyph-0-17" x="201.10137" y="14.184553"/>
<use xlink:href="#2i2d-dynamique-echelle--glyph-0-11" x="205.210814" y="14.184553"/>
<use xlink:href="#2i2d-dynamique-echelle--glyph-0-5" x="209.570399" y="14.184553"/>
<use xlink:href="#2i2d-dynamique-echelle--glyph-0-14" x="214.707204" y="14.184553"/>
<use xlink:href="#2i2d-dynamique-echelle--glyph-0-12" x="219.406264" y="14.184553"/>
</g>
<path fill="none" stroke-width="0.99628" stroke-linecap="butt" stroke-linejoin="miter" stroke="rgb(92.156982%, 58.822632%, 7.841492%)" stroke-opacity="1" stroke-miterlimit="10" d="M 130.39 62.36 L 158.74 62.36 " transform="matrix(0.996341, 0, 0, -0.996341, 19.492421, 118.659902)"/>
<path fill="none" stroke-width="0.99628" stroke-linecap="butt" stroke-linejoin="miter" stroke="rgb(92.156982%, 58.822632%, 7.841492%)" stroke-opacity="1" stroke-miterlimit="10" d="M 130.39 58.11 L 130.39 66.61 M 158.74 58.11 L 158.74 66.61 " transform="matrix(0.996341, 0, 0, -0.996341, 19.492421, 118.659902)"/>
<g fill="rgb(92.156982%, 58.822632%, 7.841492%)" fill-opacity="1">
<use xlink:href="#2i2d-dynamique-echelle--glyph-4-15" x="155.18912" y="68.476185"/>
</g>
<g fill="rgb(92.156982%, 58.822632%, 7.841492%)" fill-opacity="1">
<use xlink:href="#2i2d-dynamique-echelle--glyph-4-16" x="161.817831" y="68.476185"/>
<use xlink:href="#2i2d-dynamique-echelle--glyph-4-17" x="165.347585" y="68.476185"/>
</g>
<g fill="rgb(0%, 0%, 0%)" fill-opacity="1">
<use xlink:href="#2i2d-dynamique-echelle--glyph-5-0" x="184.072057" y="59.528044"/>
</g>
<g fill="rgb(0%, 0%, 0%)" fill-opacity="1">
<use xlink:href="#2i2d-dynamique-echelle--glyph-6-0" x="201.862727" y="59.528044"/>
<use xlink:href="#2i2d-dynamique-echelle--glyph-6-1" x="206.454584" y="59.528044"/>
</g>
<g fill="rgb(0%, 0%, 0%)" fill-opacity="1">
<use xlink:href="#2i2d-dynamique-echelle--glyph-6-2" x="214.110657" y="59.528044"/>
<use xlink:href="#2i2d-dynamique-echelle--glyph-6-3" x="218.952655" y="59.528044"/>
</g>
<g fill="rgb(0%, 0%, 0%)" fill-opacity="1">
<use xlink:href="#2i2d-dynamique-echelle--glyph-4-13" x="134.151374" y="85.09715"/>
<use xlink:href="#2i2d-dynamique-echelle--glyph-4-4" x="136.395686" y="85.09715"/>
<use xlink:href="#2i2d-dynamique-echelle--glyph-4-1" x="138.639998" y="85.09715"/>
<use xlink:href="#2i2d-dynamique-echelle--glyph-4-7" x="141.738955" y="85.09715"/>
</g>
<g fill="rgb(0%, 0%, 0%)" fill-opacity="1">
<use xlink:href="#2i2d-dynamique-echelle--glyph-4-18" x="147.943818" y="85.09715"/>
</g>
<g fill="rgb(0%, 0%, 0%)" fill-opacity="1">
<use xlink:href="#2i2d-dynamique-echelle--glyph-7-0" x="159.251203" y="85.09715"/>
</g>
<g fill="rgb(0%, 0%, 0%)" fill-opacity="1">
<use xlink:href="#2i2d-dynamique-echelle--glyph-8-0" x="167.613495" y="85.09715"/>
</g>
<g fill="rgb(0%, 0%, 0%)" fill-opacity="1">
<use xlink:href="#2i2d-dynamique-echelle--glyph-7-1" x="175.965824" y="85.09715"/>
</g>
<g fill="rgb(0%, 0%, 0%)" fill-opacity="1">
<use xlink:href="#2i2d-dynamique-echelle--glyph-9-0" x="179.288622" y="86.168217"/>
<use xlink:href="#2i2d-dynamique-echelle--glyph-9-1" x="184.733137" y="86.168217"/>
<use xlink:href="#2i2d-dynamique-echelle--glyph-9-2" x="187.765588" y="86.168217"/>
<use xlink:href="#2i2d-dynamique-echelle--glyph-9-3" x="190.490327" y="86.168217"/>
<use xlink:href="#2i2d-dynamique-echelle--glyph-9-4" x="194.212648" y="86.168217"/>
<use xlink:href="#2i2d-dynamique-echelle--glyph-9-5" x="196.902646" y="86.168217"/>
<use xlink:href="#2i2d-dynamique-echelle--glyph-9-1" x="199.935096" y="86.168217"/>
</g>
<g fill="rgb(0%, 0%, 0%)" fill-opacity="1">
<use xlink:href="#2i2d-dynamique-echelle--glyph-10-0" x="205.27121" y="85.09715"/>
</g>
<g fill="rgb(0%, 0%, 0%)" fill-opacity="1">
<use xlink:href="#2i2d-dynamique-echelle--glyph-8-1" x="213.28279" y="85.09715"/>
<use xlink:href="#2i2d-dynamique-echelle--glyph-8-2" x="217.239172" y="85.09715"/>
</g>
<g fill="rgb(0%, 0%, 0%)" fill-opacity="1">
<use xlink:href="#2i2d-dynamique-echelle--glyph-4-19" x="228.475998" y="85.09715"/>
<use xlink:href="#2i2d-dynamique-echelle--glyph-4-20" x="231.574956" y="85.09715"/>
<use xlink:href="#2i2d-dynamique-echelle--glyph-4-21" x="235.743956" y="85.09715"/>
<use xlink:href="#2i2d-dynamique-echelle--glyph-4-22" x="241.601402" y="85.09715"/>
</g>
<g fill="rgb(0%, 0%, 0%)" fill-opacity="1">
<use xlink:href="#2i2d-dynamique-echelle--glyph-4-3" x="134.151374" y="97.80349"/>
<use xlink:href="#2i2d-dynamique-echelle--glyph-4-1" x="137.250331" y="97.80349"/>
<use xlink:href="#2i2d-dynamique-echelle--glyph-4-9" x="140.349288" y="97.80349"/>
<use xlink:href="#2i2d-dynamique-echelle--glyph-4-16" x="144.302891" y="97.80349"/>
<use xlink:href="#2i2d-dynamique-echelle--glyph-4-7" x="147.832645" y="97.80349"/>
<use xlink:href="#2i2d-dynamique-echelle--glyph-4-1" x="151.362399" y="97.80349"/>
</g>
<g fill="rgb(0%, 0%, 0%)" fill-opacity="1">
<use xlink:href="#2i2d-dynamique-echelle--glyph-4-18" x="157.136465" y="97.80349"/>
</g>
<g fill="rgb(0%, 0%, 0%)" fill-opacity="1">
<use xlink:href="#2i2d-dynamique-echelle--glyph-7-1" x="168.443448" y="97.80349"/>
</g>
<g fill="rgb(0%, 0%, 0%)" fill-opacity="1">
<use xlink:href="#2i2d-dynamique-echelle--glyph-8-0" x="174.025948" y="97.80349"/>
</g>
<g fill="rgb(0%, 0%, 0%)" fill-opacity="1">
<use xlink:href="#2i2d-dynamique-echelle--glyph-7-0" x="182.378277" y="97.80349"/>
</g>
<g fill="rgb(0%, 0%, 0%)" fill-opacity="1">
<use xlink:href="#2i2d-dynamique-echelle--glyph-7-2" x="188.051592" y="97.80349"/>
</g>
<g fill="rgb(0%, 0%, 0%)" fill-opacity="1">
<use xlink:href="#2i2d-dynamique-echelle--glyph-8-1" x="192.120502" y="97.80349"/>
<use xlink:href="#2i2d-dynamique-echelle--glyph-8-2" x="196.076883" y="97.80349"/>
</g>
<g fill="rgb(0%, 0%, 0%)" fill-opacity="1">
<use xlink:href="#2i2d-dynamique-echelle--glyph-4-19" x="207.31371" y="97.80349"/>
<use xlink:href="#2i2d-dynamique-echelle--glyph-4-16" x="210.412667" y="97.80349"/>
<use xlink:href="#2i2d-dynamique-echelle--glyph-4-17" x="213.942421" y="97.80349"/>
<use xlink:href="#2i2d-dynamique-echelle--glyph-4-22" x="220.466907" y="97.80349"/>
</g>
<path fill-rule="nonzero" fill="rgb(99.372864%, 96.705627%, 92.626953%)" fill-opacity="1" stroke-width="0.3985" stroke-linecap="butt" stroke-linejoin="miter" stroke="rgb(94.509888%, 71.174622%, 35.488892%)" stroke-opacity="1" stroke-miterlimit="10" d="M 212.69 6.89 L 116.08 6.89 C 114.70 6.89 113.59 5.77 113.59 4.40 L 113.59 -4.79 C 113.59 -6.16 114.70 -7.28 116.08 -7.28 L 212.69 -7.28 C 214.06 -7.28 215.18 -6.16 215.18 -4.79 L 215.18 4.40 C 215.18 5.77 214.06 6.89 212.69 6.89 Z M 212.69 6.89 " transform="matrix(0.996341, 0, 0, -0.996341, 19.492421, 118.659902)"/>
<g fill="rgb(0%, 0%, 0%)" fill-opacity="1">
<use xlink:href="#2i2d-dynamique-echelle--glyph-4-7" x="136.632264" y="120.590811"/>
<use xlink:href="#2i2d-dynamique-echelle--glyph-4-8" x="140.162018" y="120.590811"/>
<use xlink:href="#2i2d-dynamique-echelle--glyph-4-7" x="144.331018" y="120.590811"/>
<use xlink:href="#2i2d-dynamique-echelle--glyph-4-17" x="147.860772" y="120.590811"/>
<use xlink:href="#2i2d-dynamique-echelle--glyph-4-0" x="154.385259" y="120.590811"/>
<use xlink:href="#2i2d-dynamique-echelle--glyph-4-13" x="158.769658" y="120.590811"/>
<use xlink:href="#2i2d-dynamique-echelle--glyph-4-7" x="161.01397" y="120.590811"/>
</g>
<g fill="rgb(0%, 0%, 0%)" fill-opacity="1">
<use xlink:href="#2i2d-dynamique-echelle--glyph-4-18" x="167.218832" y="120.590811"/>
</g>
<g fill="rgb(0%, 0%, 0%)" fill-opacity="1">
<use xlink:href="#2i2d-dynamique-echelle--glyph-8-3" x="173.030603" y="120.590811"/>
</g>
<g fill="rgb(0%, 0%, 0%)" fill-opacity="1">
<use xlink:href="#2i2d-dynamique-echelle--glyph-7-3" x="176.987074" y="120.590811"/>
</g>
<g fill="rgb(0%, 0%, 0%)" fill-opacity="1">
<use xlink:href="#2i2d-dynamique-echelle--glyph-8-4" x="179.344418" y="120.590811"/>
</g>
<g fill="rgb(0%, 0%, 0%)" fill-opacity="1">
<use xlink:href="#2i2d-dynamique-echelle--glyph-4-16" x="185.976065" y="120.590811"/>
<use xlink:href="#2i2d-dynamique-echelle--glyph-4-17" x="189.505819" y="120.590811"/>
</g>
<g fill="rgb(0%, 0%, 0%)" fill-opacity="1">
<use xlink:href="#2i2d-dynamique-echelle--glyph-10-1" x="198.705321" y="120.590811"/>
</g>
<g fill="rgb(0%, 0%, 0%)" fill-opacity="1">
<use xlink:href="#2i2d-dynamique-echelle--glyph-8-3" x="209.294436" y="120.590811"/>
<use xlink:href="#2i2d-dynamique-echelle--glyph-8-4" x="213.250818" y="120.590811"/>
</g>
<g fill="rgb(0%, 0%, 0%)" fill-opacity="1">
<use xlink:href="#2i2d-dynamique-echelle--glyph-4-20" x="219.882555" y="120.590811"/>
<use xlink:href="#2i2d-dynamique-echelle--glyph-4-21" x="224.051556" y="120.590811"/>
</g>
</svg>