<svg class="fig" role="img" data-fig="mecanisme-bielle-manivelle-graphe" xmlns="http://www.w3.org/2000/svg" xmlns:xlink="http://www.w3.org/1999/xlink" width="240.373pt" height="118.521pt" viewBox="0 0 240.373 118.521">
<defs>
<g>
<g id="mecanisme-bielle-manivelle-graphe--glyph-0-0">
<path d="M 4.88 -2.84 C 4.88 -3.77 4.84 -5.86 2.64 -5.86 C 0.47 -5.86 0.41 -3.83 0.41 -2.84 C 0.41 -1.92 0.44 0.11 2.64 0.11 C 4.81 0.11 4.88 -1.86 4.88 -2.84 Z M 3.69 -2.95 C 3.69 -2.27 3.69 -1.20 3.55 -0.84 C 3.34 -0.41 2.94 -0.25 2.64 -0.25 C 2.41 -0.25 1.78 -0.36 1.67 -1.19 C 1.59 -1.66 1.59 -2.47 1.59 -2.95 C 1.59 -3.52 1.59 -4.27 1.67 -4.69 C 1.81 -5.41 2.41 -5.5 2.64 -5.5 C 2.94 -5.5 3.5 -5.36 3.61 -4.67 C 3.69 -4.23 3.69 -3.47 3.69 -2.95 Z M 3.69 -2.95 "/>
</g>
<g id="mecanisme-bielle-manivelle-graphe--glyph-0-1">
<path d="M 4.55 0 L 4.55 -0.44 L 3.25 -0.44 L 3.25 -5.56 C 3.25 -5.77 3.25 -5.86 3 -5.86 C 2.89 -5.86 2.88 -5.86 2.78 -5.80 C 2.09 -5.30 1.14 -5.30 0.97 -5.30 L 0.78 -5.30 L 0.78 -4.86 L 0.97 -4.86 C 1.19 -4.86 1.66 -4.88 2.16 -5.03 L 2.16 -0.44 L 0.89 -0.44 L 0.89 0 C 1.22 -0.03 2.31 -0.03 2.70 -0.03 C 3.12 -0.03 4.19 -0.03 4.55 0 Z M 4.55 0 "/>
</g>
<g id="mecanisme-bielle-manivelle-graphe--glyph-0-2">
<path d="M 4.75 -2.02 L 4.30 -2.02 C 4.28 -1.89 4.20 -1.25 4.06 -1.19 C 3.95 -1.14 3.28 -1.14 3.14 -1.14 L 1.86 -1.14 C 2.33 -1.53 2.88 -1.95 3.31 -2.27 C 4.06 -2.78 4.75 -3.27 4.75 -4.14 C 4.75 -5.19 3.80 -5.86 2.5 -5.86 C 1.39 -5.86 0.53 -5.33 0.53 -4.52 C 0.53 -4.05 0.89 -3.83 1.20 -3.83 C 1.48 -3.83 1.86 -4.05 1.86 -4.5 C 1.86 -4.70 1.78 -5.03 1.39 -5.14 C 1.70 -5.39 2.09 -5.42 2.28 -5.42 C 3.02 -5.42 3.48 -4.88 3.48 -4.14 C 3.48 -3.5 3.09 -2.91 2.62 -2.42 L 0.62 -0.45 C 0.53 -0.36 0.53 -0.34 0.53 -0.17 L 0.53 0 L 4.48 0 Z M 4.75 -2.02 "/>
</g>
<g id="mecanisme-bielle-manivelle-graphe--glyph-0-3">
<path d="M 4.84 -1.61 C 4.84 -2.31 4.31 -2.94 3.30 -3.14 C 4.20 -3.45 4.55 -4.08 4.55 -4.62 C 4.55 -5.30 3.88 -5.86 2.55 -5.86 C 1.45 -5.86 0.73 -5.27 0.73 -4.55 C 0.73 -4.14 1.02 -3.89 1.38 -3.89 C 1.77 -3.89 2.02 -4.17 2.02 -4.55 C 2.02 -4.83 1.84 -5.09 1.5 -5.17 C 1.56 -5.23 1.94 -5.5 2.5 -5.5 C 3.28 -5.5 3.28 -4.92 3.28 -4.64 C 3.28 -4.14 3.09 -3.36 2.33 -3.31 L 1.91 -3.28 C 1.77 -3.27 1.77 -3.17 1.77 -3.11 C 1.77 -2.94 1.86 -2.94 2.02 -2.94 L 2.44 -2.94 C 3.44 -2.94 3.44 -2.06 3.44 -1.61 C 3.44 -1.20 3.44 -0.30 2.48 -0.30 C 2.38 -0.30 1.77 -0.31 1.34 -0.61 C 1.77 -0.72 1.84 -1.08 1.84 -1.28 C 1.84 -1.70 1.56 -1.98 1.14 -1.98 C 0.77 -1.98 0.44 -1.72 0.44 -1.27 C 0.44 -0.42 1.33 0.11 2.53 0.11 C 4.17 0.11 4.84 -0.78 4.84 -1.61 Z M 4.84 -1.61 "/>
</g>
<g id="mecanisme-bielle-manivelle-graphe--glyph-1-0">
<path d="M 5.73 -4.44 C 5.73 -5.33 4.81 -6.11 3.56 -6.11 L 0.36 -6.11 L 0.36 -5.83 L 0.56 -5.83 C 1.25 -5.83 1.27 -5.73 1.27 -5.39 L 1.27 -0.70 C 1.27 -0.38 1.25 -0.28 0.56 -0.28 L 0.36 -0.28 L 0.36 0 C 0.77 -0.03 1.27 -0.03 1.67 -0.03 C 2.08 -0.03 2.58 -0.03 2.98 0 L 2.98 -0.28 L 2.78 -0.28 C 2.09 -0.28 2.08 -0.38 2.08 -0.70 L 2.08 -2.81 L 3.56 -2.81 C 4.81 -2.81 5.73 -3.58 5.73 -4.44 Z M 4.81 -4.44 C 4.81 -4.05 4.81 -3.06 3.33 -3.06 L 2.05 -3.06 L 2.05 -5.45 C 2.05 -5.77 2.06 -5.83 2.48 -5.83 L 3.34 -5.83 C 4.81 -5.83 4.81 -4.84 4.81 -4.44 Z M 4.81 -4.44 "/>
</g>
<g id="mecanisme-bielle-manivelle-graphe--glyph-1-1">
<path d="M 2.27 0 L 2.27 -0.28 C 1.69 -0.28 1.64 -0.33 1.64 -0.67 L 1.64 -3.95 L 0.36 -3.86 L 0.36 -3.58 C 0.92 -3.58 1.02 -3.52 1.02 -3.08 L 1.02 -0.69 C 1.02 -0.28 0.91 -0.28 0.33 -0.28 L 0.33 0 C 0.72 -0.02 0.91 -0.03 1.31 -0.03 C 1.45 -0.03 1.83 -0.03 2.27 0 Z M 1.77 -5.39 C 1.77 -5.66 1.55 -5.88 1.28 -5.88 C 1.02 -5.88 0.80 -5.66 0.80 -5.39 C 0.80 -5.12 1.02 -4.91 1.28 -4.91 C 1.55 -4.91 1.77 -5.12 1.77 -5.39 Z M 1.77 -5.39 "/>
</g>
<g id="mecanisme-bielle-manivelle-graphe--glyph-1-2">
<path d="M 4.66 -3.58 L 4.66 -3.86 C 4.39 -3.83 3.97 -3.83 3.97 -3.83 C 3.72 -3.83 3.44 -3.83 3.19 -3.86 L 3.19 -3.58 C 3.45 -3.56 3.61 -3.42 3.61 -3.19 C 3.61 -3.09 3.59 -3.08 3.56 -2.98 L 2.62 -0.73 L 1.61 -3.17 C 1.58 -3.22 1.56 -3.28 1.56 -3.34 C 1.56 -3.58 1.89 -3.58 2.06 -3.58 L 2.06 -3.86 C 1.67 -3.83 1.47 -3.83 1.08 -3.83 C 0.77 -3.83 0.5 -3.83 0.17 -3.86 L 0.17 -3.58 C 0.59 -3.58 0.77 -3.58 0.91 -3.25 L 2.20 -0.08 C 2.27 0.08 2.33 0.09 2.41 0.09 C 2.5 0.09 2.56 0.08 2.62 -0.08 L 3.84 -3 C 4.03 -3.45 4.34 -3.56 4.66 -3.58 Z M 4.66 -3.58 "/>
</g>
<g id="mecanisme-bielle-manivelle-graphe--glyph-1-3">
<path d="M 4.33 -1.91 C 4.33 -3.08 3.39 -4 2.30 -4 C 1.16 -4 0.27 -3.05 0.27 -1.91 C 0.27 -0.78 1.19 0.09 2.28 0.09 C 3.42 0.09 4.33 -0.80 4.33 -1.91 Z M 3.56 -1.98 C 3.56 -1.66 3.56 -1.14 3.33 -0.73 C 3.08 -0.33 2.67 -0.16 2.30 -0.16 C 1.84 -0.16 1.47 -0.38 1.27 -0.72 C 1.03 -1.09 1.03 -1.58 1.03 -1.98 C 1.03 -2.31 1.03 -2.83 1.25 -3.19 C 1.52 -3.64 1.97 -3.78 2.28 -3.78 C 2.80 -3.78 3.16 -3.5 3.34 -3.19 C 3.55 -2.81 3.56 -2.36 3.56 -1.98 Z M 3.56 -1.98 "/>
</g>
<g id="mecanisme-bielle-manivelle-graphe--glyph-1-4">
<path d="M 3.06 -1.11 L 3.06 -1.62 L 2.81 -1.62 L 2.81 -1.14 C 2.81 -0.47 2.53 -0.16 2.20 -0.16 C 1.61 -0.16 1.61 -0.94 1.61 -1.09 L 1.61 -3.58 L 2.91 -3.58 L 2.91 -3.86 L 1.61 -3.86 L 1.61 -5.5 L 1.36 -5.5 C 1.34 -4.75 1.03 -3.83 0.17 -3.80 L 0.17 -3.58 L 0.95 -3.58 L 0.95 -1.11 C 0.95 -0.11 1.67 0.09 2.14 0.09 C 2.75 0.09 3.06 -0.47 3.06 -1.11 Z M 3.06 -1.11 "/>
</g>
<g id="mecanisme-bielle-manivelle-graphe--glyph-1-5">
<path d="M 3.05 2.12 C 3.05 2.08 3.02 2.06 2.97 2 C 1.81 0.94 1.47 -0.67 1.47 -2.23 C 1.47 -3.62 1.73 -5.30 3 -6.5 C 3.03 -6.53 3.05 -6.56 3.05 -6.61 C 3.05 -6.67 3 -6.70 2.94 -6.70 C 2.83 -6.70 2.03 -6.06 1.55 -5.08 C 1.12 -4.23 0.91 -3.31 0.91 -2.25 C 0.91 -1.59 0.98 -0.58 1.47 0.47 C 2 1.58 2.83 2.22 2.94 2.22 C 3 2.22 3.05 2.19 3.05 2.12 Z M 3.05 2.12 "/>
</g>
<g id="mecanisme-bielle-manivelle-graphe--glyph-1-6">
<path d="M 6.62 -3.03 C 6.62 -4.86 5.23 -6.30 3.56 -6.30 C 1.89 -6.30 0.52 -4.84 0.52 -3.03 C 0.52 -1.22 1.91 0.20 3.56 0.20 C 5.23 0.20 6.62 -1.22 6.62 -3.03 Z M 5.72 -3.16 C 5.72 -0.86 4.47 -0.08 3.56 -0.08 C 2.66 -0.08 1.42 -0.86 1.42 -3.16 C 1.42 -5.34 2.70 -6.05 3.56 -6.05 C 4.44 -6.05 5.72 -5.34 5.72 -3.16 Z M 5.72 -3.16 "/>
</g>
<g id="mecanisme-bielle-manivelle-graphe--glyph-1-7">
<path d="M 1.84 -0.02 C 1.84 -0.64 1.62 -0.97 1.27 -0.97 C 0.95 -0.97 0.78 -0.72 0.78 -0.48 C 0.78 -0.23 0.95 0 1.27 0 C 1.5 0 1.62 -0.14 1.62 -0.14 C 1.62 0.16 1.62 0.89 0.95 1.53 C 0.91 1.58 0.91 1.62 0.91 1.62 C 0.91 1.66 0.97 1.72 1.03 1.72 C 1.12 1.72 1.84 1.03 1.84 -0.02 Z M 1.84 -0.02 "/>
</g>
<g id="mecanisme-bielle-manivelle-graphe--glyph-1-8">
<path d="M 2.66 -2.25 C 2.66 -2.97 2.56 -3.95 2.09 -4.95 C 1.56 -6.05 0.73 -6.70 0.62 -6.70 C 0.53 -6.70 0.52 -6.62 0.52 -6.61 C 0.52 -6.56 0.53 -6.53 0.59 -6.47 C 1.12 -6 2.09 -4.80 2.09 -2.25 C 2.09 -0.97 1.88 0.81 0.58 2.02 C 0.55 2.05 0.52 2.08 0.52 2.12 C 0.52 2.16 0.53 2.22 0.62 2.22 C 0.73 2.22 1.53 1.58 2.02 0.61 C 2.45 -0.25 2.66 -1.17 2.66 -2.25 Z M 2.66 -2.25 "/>
</g>
<g id="mecanisme-bielle-manivelle-graphe--glyph-1-9">
<path d="M 6.58 0 L 6.58 -0.28 L 6.42 -0.28 C 5.88 -0.28 5.78 -0.36 5.69 -0.61 L 3.66 -6.22 C 3.61 -6.33 3.58 -6.41 3.44 -6.41 C 3.30 -6.41 3.28 -6.34 3.22 -6.20 L 1.31 -0.89 C 1.20 -0.59 0.98 -0.28 0.30 -0.28 L 0.30 0 C 0.64 -0.03 0.89 -0.03 1.22 -0.03 L 2.22 0 L 2.22 -0.28 C 1.72 -0.28 1.56 -0.56 1.56 -0.73 C 1.56 -0.81 1.58 -0.86 1.59 -0.91 L 2.02 -2.06 L 4.33 -2.06 L 4.81 -0.70 C 4.86 -0.61 4.86 -0.59 4.86 -0.55 C 4.86 -0.28 4.36 -0.28 4.12 -0.28 L 4.12 0 C 4.53 -0.03 5 -0.03 5.41 -0.03 Z M 4.23 -2.33 L 2.12 -2.33 L 3.17 -5.25 Z M 4.23 -2.33 "/>
</g>
<g id="mecanisme-bielle-manivelle-graphe--glyph-1-10">
<path d="M 5.98 -1.62 C 5.98 -2.44 5.20 -3.08 4.22 -3.19 C 5.11 -3.38 5.73 -3.94 5.73 -4.59 C 5.73 -5.38 4.88 -6.11 3.69 -6.11 L 0.36 -6.11 L 0.36 -5.83 L 0.58 -5.83 C 1.27 -5.83 1.28 -5.73 1.28 -5.39 L 1.28 -0.70 C 1.28 -0.38 1.27 -0.28 0.58 -0.28 L 0.36 -0.28 L 0.36 0 L 3.94 0 C 5.14 0 5.98 -0.80 5.98 -1.62 Z M 4.88 -4.59 C 4.88 -3.91 4.27 -3.28 3.44 -3.28 L 2.03 -3.28 L 2.03 -5.45 C 2.03 -5.77 2.05 -5.83 2.47 -5.83 L 3.62 -5.83 C 4.5 -5.83 4.88 -5.12 4.88 -4.59 Z M 5.11 -1.64 C 5.11 -0.95 4.56 -0.28 3.64 -0.28 L 2.47 -0.28 C 2.05 -0.28 2.03 -0.34 2.03 -0.64 L 2.03 -3.06 L 3.72 -3.06 C 4.75 -3.06 5.11 -2.19 5.11 -1.64 Z M 5.11 -1.64 "/>
</g>
<g id="mecanisme-bielle-manivelle-graphe--glyph-1-11">
<path d="M 6.75 -2.17 L 6.75 -2.45 C 6.17 -2.42 6.06 -2.42 5.59 -2.42 C 5.25 -2.42 4.48 -2.42 4.17 -2.45 L 4.17 -2.17 L 4.45 -2.17 C 5.28 -2.17 5.31 -2.06 5.31 -1.73 L 5.31 -1.17 C 5.31 -0.08 3.95 -0.08 3.83 -0.08 C 3.09 -0.08 1.42 -0.52 1.42 -3.06 C 1.42 -5.55 3.05 -6.03 3.80 -6.03 C 4.67 -6.03 5.61 -5.36 5.83 -3.91 C 5.84 -3.80 5.86 -3.75 5.97 -3.75 C 6.11 -3.75 6.11 -3.80 6.11 -3.98 L 6.11 -6.06 C 6.11 -6.22 6.11 -6.30 6 -6.30 C 5.94 -6.30 5.92 -6.28 5.86 -6.19 L 5.41 -5.52 C 5.12 -5.80 4.61 -6.30 3.70 -6.30 C 1.97 -6.30 0.52 -4.86 0.52 -3.06 C 0.52 -1.23 1.97 0.20 3.72 0.20 C 4.56 0.20 5.20 -0.12 5.45 -0.56 C 5.61 -0.33 5.92 -0.02 6.02 -0.02 C 6.11 -0.02 6.11 -0.09 6.11 -0.23 L 6.11 -1.77 C 6.11 -2.12 6.16 -2.17 6.75 -2.17 Z M 6.75 -2.17 "/>
</g>
<g id="mecanisme-bielle-manivelle-graphe--glyph-1-12">
<path d="M 2.33 0 L 2.33 -0.28 C 1.75 -0.28 1.64 -0.28 1.64 -0.69 L 1.64 -6.20 L 0.33 -6.11 L 0.33 -5.83 C 0.92 -5.83 1.02 -5.77 1.02 -5.33 L 1.02 -0.69 C 1.02 -0.28 0.91 -0.28 0.33 -0.28 L 0.33 0 C 0.73 -0.02 0.91 -0.03 1.33 -0.03 C 1.75 -0.03 1.89 -0.02 2.33 0 Z M 2.33 0 "/>
</g>
<g id="mecanisme-bielle-manivelle-graphe--glyph-1-13">
<path d="M 3.31 -1.14 C 3.31 -1.55 3.12 -1.78 2.94 -2 C 2.62 -2.28 2.31 -2.34 1.64 -2.47 C 1.41 -2.52 0.77 -2.64 0.77 -3.14 C 0.77 -3.44 0.97 -3.81 1.78 -3.81 C 2.75 -3.81 2.81 -3.06 2.83 -2.84 C 2.83 -2.73 2.83 -2.69 2.95 -2.69 C 3.08 -2.69 3.08 -2.75 3.08 -2.91 L 3.08 -3.77 C 3.08 -3.92 3.08 -4 2.97 -4 C 2.92 -4 2.91 -4 2.78 -3.89 C 2.77 -3.88 2.69 -3.80 2.64 -3.75 C 2.36 -3.95 2.08 -4 1.78 -4 C 0.59 -4 0.30 -3.36 0.30 -2.89 C 0.30 -2.61 0.42 -2.38 0.64 -2.19 C 0.94 -1.91 1.28 -1.84 1.73 -1.77 C 2.19 -1.67 2.34 -1.64 2.53 -1.5 C 2.62 -1.42 2.84 -1.25 2.84 -0.91 C 2.84 -0.12 1.95 -0.12 1.83 -0.12 C 0.91 -0.12 0.67 -0.89 0.58 -1.38 C 0.55 -1.45 0.53 -1.52 0.42 -1.52 C 0.30 -1.52 0.30 -1.44 0.30 -1.28 L 0.30 -0.14 C 0.30 0.02 0.30 0.09 0.41 0.09 C 0.47 0.09 0.47 0.09 0.64 -0.08 C 0.67 -0.14 0.77 -0.25 0.81 -0.30 C 1.19 0.08 1.59 0.09 1.83 0.09 C 2.92 0.09 3.31 -0.55 3.31 -1.14 Z M 3.31 -1.14 "/>
</g>
<g id="mecanisme-bielle-manivelle-graphe--glyph-1-14">
<path d="M 3.81 -1.06 C 3.81 -1.12 3.77 -1.19 3.69 -1.19 C 3.61 -1.19 3.58 -1.12 3.56 -1.08 C 3.27 -0.17 2.47 -0.16 2.33 -0.16 C 1.91 -0.16 1.53 -0.39 1.33 -0.70 C 1.03 -1.14 1.03 -1.67 1.03 -2.05 L 3.58 -2.05 C 3.77 -2.05 3.81 -2.05 3.81 -2.23 C 3.81 -3.16 3.31 -4 2.17 -4 C 1.09 -4 0.27 -3.08 0.27 -1.97 C 0.27 -0.80 1.20 0.09 2.28 0.09 C 3.38 0.09 3.81 -0.86 3.81 -1.06 Z M 3.20 -2.27 L 1.03 -2.27 C 1.12 -3.64 1.92 -3.78 2.17 -3.78 C 2.66 -3.78 3.20 -3.41 3.20 -2.27 Z M 2.62 -4.73 L 1.53 -6.08 C 1.45 -6.17 1.41 -6.23 1.25 -6.23 C 1.09 -6.23 0.91 -6.09 0.91 -5.89 C 0.91 -5.75 0.98 -5.69 1.09 -5.59 L 2.45 -4.55 Z M 2.62 -4.73 "/>
</g>
<g id="mecanisme-bielle-manivelle-graphe--glyph-1-15">
<path d="M 3.33 -3.39 C 3.33 -3.69 3.06 -3.95 2.66 -3.95 C 2.12 -3.95 1.75 -3.58 1.55 -3.02 L 1.53 -3.02 L 1.53 -3.95 L 0.27 -3.86 L 0.27 -3.58 C 0.88 -3.58 0.95 -3.52 0.95 -3.08 L 0.95 -0.69 C 0.95 -0.28 0.86 -0.28 0.27 -0.28 L 0.27 0 C 0.73 -0.02 0.86 -0.03 1.31 -0.03 L 2.45 0 L 2.45 -0.28 L 2.27 -0.28 C 1.62 -0.28 1.59 -0.38 1.59 -0.70 L 1.59 -2.05 C 1.59 -2.41 1.69 -3.73 2.70 -3.73 L 2.70 -3.72 C 2.69 -3.70 2.55 -3.61 2.55 -3.39 C 2.55 -3.14 2.73 -3 2.94 -3 C 3.12 -3 3.33 -3.12 3.33 -3.39 Z M 3.33 -3.39 "/>
</g>
<g id="mecanisme-bielle-manivelle-graphe--glyph-1-16">
<path d="M 3.81 -1.06 C 3.81 -1.12 3.77 -1.19 3.69 -1.19 C 3.61 -1.19 3.58 -1.12 3.56 -1.08 C 3.27 -0.17 2.47 -0.16 2.33 -0.16 C 1.91 -0.16 1.53 -0.39 1.33 -0.70 C 1.03 -1.14 1.03 -1.67 1.03 -2.05 L 3.58 -2.05 C 3.77 -2.05 3.81 -2.05 3.81 -2.23 C 3.81 -3.16 3.31 -4 2.17 -4 C 1.09 -4 0.27 -3.08 0.27 -1.97 C 0.27 -0.80 1.20 0.09 2.28 0.09 C 3.38 0.09 3.81 -0.86 3.81 -1.06 Z M 3.20 -2.27 L 1.03 -2.27 C 1.12 -3.64 1.92 -3.78 2.17 -3.78 C 2.66 -3.78 3.20 -3.41 3.20 -2.27 Z M 3.20 -2.27 "/>
</g>
<g id="mecanisme-bielle-manivelle-graphe--glyph-2-0">
<path d="M 4.84 -5.31 C 4.83 -5.30 4.44 -4.94 4.44 -4.80 C 4.44 -4.69 4.52 -4.61 4.62 -4.61 C 4.72 -4.61 4.77 -4.67 4.80 -4.70 C 4.89 -4.83 5.11 -5.08 5.5 -5.30 C 5.61 -5.33 5.70 -5.38 5.70 -5.5 C 5.70 -5.61 5.61 -5.66 5.56 -5.69 C 5.44 -5.78 5.28 -5.91 5.19 -6.19 C 5.14 -6.30 5.11 -6.41 4.98 -6.41 C 4.89 -6.41 4.80 -6.34 4.80 -6.20 C 4.80 -6.05 4.97 -5.75 5 -5.69 L 1.97 -5.69 C 1.81 -5.69 1.64 -5.69 1.64 -5.5 C 1.64 -5.31 1.81 -5.31 1.97 -5.31 Z M 4.84 -5.31 "/>
</g>
<g id="mecanisme-bielle-manivelle-graphe--glyph-2-1">
<path d="M 1.25 -0.77 C 1.44 -0.98 1.92 -1.44 2.31 -1.75 C 2.97 -2.31 3.17 -2.52 3.28 -2.64 C 4.02 -3.34 4.27 -3.80 4.27 -3.86 C 4.27 -3.86 4.27 -3.95 4.14 -3.95 C 4.06 -3.95 4.05 -3.92 4 -3.86 C 3.89 -3.67 3.64 -3.28 3.34 -3.28 C 3.16 -3.28 3.05 -3.39 2.84 -3.62 C 2.62 -3.86 2.45 -3.95 2.22 -3.95 C 1.53 -3.95 1.12 -3.12 1.12 -2.91 C 1.12 -2.88 1.14 -2.81 1.23 -2.81 C 1.33 -2.81 1.34 -2.86 1.36 -2.89 C 1.53 -3.31 2.06 -3.31 2.12 -3.31 C 2.33 -3.31 2.55 -3.25 2.75 -3.19 C 3.09 -3.06 3.25 -3.06 3.39 -3.06 C 3.11 -2.75 2.61 -2.33 2.05 -1.84 C 1.59 -1.45 1.33 -1.19 1.12 -0.98 C 0.80 -0.64 0.39 -0.09 0.39 0 C 0.39 0.06 0.44 0.09 0.52 0.09 C 0.59 0.09 0.61 0.06 0.66 0.02 C 1 -0.53 1.33 -0.56 1.44 -0.56 C 1.66 -0.56 1.78 -0.42 1.97 -0.20 C 2.19 0.03 2.38 0.09 2.56 0.09 C 3.48 0.09 4.02 -1.05 4.02 -1.28 C 4.02 -1.38 3.95 -1.39 3.89 -1.39 C 3.80 -1.39 3.78 -1.33 3.77 -1.30 C 3.52 -0.64 2.89 -0.53 2.66 -0.53 C 2.48 -0.53 2.31 -0.58 2.03 -0.67 C 1.86 -0.72 1.64 -0.78 1.45 -0.78 C 1.38 -0.78 1.28 -0.77 1.25 -0.77 Z M 1.25 -0.77 "/>
</g>
<g id="mecanisme-bielle-manivelle-graphe--glyph-2-2">
<path d="M 4.39 -3.61 C 4.06 -3.55 3.97 -3.27 3.97 -3.12 C 3.97 -2.95 4.09 -2.81 4.31 -2.81 C 4.56 -2.81 4.81 -3.02 4.81 -3.33 C 4.81 -3.75 4.36 -3.95 3.94 -3.95 C 3.41 -3.95 3.09 -3.48 2.98 -3.28 C 2.81 -3.73 2.42 -3.95 2 -3.95 C 1.03 -3.95 0.52 -2.81 0.52 -2.58 C 0.52 -2.5 0.58 -2.47 0.64 -2.47 C 0.72 -2.47 0.75 -2.52 0.77 -2.56 C 1.05 -3.45 1.64 -3.73 1.97 -3.73 C 2.23 -3.73 2.47 -3.56 2.47 -3.14 C 2.47 -2.81 2.08 -1.39 1.97 -0.95 C 1.89 -0.67 1.62 -0.12 1.14 -0.12 C 0.95 -0.12 0.77 -0.19 0.67 -0.23 C 0.92 -0.28 1.09 -0.48 1.09 -0.72 C 1.09 -0.95 0.92 -1.05 0.77 -1.05 C 0.5 -1.05 0.27 -0.83 0.27 -0.52 C 0.27 -0.08 0.75 0.09 1.12 0.09 C 1.64 0.09 1.95 -0.33 2.08 -0.58 C 2.31 0.02 2.83 0.09 3.08 0.09 C 4.05 0.09 4.55 -1.06 4.55 -1.28 C 4.55 -1.33 4.52 -1.39 4.44 -1.39 C 4.33 -1.39 4.33 -1.34 4.28 -1.22 C 4.08 -0.58 3.56 -0.12 3.09 -0.12 C 2.84 -0.12 2.59 -0.28 2.59 -0.72 C 2.59 -0.91 2.72 -1.41 2.81 -1.75 C 2.84 -1.91 3.08 -2.88 3.09 -2.94 C 3.20 -3.25 3.48 -3.73 3.94 -3.73 C 4.09 -3.73 4.27 -3.70 4.39 -3.61 Z M 4.39 -3.61 "/>
</g>
</g>
</defs>
<path fill-rule="nonzero" fill="rgb(0%, 0%, 0%)" fill-opacity="1" d="M 69.37 101.37 C 69.37 94.36 63.68 88.66 56.67 88.66 C 49.65 88.66 43.96 94.36 43.96 101.37 C 43.96 108.39 49.65 114.07 56.67 114.07 C 63.68 114.07 69.37 108.39 69.37 101.37 Z M 69.37 101.37 "/>
<g fill="rgb(100%, 100%, 100%)" fill-opacity="1">
<use xlink:href="#mecanisme-bielle-manivelle-graphe--glyph-0-0" x="54.024891" y="104.245693"/>
</g>
<path fill-rule="nonzero" fill="rgb(7.841492%, 58.822632%, 35.293579%)" fill-opacity="1" d="M 69.37 16.67 C 69.37 9.66 63.68 3.97 56.67 3.97 C 49.65 3.97 43.96 9.66 43.96 16.67 C 43.96 23.69 49.65 29.38 56.67 29.38 C 63.68 29.38 69.37 23.69 69.37 16.67 Z M 69.37 16.67 "/>
<g fill="rgb(100%, 100%, 100%)" fill-opacity="1">
<use xlink:href="#mecanisme-bielle-manivelle-graphe--glyph-0-1" x="54.024891" y="19.602776"/>
</g>
<path fill-rule="nonzero" fill="rgb(88.233948%, 21.569824%, 9.803772%)" fill-opacity="1" d="M 196.42 16.67 C 196.42 9.66 190.73 3.97 183.71 3.97 C 176.70 3.97 171.01 9.66 171.01 16.67 C 171.01 23.69 176.70 29.38 183.71 29.38 C 190.73 29.38 196.42 23.69 196.42 16.67 Z M 196.42 16.67 "/>
<g fill="rgb(100%, 100%, 100%)" fill-opacity="1">
<use xlink:href="#mecanisme-bielle-manivelle-graphe--glyph-0-2" x="181.070439" y="19.602776"/>
</g>
<path fill-rule="nonzero" fill="rgb(17.64679%, 29.412842%, 80.39093%)" fill-opacity="1" d="M 196.42 101.37 C 196.42 94.36 190.73 88.66 183.71 88.66 C 176.70 88.66 171.01 94.36 171.01 101.37 C 171.01 108.39 176.70 114.07 183.71 114.07 C 190.73 114.07 196.42 108.39 196.42 101.37 Z M 196.42 101.37 "/>
<g fill="rgb(100%, 100%, 100%)" fill-opacity="1">
<use xlink:href="#mecanisme-bielle-manivelle-graphe--glyph-0-3" x="181.070439" y="104.245693"/>
</g>
<path fill="none" stroke-width="0.79701" stroke-linecap="butt" stroke-linejoin="miter" stroke="rgb(0%, 0%, 0%)" stroke-opacity="1" stroke-miterlimit="10" d="M -0.00 12.95 L -0.00 72.09 " transform="matrix(0.995975, 0, 0, -0.995975, 56.668208, 101.370314)"/>
<path fill-rule="nonzero" fill="rgb(100%, 100%, 100%)" fill-opacity="1" d="M 4.14 64.97 L 56.27 64.97 L 56.27 53.07 L 4.14 53.07 Z M 4.14 64.97 "/>
<g fill="rgb(0%, 0%, 0%)" fill-opacity="1">
<use xlink:href="#mecanisme-bielle-manivelle-graphe--glyph-1-0" x="5.628484" y="61.258425"/>
<use xlink:href="#mecanisme-bielle-manivelle-graphe--glyph-1-1" x="11.870755" y="61.258425"/>
<use xlink:href="#mecanisme-bielle-manivelle-graphe--glyph-1-2" x="14.424818" y="61.258425"/>
</g>
<g fill="rgb(0%, 0%, 0%)" fill-opacity="1">
<use xlink:href="#mecanisme-bielle-manivelle-graphe--glyph-1-3" x="19.006056" y="61.258425"/>
<use xlink:href="#mecanisme-bielle-manivelle-graphe--glyph-1-4" x="23.596224" y="61.258425"/>
</g>
<g fill="rgb(0%, 0%, 0%)" fill-opacity="1">
<use xlink:href="#mecanisme-bielle-manivelle-graphe--glyph-1-5" x="30.231428" y="61.258425"/>
<use xlink:href="#mecanisme-bielle-manivelle-graphe--glyph-1-6" x="33.803544" y="61.258425"/>
<use xlink:href="#mecanisme-bielle-manivelle-graphe--glyph-1-7" x="40.938844" y="61.258425"/>
</g>
<g fill="rgb(0%, 0%, 0%)" fill-opacity="1">
<use xlink:href="#mecanisme-bielle-manivelle-graphe--glyph-2-0" x="46.412655" y="61.258425"/>
</g>
<g fill="rgb(0%, 0%, 0%)" fill-opacity="1">
<use xlink:href="#mecanisme-bielle-manivelle-graphe--glyph-2-1" x="46.563577" y="61.258425"/>
</g>
<g fill="rgb(0%, 0%, 0%)" fill-opacity="1">
<use xlink:href="#mecanisme-bielle-manivelle-graphe--glyph-1-8" x="51.211262" y="61.258425"/>
</g>
<path fill="none" stroke-width="0.79701" stroke-linecap="butt" stroke-linejoin="miter" stroke="rgb(0%, 0%, 0%)" stroke-opacity="1" stroke-miterlimit="10" d="M 12.95 85.04 L 114.61 85.04 " transform="matrix(0.995975, 0, 0, -0.995975, 56.668208, 101.370314)"/>
<path fill-rule="nonzero" fill="rgb(100%, 100%, 100%)" fill-opacity="1" d="M 94.25 16.27 L 146.13 16.27 L 146.13 4.38 L 94.25 4.38 Z M 94.25 16.27 "/>
<g fill="rgb(0%, 0%, 0%)" fill-opacity="1">
<use xlink:href="#mecanisme-bielle-manivelle-graphe--glyph-1-0" x="95.739303" y="12.564222"/>
<use xlink:href="#mecanisme-bielle-manivelle-graphe--glyph-1-1" x="101.981574" y="12.564222"/>
<use xlink:href="#mecanisme-bielle-manivelle-graphe--glyph-1-2" x="104.535637" y="12.564222"/>
</g>
<g fill="rgb(0%, 0%, 0%)" fill-opacity="1">
<use xlink:href="#mecanisme-bielle-manivelle-graphe--glyph-1-3" x="109.116875" y="12.564222"/>
<use xlink:href="#mecanisme-bielle-manivelle-graphe--glyph-1-4" x="113.707043" y="12.564222"/>
</g>
<g fill="rgb(0%, 0%, 0%)" fill-opacity="1">
<use xlink:href="#mecanisme-bielle-manivelle-graphe--glyph-1-5" x="120.342247" y="12.564222"/>
<use xlink:href="#mecanisme-bielle-manivelle-graphe--glyph-1-9" x="123.914363" y="12.564222"/>
<use xlink:href="#mecanisme-bielle-manivelle-graphe--glyph-1-7" x="130.799615" y="12.564222"/>
</g>
<g fill="rgb(0%, 0%, 0%)" fill-opacity="1">
<use xlink:href="#mecanisme-bielle-manivelle-graphe--glyph-2-0" x="136.272489" y="12.564222"/>
</g>
<g fill="rgb(0%, 0%, 0%)" fill-opacity="1">
<use xlink:href="#mecanisme-bielle-manivelle-graphe--glyph-2-1" x="136.423411" y="12.564222"/>
</g>
<g fill="rgb(0%, 0%, 0%)" fill-opacity="1">
<use xlink:href="#mecanisme-bielle-manivelle-graphe--glyph-1-8" x="141.071095" y="12.564222"/>
</g>
<path fill="none" stroke-width="0.79701" stroke-linecap="butt" stroke-linejoin="miter" stroke="rgb(0%, 0%, 0%)" stroke-opacity="1" stroke-miterlimit="10" d="M 127.56 72.09 L 127.56 12.95 " transform="matrix(0.995975, 0, 0, -0.995975, 56.668208, 101.370314)"/>
<path fill-rule="nonzero" fill="rgb(100%, 100%, 100%)" fill-opacity="1" d="M 184.11 64.97 L 235.61 64.97 L 235.61 53.07 L 184.11 53.07 Z M 184.11 64.97 "/>
<g fill="rgb(0%, 0%, 0%)" fill-opacity="1">
<use xlink:href="#mecanisme-bielle-manivelle-graphe--glyph-1-0" x="185.599136" y="61.258425"/>
<use xlink:href="#mecanisme-bielle-manivelle-graphe--glyph-1-1" x="191.841408" y="61.258425"/>
<use xlink:href="#mecanisme-bielle-manivelle-graphe--glyph-1-2" x="194.39547" y="61.258425"/>
</g>
<g fill="rgb(0%, 0%, 0%)" fill-opacity="1">
<use xlink:href="#mecanisme-bielle-manivelle-graphe--glyph-1-3" x="198.976708" y="61.258425"/>
<use xlink:href="#mecanisme-bielle-manivelle-graphe--glyph-1-4" x="203.566877" y="61.258425"/>
</g>
<g fill="rgb(0%, 0%, 0%)" fill-opacity="1">
<use xlink:href="#mecanisme-bielle-manivelle-graphe--glyph-1-5" x="210.202081" y="61.258425"/>
<use xlink:href="#mecanisme-bielle-manivelle-graphe--glyph-1-10" x="213.774196" y="61.258425"/>
<use xlink:href="#mecanisme-bielle-manivelle-graphe--glyph-1-7" x="220.275446" y="61.258425"/>
</g>
<g fill="rgb(0%, 0%, 0%)" fill-opacity="1">
<use xlink:href="#mecanisme-bielle-manivelle-graphe--glyph-2-0" x="225.748872" y="61.258425"/>
</g>
<g fill="rgb(0%, 0%, 0%)" fill-opacity="1">
<use xlink:href="#mecanisme-bielle-manivelle-graphe--glyph-2-1" x="225.899794" y="61.258425"/>
</g>
<g fill="rgb(0%, 0%, 0%)" fill-opacity="1">
<use xlink:href="#mecanisme-bielle-manivelle-graphe--glyph-1-8" x="230.547479" y="61.258425"/>
</g>
<path fill="none" stroke-width="0.79701" stroke-linecap="butt" stroke-linejoin="miter" stroke="rgb(0%, 0%, 0%)" stroke-opacity="1" stroke-miterlimit="10" d="M 114.61 -0.00 L 12.95 -0.00 " transform="matrix(0.995975, 0, 0, -0.995975, 56.668208, 101.370314)"/>
<path fill-rule="nonzero" fill="rgb(100%, 100%, 100%)" fill-opacity="1" d="M 88.01 113.66 L 152.37 113.66 L 152.37 101.77 L 88.01 101.77 Z M 88.01 113.66 "/>
<g fill="rgb(0%, 0%, 0%)" fill-opacity="1">
<use xlink:href="#mecanisme-bielle-manivelle-graphe--glyph-1-11" x="89.499521" y="109.953625"/>
<use xlink:href="#mecanisme-bielle-manivelle-graphe--glyph-1-12" x="96.706264" y="109.953625"/>
<use xlink:href="#mecanisme-bielle-manivelle-graphe--glyph-1-1" x="99.260326" y="109.953625"/>
<use xlink:href="#mecanisme-bielle-manivelle-graphe--glyph-1-13" x="101.814389" y="109.953625"/>
<use xlink:href="#mecanisme-bielle-manivelle-graphe--glyph-1-13" x="105.431155" y="109.953625"/>
<use xlink:href="#mecanisme-bielle-manivelle-graphe--glyph-1-1" x="109.047922" y="109.953625"/>
<use xlink:href="#mecanisme-bielle-manivelle-graphe--glyph-1-14" x="111.601985" y="109.953625"/>
<use xlink:href="#mecanisme-bielle-manivelle-graphe--glyph-1-15" x="115.683126" y="109.953625"/>
<use xlink:href="#mecanisme-bielle-manivelle-graphe--glyph-1-16" x="119.273102" y="109.953625"/>
</g>
<g fill="rgb(0%, 0%, 0%)" fill-opacity="1">
<use xlink:href="#mecanisme-bielle-manivelle-graphe--glyph-1-5" x="126.417333" y="109.953625"/>
<use xlink:href="#mecanisme-bielle-manivelle-graphe--glyph-1-10" x="129.989449" y="109.953625"/>
<use xlink:href="#mecanisme-bielle-manivelle-graphe--glyph-1-7" x="136.490699" y="109.953625"/>
</g>
<g fill="rgb(0%, 0%, 0%)" fill-opacity="1">
<use xlink:href="#mecanisme-bielle-manivelle-graphe--glyph-2-0" x="141.982412" y="109.953625"/>
</g>
<g fill="rgb(0%, 0%, 0%)" fill-opacity="1">
<use xlink:href="#mecanisme-bielle-manivelle-graphe--glyph-2-2" x="142.115474" y="109.953625"/>
</g>
<g fill="rgb(0%, 0%, 0%)" fill-opacity="1">
<use xlink:href="#mecanisme-bielle-manivelle-graphe--glyph-1-8" x="147.310877" y="109.953625"/>
</g>
</svg>