<svg class="fig" role="img" data-fig="pc-dilution-ph" xmlns="http://www.w3.org/2000/svg" xmlns:xlink="http://www.w3.org/1999/xlink" width="269.792pt" height="261.722pt" viewBox="0 0 269.792 261.722">
<defs>
<g>
<g id="pc-dilution-ph--glyph-0-0">
<path d="M 7.06 -2.05 C 7.06 -2.23 6.97 -2.23 6.83 -2.23 C 6.72 -2.23 6.61 -2.23 6.59 -2.09 C 6.53 -0.80 5.34 -0.33 4.48 -0.33 C 4 -0.33 3.14 -0.44 2.53 -1.09 C 2.06 -1.62 2 -2.47 2 -3.08 C 2 -4.14 2.22 -4.69 2.58 -5.09 C 3 -5.56 3.72 -5.81 4.47 -5.81 C 5.25 -5.81 6.30 -5.34 6.53 -3.91 C 6.55 -3.80 6.66 -3.80 6.78 -3.80 C 7.03 -3.80 7.06 -3.81 7.06 -4.06 L 7.06 -5.98 C 7.06 -6.16 7.06 -6.25 6.88 -6.25 C 6.78 -6.25 6.77 -6.23 6.69 -6.16 L 6.09 -5.64 C 5.59 -6.05 4.94 -6.25 4.28 -6.25 C 1.97 -6.25 0.59 -4.89 0.59 -3.08 C 0.59 -1.30 1.92 0.11 4.28 0.11 C 5.97 0.11 7.06 -0.97 7.06 -2.05 Z M 7.06 -2.05 "/>
</g>
<g id="pc-dilution-ph--glyph-0-1">
<path d="M 5.09 -0.22 C 5.09 -0.44 4.95 -0.44 4.86 -0.44 C 4.28 -0.45 4.28 -0.53 4.28 -0.75 L 4.28 -2.67 C 4.28 -3.45 3.64 -4.06 2.27 -4.06 C 1.75 -4.06 0.61 -4.03 0.61 -3.22 C 0.61 -2.81 0.91 -2.62 1.19 -2.62 C 1.5 -2.62 1.77 -2.84 1.77 -3.20 C 1.77 -3.47 1.62 -3.61 1.59 -3.64 C 1.69 -3.66 1.89 -3.70 2.23 -3.70 C 2.88 -3.70 3.23 -3.38 3.23 -2.67 L 3.23 -2.38 C 1.75 -2.38 0.25 -2 0.25 -1 C 0.25 -0.11 1.38 0.05 2.02 0.05 C 2.69 0.05 3.16 -0.23 3.41 -0.66 C 3.41 -0.44 3.41 0 4.36 0 L 4.80 0 C 4.97 0 5.09 0 5.09 -0.22 Z M 3.23 -1.25 C 3.23 -0.30 2.20 -0.30 2.17 -0.30 C 1.70 -0.30 1.33 -0.59 1.33 -1 C 1.33 -1.30 1.5 -2 3.23 -2.08 Z M 3.23 -1.25 "/>
</g>
<g id="pc-dilution-ph--glyph-0-2">
<path d="M 3.83 -1.25 C 3.83 -1.70 3.56 -2 3.41 -2.12 C 3 -2.47 2.72 -2.52 2 -2.62 C 1.58 -2.70 1.02 -2.80 1.02 -3.20 C 1.02 -3.73 1.84 -3.73 2.05 -3.73 C 3.05 -3.73 3.08 -3.20 3.09 -2.97 C 3.11 -2.84 3.23 -2.84 3.33 -2.84 C 3.55 -2.84 3.55 -2.89 3.55 -3.09 L 3.55 -3.80 C 3.55 -3.95 3.55 -4.06 3.38 -4.06 C 3.28 -4.06 3.14 -3.98 2.98 -3.89 C 2.69 -4.02 2.34 -4.06 2.05 -4.06 C 1.77 -4.06 0.34 -4.06 0.34 -2.88 C 0.34 -1.94 1.52 -1.73 1.83 -1.69 C 2.56 -1.56 3.16 -1.45 3.16 -0.95 C 3.16 -0.30 2.31 -0.30 2.12 -0.30 C 1.67 -0.30 1.08 -0.42 0.83 -1.25 C 0.78 -1.39 0.77 -1.42 0.58 -1.42 C 0.34 -1.42 0.34 -1.38 0.34 -1.16 L 0.34 -0.20 C 0.34 -0.05 0.34 0.05 0.53 0.05 C 0.59 0.05 0.61 0.05 0.81 -0.08 L 1.05 -0.22 C 1.47 0.05 1.94 0.05 2.12 0.05 C 2.39 0.05 3.83 0.05 3.83 -1.25 Z M 3.83 -1.25 "/>
</g>
<g id="pc-dilution-ph--glyph-0-3">
<path d="M 4.56 0 L 4.56 -0.44 L 3.27 -0.44 L 3.27 -5.58 C 3.27 -5.78 3.27 -5.88 3 -5.88 C 2.89 -5.88 2.88 -5.88 2.80 -5.81 C 2.11 -5.30 1.14 -5.30 0.97 -5.30 L 0.78 -5.30 L 0.78 -4.86 L 0.97 -4.86 C 1.19 -4.86 1.67 -4.89 2.17 -5.05 L 2.17 -0.44 L 0.89 -0.44 L 0.89 0 C 1.23 -0.03 2.31 -0.03 2.72 -0.03 C 3.14 -0.03 4.19 -0.03 4.56 0 Z M 4.56 0 "/>
</g>
<g id="pc-dilution-ph--glyph-0-4">
<path d="M 2.17 -3.27 C 2.17 -3.69 1.84 -3.97 1.48 -3.97 C 1.06 -3.97 0.77 -3.64 0.77 -3.28 C 0.77 -2.89 1.08 -2.56 1.48 -2.56 C 1.86 -2.56 2.17 -2.89 2.17 -3.27 Z M 2.17 -0.70 C 2.17 -1.11 1.84 -1.41 1.48 -1.41 C 1.06 -1.41 0.77 -1.08 0.77 -0.70 C 0.77 -0.30 1.09 0 1.47 0 C 1.88 0 2.17 -0.33 2.17 -0.70 Z M 2.17 -0.70 "/>
</g>
<g id="pc-dilution-ph--glyph-0-5">
<path d="M 5 -1.95 C 5 -3.12 4.17 -4.06 2.66 -4.06 C 1.08 -4.06 0.30 -3.08 0.30 -1.95 C 0.30 -0.84 1.09 0.05 2.64 0.05 C 4.25 0.05 5 -0.89 5 -1.95 Z M 3.81 -2.05 C 3.81 -1.28 3.81 -0.33 2.66 -0.33 C 1.48 -0.33 1.48 -1.27 1.48 -2.05 C 1.48 -2.80 1.48 -3.70 2.64 -3.70 C 3.81 -3.70 3.81 -2.80 3.81 -2.05 Z M 3.81 -2.05 "/>
</g>
<g id="pc-dilution-ph--glyph-0-6">
<path d="M 5.64 0 L 5.64 -0.44 L 5.03 -0.44 L 5.03 -2.73 C 5.03 -3.80 4.39 -4.03 3.61 -4.03 C 2.5 -4.03 2.06 -3.22 2 -3.09 L 2 -4.03 L 0.45 -3.95 L 0.45 -3.52 C 0.98 -3.52 1.06 -3.52 1.06 -3.17 L 1.06 -0.44 L 0.45 -0.44 L 0.45 0 L 1.58 -0.03 L 2.72 0 L 2.72 -0.44 L 2.11 -0.44 L 2.11 -2.28 C 2.11 -3.28 2.92 -3.67 3.47 -3.67 C 3.81 -3.67 3.98 -3.48 3.98 -2.81 L 3.98 -0.44 L 3.38 -0.44 L 3.38 0 L 4.5 -0.03 Z M 5.64 0 "/>
</g>
<g id="pc-dilution-ph--glyph-0-7">
<path d="M 5.5 0 L 5.5 -0.44 C 4.97 -0.44 4.89 -0.44 4.89 -0.78 L 4.89 -6.22 L 3.30 -6.14 L 3.30 -5.70 C 3.83 -5.70 3.91 -5.70 3.91 -5.36 L 3.91 -3.62 C 3.52 -3.91 3.09 -4.03 2.66 -4.03 C 1.20 -4.03 0.34 -3.14 0.34 -1.98 C 0.34 -0.80 1.19 0.05 2.55 0.05 C 3.11 0.05 3.56 -0.16 3.84 -0.39 L 3.84 0.05 Z M 3.84 -0.97 C 3.66 -0.66 3.22 -0.30 2.66 -0.30 C 1.55 -0.30 1.55 -1.38 1.55 -1.97 C 1.55 -2.48 1.55 -2.88 1.78 -3.20 C 2.02 -3.56 2.44 -3.67 2.75 -3.67 C 3.20 -3.67 3.58 -3.47 3.84 -3.12 Z M 3.84 -0.97 "/>
</g>
<g id="pc-dilution-ph--glyph-0-8">
<path d="M 2.61 0 L 2.61 -0.44 L 2.06 -0.44 L 2.06 -4.03 L 0.5 -3.95 L 0.5 -3.52 C 1.02 -3.52 1.08 -3.52 1.08 -3.17 L 1.08 -0.44 L 0.47 -0.44 L 0.47 0 C 1.06 -0.02 1.19 -0.03 1.56 -0.03 C 2 -0.03 2.11 -0.02 2.61 0 Z M 2.17 -5.42 C 2.17 -5.84 1.83 -6.12 1.47 -6.12 C 1.09 -6.12 0.77 -5.81 0.77 -5.42 C 0.77 -5 1.11 -4.72 1.47 -4.72 C 1.84 -4.72 2.17 -5.02 2.17 -5.42 Z M 2.17 -5.42 "/>
</g>
<g id="pc-dilution-ph--glyph-0-9">
<path d="M 2.67 0 L 2.67 -0.44 L 2.06 -0.44 L 2.06 -6.22 L 0.47 -6.14 L 0.47 -5.70 C 1 -5.70 1.08 -5.70 1.08 -5.36 L 1.08 -0.44 L 0.47 -0.44 L 0.47 0 L 1.56 -0.03 Z M 2.67 0 "/>
</g>
<g id="pc-dilution-ph--glyph-0-10">
<path d="M 5.64 0 L 5.64 -0.44 C 5.11 -0.44 5.03 -0.44 5.03 -0.78 L 5.03 -4.03 L 3.38 -3.95 L 3.38 -3.52 C 3.91 -3.52 3.98 -3.52 3.98 -3.17 L 3.98 -1.47 C 3.98 -0.75 3.52 -0.30 2.83 -0.30 C 2.14 -0.30 2.11 -0.5 2.11 -0.97 L 2.11 -4.03 L 0.45 -3.95 L 0.45 -3.52 C 0.98 -3.52 1.06 -3.52 1.06 -3.17 L 1.06 -1.09 C 1.06 -0.12 1.83 0.05 2.69 0.05 C 2.97 0.05 3.58 0.05 4.03 -0.62 L 4.03 0.05 Z M 5.64 0 "/>
</g>
<g id="pc-dilution-ph--glyph-0-11">
<path d="M 4.56 -1.03 C 4.56 -1.22 4.38 -1.22 4.33 -1.22 C 4.16 -1.22 4.14 -1.16 4.09 -1.03 C 3.89 -0.58 3.34 -0.33 2.78 -0.33 C 1.5 -0.33 1.48 -1.48 1.48 -1.92 L 4.27 -1.92 C 4.45 -1.92 4.56 -1.92 4.56 -2.17 C 4.56 -2.38 4.55 -3.16 3.95 -3.64 C 3.55 -3.97 3.02 -4.06 2.58 -4.06 C 1.05 -4.06 0.30 -3.09 0.30 -2.02 C 0.30 -0.84 1.19 0.05 2.70 0.05 C 4.19 0.05 4.56 -0.89 4.56 -1.03 Z M 3.69 -2.25 L 1.48 -2.25 C 1.5 -2.66 1.55 -3.70 2.58 -3.70 C 3.62 -3.70 3.66 -2.61 3.69 -2.25 Z M 3.69 -2.25 "/>
</g>
<g id="pc-dilution-ph--glyph-0-12">
<path d="M 3.52 -1.09 L 3.52 -1.58 L 3.06 -1.58 L 3.06 -1.12 C 3.06 -0.5 2.73 -0.33 2.52 -0.33 C 2 -0.33 2 -0.88 2 -1.08 L 2 -3.53 L 3.34 -3.53 L 3.34 -3.97 L 2 -3.97 L 2 -5.69 L 1.55 -5.69 C 1.53 -4.84 1.11 -3.92 0.20 -3.89 L 0.20 -3.53 L 0.95 -3.53 L 0.95 -1.09 C 0.95 -0.08 1.83 0.05 2.39 0.05 C 3.09 0.05 3.52 -0.45 3.52 -1.09 Z M 3.52 -1.09 "/>
</g>
<g id="pc-dilution-ph--glyph-0-13">
<path d="M 4.41 -1.03 C 4.41 -1.19 4.27 -1.19 4.17 -1.19 C 4 -1.19 4 -1.17 3.92 -1.02 C 3.75 -0.58 3.34 -0.33 2.81 -0.33 C 1.55 -0.33 1.55 -1.62 1.55 -2.02 C 1.55 -2.56 1.55 -3.67 2.72 -3.67 C 2.78 -3.67 3.27 -3.66 3.27 -3.61 L 3.23 -3.58 C 3.16 -3.47 3.12 -3.33 3.12 -3.20 C 3.12 -2.84 3.41 -2.62 3.70 -2.62 C 3.98 -2.62 4.28 -2.81 4.28 -3.22 C 4.28 -4.06 3.03 -4.06 2.69 -4.06 C 0.97 -4.06 0.34 -2.97 0.34 -1.98 C 0.34 -0.86 1.16 0.05 2.64 0.05 C 2.97 0.05 3.41 0 3.78 -0.23 C 4.30 -0.55 4.41 -1.02 4.41 -1.03 Z M 4.41 -1.03 "/>
</g>
<g id="pc-dilution-ph--glyph-0-14">
<path d="M 4.77 -2.02 L 4.31 -2.02 C 4.28 -1.89 4.20 -1.25 4.08 -1.19 C 3.95 -1.14 3.30 -1.14 3.14 -1.14 L 1.86 -1.14 C 2.34 -1.53 2.88 -1.95 3.33 -2.27 C 4.08 -2.80 4.77 -3.28 4.77 -4.16 C 4.77 -5.20 3.81 -5.88 2.5 -5.88 C 1.39 -5.88 0.53 -5.34 0.53 -4.52 C 0.53 -4.06 0.89 -3.84 1.20 -3.84 C 1.48 -3.84 1.86 -4.05 1.86 -4.52 C 1.86 -4.70 1.78 -5.05 1.39 -5.14 C 1.70 -5.41 2.11 -5.44 2.28 -5.44 C 3.02 -5.44 3.48 -4.89 3.48 -4.14 C 3.48 -3.5 3.09 -2.91 2.62 -2.42 L 0.62 -0.45 C 0.53 -0.36 0.53 -0.34 0.53 -0.17 L 0.53 0 L 4.48 0 Z M 4.77 -2.02 "/>
</g>
<g id="pc-dilution-ph--glyph-0-15">
<path d="M 5.53 -1.98 C 5.53 -3.20 4.66 -4.03 3.33 -4.03 C 2.61 -4.03 2.14 -3.72 1.97 -3.59 L 1.97 -6.22 L 0.36 -6.14 L 0.36 -5.70 C 0.91 -5.70 0.97 -5.70 0.97 -5.36 L 0.97 0 L 1.44 0 L 1.86 -0.52 C 2.14 -0.22 2.58 0.05 3.22 0.05 C 4.61 0.05 5.53 -0.78 5.53 -1.98 Z M 4.33 -2 C 4.33 -1.62 4.33 -1.16 4.14 -0.84 C 3.84 -0.34 3.30 -0.30 3.12 -0.30 C 2.56 -0.30 2.22 -0.64 2.02 -0.94 L 2.02 -3.09 C 2.25 -3.39 2.67 -3.67 3.22 -3.67 C 4.33 -3.67 4.33 -2.59 4.33 -2 Z M 4.33 -2 "/>
</g>
<g id="pc-dilution-ph--glyph-0-16">
<path d="M 5.52 1.73 L 5.52 1.30 L 4.91 1.30 L 4.91 -4.03 L 4.5 -4.03 L 4.05 -3.33 C 3.69 -3.77 3.23 -4.03 2.66 -4.03 C 1.25 -4.03 0.34 -3.17 0.34 -1.98 C 0.34 -0.80 1.20 0.05 2.56 0.05 C 3.03 0.05 3.5 -0.11 3.86 -0.44 L 3.86 1.30 L 3.25 1.30 L 3.25 1.73 L 4.38 1.70 Z M 3.91 -1.33 C 3.91 -1.16 3.91 -1.14 3.81 -0.97 C 3.48 -0.48 3.03 -0.30 2.66 -0.30 C 2.06 -0.30 1.55 -0.84 1.55 -1.98 C 1.55 -2.27 1.56 -2.73 1.83 -3.14 C 2.16 -3.62 2.66 -3.64 2.75 -3.64 C 3.48 -3.64 3.91 -2.92 3.91 -2.48 Z M 3.91 -1.33 "/>
</g>
<g id="pc-dilution-ph--glyph-1-0">
<path d="M 4.80 -1.94 C 4.80 -3.06 3.92 -3.95 2.86 -3.95 C 2.38 -3.95 1.94 -3.77 1.59 -3.39 L 1.59 -3.95 L 0.27 -3.86 L 0.27 -3.58 C 0.91 -3.58 0.95 -3.53 0.95 -3.14 L 0.95 1.05 C 0.95 1.45 0.86 1.45 0.27 1.45 L 0.27 1.73 C 0.69 1.72 0.86 1.70 1.30 1.70 C 1.72 1.70 1.83 1.72 2.31 1.73 L 2.31 1.45 C 1.72 1.45 1.62 1.45 1.62 1.05 L 1.62 -0.44 C 1.86 -0.20 2.16 0.09 2.75 0.09 C 3.81 0.09 4.80 -0.77 4.80 -1.94 Z M 4.03 -1.94 C 4.03 -0.91 3.42 -0.12 2.69 -0.12 C 2.30 -0.12 1.95 -0.36 1.73 -0.67 C 1.62 -0.84 1.62 -0.88 1.62 -1.03 L 1.62 -3.02 C 1.92 -3.53 2.42 -3.70 2.80 -3.70 C 3.48 -3.70 4.03 -2.91 4.03 -1.94 Z M 4.03 -1.94 "/>
</g>
<g id="pc-dilution-ph--glyph-1-1">
<path d="M 6.55 0 L 6.55 -0.28 L 6.34 -0.28 C 5.66 -0.28 5.64 -0.38 5.64 -0.70 L 5.64 -5.41 C 5.64 -5.73 5.66 -5.84 6.34 -5.84 L 6.55 -5.84 L 6.55 -6.11 C 6.16 -6.09 5.66 -6.09 5.23 -6.09 C 4.83 -6.09 4.33 -6.09 3.92 -6.11 L 3.92 -5.84 L 4.12 -5.84 C 4.81 -5.84 4.83 -5.73 4.83 -5.41 L 4.83 -3.33 L 2.06 -3.33 L 2.06 -5.41 C 2.06 -5.73 2.08 -5.84 2.77 -5.84 L 2.97 -5.84 L 2.97 -6.11 C 2.56 -6.09 2.06 -6.09 1.66 -6.09 C 1.25 -6.09 0.75 -6.09 0.34 -6.11 L 0.34 -5.84 L 0.55 -5.84 C 1.23 -5.84 1.25 -5.73 1.25 -5.41 L 1.25 -0.70 C 1.25 -0.38 1.23 -0.28 0.55 -0.28 L 0.34 -0.28 L 0.34 0 C 0.75 -0.03 1.25 -0.03 1.66 -0.03 C 2.06 -0.03 2.56 -0.03 2.97 0 L 2.97 -0.28 L 2.77 -0.28 C 2.08 -0.28 2.06 -0.38 2.06 -0.70 L 2.06 -3.05 L 4.83 -3.05 L 4.83 -0.70 C 4.83 -0.38 4.81 -0.28 4.12 -0.28 L 3.92 -0.28 L 3.92 0 C 4.33 -0.03 4.83 -0.03 5.23 -0.03 C 5.66 -0.03 6.16 -0.03 6.55 0 Z M 6.55 0 "/>
</g>
<g id="pc-dilution-ph--glyph-1-2">
<path d="M 5.36 -2.31 L 5.11 -2.31 C 5 -1.41 4.88 -0.28 3.28 -0.28 L 2.5 -0.28 C 2.08 -0.28 2.06 -0.34 2.06 -0.64 L 2.06 -5.41 C 2.06 -5.73 2.09 -5.84 2.91 -5.84 L 3.20 -5.84 L 3.20 -6.11 C 2.89 -6.09 2.06 -6.09 1.70 -6.09 C 1.30 -6.09 0.75 -6.09 0.34 -6.11 L 0.34 -5.84 L 0.55 -5.84 C 1.23 -5.84 1.25 -5.73 1.25 -5.41 L 1.25 -0.70 C 1.25 -0.38 1.23 -0.28 0.55 -0.28 L 0.34 -0.28 L 0.34 0 L 5.11 0 Z M 5.36 -2.31 "/>
</g>
<g id="pc-dilution-ph--glyph-1-3">
<path d="M 4.45 -0.80 L 4.45 -1.30 L 4.20 -1.30 L 4.20 -0.81 C 4.20 -0.70 4.20 -0.27 3.88 -0.27 C 3.55 -0.27 3.55 -0.69 3.55 -0.83 L 3.55 -2.41 C 3.55 -2.91 3.55 -3.22 3.16 -3.58 C 2.81 -3.88 2.39 -4.02 1.94 -4.02 C 1.19 -4.02 0.56 -3.64 0.56 -3.06 C 0.56 -2.78 0.75 -2.62 0.98 -2.62 C 1.23 -2.62 1.39 -2.81 1.39 -3.05 C 1.39 -3.42 1 -3.47 1 -3.47 C 1.23 -3.70 1.67 -3.78 1.92 -3.78 C 2.38 -3.78 2.89 -3.45 2.89 -2.66 L 2.89 -2.36 C 2.41 -2.34 1.73 -2.30 1.14 -2.02 C 0.5 -1.70 0.30 -1.23 0.30 -0.88 C 0.30 -0.14 1.16 0.09 1.77 0.09 C 2.5 0.09 2.84 -0.39 2.97 -0.64 C 3.02 -0.27 3.28 0.05 3.66 0.05 C 3.89 0.05 4.45 -0.08 4.45 -0.80 Z M 2.89 -1.27 C 2.89 -0.39 2.22 -0.12 1.83 -0.12 C 1.41 -0.12 1.02 -0.44 1.02 -0.88 C 1.02 -1.47 1.52 -2.09 2.89 -2.16 Z M 2.89 -1.27 "/>
</g>
<g id="pc-dilution-ph--glyph-1-4">
<path d="M 4.83 0 L 4.83 -0.28 C 4.22 -0.28 4.14 -0.34 4.14 -0.78 L 4.14 -6.22 L 2.81 -6.11 L 2.81 -5.84 C 3.42 -5.84 3.52 -5.78 3.52 -5.34 L 3.52 -3.42 C 3.47 -3.48 3.06 -3.95 2.36 -3.95 C 1.27 -3.95 0.30 -3.08 0.30 -1.92 C 0.30 -0.81 1.20 0.09 2.27 0.09 C 2.92 0.09 3.33 -0.28 3.48 -0.47 L 3.48 0.09 Z M 3.48 -1.08 C 3.48 -0.91 3.48 -0.89 3.34 -0.70 C 3.08 -0.30 2.66 -0.12 2.30 -0.12 C 1.92 -0.12 1.56 -0.34 1.33 -0.72 C 1.09 -1.09 1.08 -1.62 1.08 -1.92 C 1.08 -2.34 1.12 -2.81 1.36 -3.17 C 1.56 -3.45 1.92 -3.73 2.41 -3.73 C 2.78 -3.73 3.14 -3.55 3.38 -3.20 C 3.48 -3.06 3.48 -3.05 3.48 -2.89 Z M 3.48 -1.08 "/>
</g>
<g id="pc-dilution-ph--glyph-1-5">
<path d="M 2.27 0 L 2.27 -0.28 C 1.69 -0.28 1.64 -0.33 1.64 -0.67 L 1.64 -3.95 L 0.36 -3.86 L 0.36 -3.58 C 0.94 -3.58 1.02 -3.53 1.02 -3.09 L 1.02 -0.69 C 1.02 -0.28 0.91 -0.28 0.33 -0.28 L 0.33 0 C 0.72 -0.02 0.91 -0.03 1.31 -0.03 C 1.45 -0.03 1.83 -0.03 2.27 0 Z M 1.77 -5.41 C 1.77 -5.67 1.55 -5.88 1.28 -5.88 C 1.02 -5.88 0.80 -5.67 0.80 -5.41 C 0.80 -5.12 1.02 -4.92 1.28 -4.92 C 1.55 -4.92 1.77 -5.12 1.77 -5.41 Z M 1.77 -5.41 "/>
</g>
<g id="pc-dilution-ph--glyph-1-6">
<path d="M 2.34 0 L 2.34 -0.28 C 1.75 -0.28 1.64 -0.28 1.64 -0.69 L 1.64 -6.22 L 0.33 -6.11 L 0.33 -5.84 C 0.94 -5.84 1.02 -5.78 1.02 -5.34 L 1.02 -0.69 C 1.02 -0.28 0.91 -0.28 0.33 -0.28 L 0.33 0 C 0.75 -0.02 0.91 -0.03 1.33 -0.03 C 1.75 -0.03 1.89 -0.02 2.34 0 Z M 2.34 0 "/>
</g>
<g id="pc-dilution-ph--glyph-1-7">
<path d="M 4.89 0 L 4.89 -0.28 C 4.28 -0.28 4.20 -0.34 4.20 -0.78 L 4.20 -3.95 L 2.86 -3.86 L 2.86 -3.58 C 3.47 -3.58 3.55 -3.52 3.55 -3.08 L 3.55 -1.5 C 3.55 -0.70 3.09 -0.12 2.45 -0.12 C 1.70 -0.12 1.67 -0.52 1.67 -1 L 1.67 -3.95 L 0.31 -3.86 L 0.31 -3.58 C 1 -3.58 1 -3.55 1 -2.75 L 1 -1.42 C 1 -0.83 1 -0.45 1.42 -0.14 C 1.67 0.03 2.05 0.09 2.41 0.09 C 2.86 0.09 3.30 -0.11 3.56 -0.64 L 3.58 -0.64 L 3.58 0.09 Z M 4.89 0 "/>
</g>
<g id="pc-dilution-ph--glyph-1-8">
<path d="M 3.06 -1.11 L 3.06 -1.62 L 2.81 -1.62 L 2.81 -1.14 C 2.81 -0.47 2.53 -0.16 2.22 -0.16 C 1.61 -0.16 1.61 -0.94 1.61 -1.09 L 1.61 -3.58 L 2.91 -3.58 L 2.91 -3.86 L 1.61 -3.86 L 1.61 -5.5 L 1.36 -5.5 C 1.36 -4.75 1.03 -3.83 0.17 -3.81 L 0.17 -3.58 L 0.95 -3.58 L 0.95 -1.11 C 0.95 -0.11 1.67 0.09 2.16 0.09 C 2.75 0.09 3.06 -0.47 3.06 -1.11 Z M 3.06 -1.11 "/>
</g>
<g id="pc-dilution-ph--glyph-1-9">
<path d="M 4.33 -1.91 C 4.33 -3.08 3.41 -4.02 2.30 -4.02 C 1.16 -4.02 0.27 -3.05 0.27 -1.91 C 0.27 -0.78 1.19 0.09 2.30 0.09 C 3.42 0.09 4.33 -0.81 4.33 -1.91 Z M 3.56 -1.98 C 3.56 -1.66 3.56 -1.14 3.34 -0.75 C 3.09 -0.33 2.67 -0.16 2.30 -0.16 C 1.86 -0.16 1.48 -0.38 1.27 -0.72 C 1.03 -1.09 1.03 -1.58 1.03 -1.98 C 1.03 -2.31 1.03 -2.83 1.25 -3.20 C 1.52 -3.66 1.97 -3.78 2.30 -3.78 C 2.80 -3.78 3.17 -3.5 3.34 -3.20 C 3.55 -2.81 3.56 -2.36 3.56 -1.98 Z M 3.56 -1.98 "/>
</g>
<g id="pc-dilution-ph--glyph-1-10">
<path d="M 4.89 0 L 4.89 -0.28 C 4.44 -0.28 4.22 -0.28 4.20 -0.56 L 4.20 -2.28 C 4.20 -3.02 4.20 -3.28 3.95 -3.59 C 3.75 -3.84 3.41 -3.95 2.97 -3.95 C 2.12 -3.95 1.75 -3.34 1.62 -3.09 L 1.61 -3.09 L 1.61 -3.95 L 0.31 -3.86 L 0.31 -3.58 C 0.92 -3.58 1 -3.52 1 -3.08 L 1 -0.69 C 1 -0.28 0.91 -0.28 0.31 -0.28 L 0.31 0 C 0.73 -0.02 0.91 -0.03 1.33 -0.03 C 1.77 -0.03 1.88 -0.02 2.36 0 L 2.36 -0.28 C 1.77 -0.28 1.67 -0.28 1.67 -0.69 L 1.67 -2.31 C 1.67 -3.27 2.34 -3.73 2.91 -3.73 C 3.42 -3.73 3.55 -3.30 3.55 -2.75 L 3.55 -0.69 C 3.55 -0.28 3.45 -0.28 2.86 -0.28 L 2.86 0 C 3.28 -0.02 3.45 -0.03 3.88 -0.03 C 4.31 -0.03 4.42 -0.02 4.89 0 Z M 4.89 0 "/>
</g>
<g id="pc-dilution-ph--glyph-1-11">
<path d="M 3.34 -3.41 C 3.34 -3.69 3.08 -3.95 2.67 -3.95 C 2.12 -3.95 1.75 -3.58 1.55 -3.03 L 1.55 -3.95 L 0.27 -3.86 L 0.27 -3.58 C 0.88 -3.58 0.95 -3.52 0.95 -3.08 L 0.95 -0.69 C 0.95 -0.28 0.86 -0.28 0.27 -0.28 L 0.27 0 C 0.75 -0.02 0.86 -0.03 1.31 -0.03 L 2.45 0 L 2.45 -0.28 L 2.28 -0.28 C 1.62 -0.28 1.59 -0.38 1.59 -0.70 L 1.59 -2.05 C 1.59 -2.42 1.69 -3.73 2.72 -3.73 L 2.72 -3.72 C 2.69 -3.72 2.55 -3.61 2.55 -3.39 C 2.55 -3.16 2.73 -3 2.95 -3 C 3.14 -3 3.34 -3.14 3.34 -3.41 Z M 3.34 -3.41 "/>
</g>
<g id="pc-dilution-ph--glyph-1-12">
<path d="M 3.83 -1.06 C 3.83 -1.17 3.72 -1.17 3.70 -1.17 C 3.59 -1.17 3.59 -1.16 3.55 -1 C 3.34 -0.39 2.84 -0.16 2.38 -0.16 C 1.81 -0.16 1.08 -0.62 1.08 -1.94 C 1.08 -3.34 1.80 -3.77 2.33 -3.77 C 2.44 -3.77 2.92 -3.75 3.27 -3.52 C 3.08 -3.48 2.89 -3.36 2.89 -3.09 C 2.89 -2.86 3.08 -2.69 3.30 -2.69 C 3.53 -2.69 3.72 -2.84 3.72 -3.11 C 3.72 -3.67 3.09 -4.02 2.31 -4.02 C 1.16 -4.02 0.30 -3.05 0.30 -1.94 C 0.30 -0.78 1.23 0.09 2.30 0.09 C 3.53 0.09 3.83 -0.98 3.83 -1.06 Z M 3.83 -1.06 "/>
</g>
<g id="pc-dilution-ph--glyph-1-13">
<path d="M 4.89 0 L 4.89 -0.28 C 4.44 -0.28 4.22 -0.28 4.20 -0.56 L 4.20 -2.28 C 4.20 -3.02 4.20 -3.28 3.95 -3.59 C 3.75 -3.84 3.41 -3.95 2.97 -3.95 C 2.36 -3.95 1.92 -3.64 1.64 -3.14 L 1.64 -6.22 L 0.31 -6.11 L 0.31 -5.84 C 0.92 -5.84 1 -5.78 1 -5.34 L 1 -0.69 C 1 -0.28 0.91 -0.28 0.31 -0.28 L 0.31 0 C 0.73 -0.02 0.91 -0.03 1.33 -0.03 C 1.77 -0.03 1.88 -0.02 2.36 0 L 2.36 -0.28 C 1.77 -0.28 1.67 -0.28 1.67 -0.69 L 1.67 -2.31 C 1.67 -3.27 2.34 -3.73 2.91 -3.73 C 3.42 -3.73 3.55 -3.30 3.55 -2.75 L 3.55 -0.69 C 3.55 -0.28 3.45 -0.28 2.86 -0.28 L 2.86 0 C 3.28 -0.02 3.45 -0.03 3.88 -0.03 C 4.31 -0.03 4.42 -0.02 4.89 0 Z M 4.89 0 "/>
</g>
<g id="pc-dilution-ph--glyph-1-14">
<path d="M 3.83 -1.06 C 3.83 -1.12 3.78 -1.19 3.70 -1.19 C 3.61 -1.19 3.58 -1.12 3.58 -1.08 C 3.27 -0.17 2.47 -0.16 2.34 -0.16 C 1.91 -0.16 1.55 -0.39 1.33 -0.70 C 1.03 -1.14 1.03 -1.67 1.03 -2.05 L 3.58 -2.05 C 3.78 -2.05 3.83 -2.05 3.83 -2.23 C 3.83 -3.16 3.33 -4.02 2.17 -4.02 C 1.09 -4.02 0.27 -3.08 0.27 -1.97 C 0.27 -0.80 1.20 0.09 2.30 0.09 C 3.39 0.09 3.83 -0.86 3.83 -1.06 Z M 3.22 -2.27 L 1.03 -2.27 C 1.12 -3.64 1.92 -3.78 2.17 -3.78 C 2.67 -3.78 3.20 -3.41 3.22 -2.27 Z M 3.22 -2.27 "/>
</g>
<g id="pc-dilution-ph--glyph-1-15">
<path d="M 1.88 -5.27 C 1.88 -5.84 1.64 -6.22 1.27 -6.22 C 0.95 -6.22 0.78 -5.97 0.78 -5.73 C 0.78 -5.48 0.95 -5.25 1.27 -5.25 C 1.39 -5.25 1.5 -5.28 1.61 -5.36 C 1.62 -5.38 1.64 -5.39 1.64 -5.39 C 1.64 -5.39 1.66 -5.34 1.66 -5.25 C 1.66 -4.67 1.39 -4.12 0.95 -3.72 C 0.94 -3.70 0.91 -3.67 0.91 -3.62 C 0.91 -3.58 0.97 -3.52 1.03 -3.52 C 1.12 -3.52 1.88 -4.19 1.88 -5.27 Z M 1.88 -5.27 "/>
</g>
<g id="pc-dilution-ph--glyph-1-16">
<path d="M 3.31 -1.14 C 3.31 -1.55 3.14 -1.80 2.94 -2 C 2.62 -2.30 2.31 -2.36 1.64 -2.48 C 1.42 -2.53 0.77 -2.64 0.77 -3.16 C 0.77 -3.44 0.97 -3.81 1.78 -3.81 C 2.75 -3.81 2.81 -3.08 2.83 -2.84 C 2.84 -2.73 2.84 -2.69 2.95 -2.69 C 3.08 -2.69 3.08 -2.75 3.08 -2.92 L 3.08 -3.78 C 3.08 -3.94 3.08 -4.02 2.97 -4.02 C 2.92 -4.02 2.91 -4.02 2.80 -3.91 C 2.78 -3.89 2.69 -3.81 2.64 -3.77 C 2.36 -3.95 2.09 -4.02 1.78 -4.02 C 0.59 -4.02 0.30 -3.36 0.30 -2.91 C 0.30 -2.61 0.44 -2.38 0.64 -2.19 C 0.94 -1.91 1.28 -1.84 1.73 -1.77 C 2.19 -1.67 2.34 -1.64 2.55 -1.5 C 2.62 -1.42 2.86 -1.25 2.86 -0.91 C 2.86 -0.12 1.95 -0.12 1.83 -0.12 C 0.91 -0.12 0.69 -0.89 0.58 -1.38 C 0.55 -1.45 0.53 -1.52 0.44 -1.52 C 0.30 -1.52 0.30 -1.44 0.30 -1.28 L 0.30 -0.14 C 0.30 0.02 0.30 0.09 0.41 0.09 C 0.47 0.09 0.47 0.09 0.64 -0.08 C 0.67 -0.14 0.77 -0.25 0.81 -0.30 C 1.19 0.08 1.61 0.09 1.83 0.09 C 2.92 0.09 3.31 -0.55 3.31 -1.14 Z M 3.31 -1.14 "/>
</g>
<g id="pc-dilution-ph--glyph-1-17">
<path d="M 3.83 -1.06 C 3.83 -1.12 3.78 -1.19 3.70 -1.19 C 3.61 -1.19 3.58 -1.12 3.58 -1.08 C 3.27 -0.17 2.47 -0.16 2.34 -0.16 C 1.91 -0.16 1.55 -0.39 1.33 -0.70 C 1.03 -1.14 1.03 -1.67 1.03 -2.05 L 3.58 -2.05 C 3.78 -2.05 3.83 -2.05 3.83 -2.23 C 3.83 -3.16 3.33 -4.02 2.17 -4.02 C 1.09 -4.02 0.27 -3.08 0.27 -1.97 C 0.27 -0.80 1.20 0.09 2.30 0.09 C 3.39 0.09 3.83 -0.86 3.83 -1.06 Z M 3.22 -2.27 L 1.03 -2.27 C 1.12 -3.64 1.92 -3.78 2.17 -3.78 C 2.67 -3.78 3.20 -3.41 3.22 -2.27 Z M 3.19 -5.91 C 3.19 -6.11 3.02 -6.25 2.84 -6.25 C 2.69 -6.25 2.66 -6.19 2.56 -6.09 L 1.48 -4.73 L 1.64 -4.55 L 3 -5.61 C 3.11 -5.69 3.19 -5.77 3.19 -5.91 Z M 3.19 -5.91 "/>
</g>
<g id="pc-dilution-ph--glyph-1-18">
<path d="M 1.86 -0.02 C 1.86 -0.64 1.62 -0.97 1.27 -0.97 C 0.95 -0.97 0.78 -0.72 0.78 -0.48 C 0.78 -0.23 0.95 0 1.27 0 C 1.5 0 1.62 -0.14 1.62 -0.14 C 1.62 0.16 1.62 0.89 0.95 1.53 C 0.91 1.58 0.91 1.62 0.91 1.62 C 0.91 1.67 0.97 1.73 1.03 1.73 C 1.12 1.73 1.86 1.03 1.86 -0.02 Z M 1.86 -0.02 "/>
</g>
<g id="pc-dilution-ph--glyph-1-19">
<path d="M 1.95 0.44 L 1.95 -3.95 L 0.56 -3.86 L 0.56 -3.58 C 1.23 -3.58 1.31 -3.52 1.31 -3.08 L 1.31 0.45 C 1.31 0.72 1.28 1.61 0.67 1.61 C 0.64 1.61 0.41 1.61 0.20 1.5 C 0.48 1.42 0.48 1.16 0.48 1.11 C 0.48 0.88 0.31 0.70 0.08 0.70 C -0.19 0.70 -0.34 0.88 -0.34 1.12 C -0.34 1.58 0.17 1.83 0.69 1.83 C 1.39 1.83 1.95 1.25 1.95 0.44 Z M 1.95 -5.41 C 1.95 -5.67 1.73 -5.88 1.47 -5.88 C 1.20 -5.88 0.98 -5.67 0.98 -5.41 C 0.98 -5.12 1.20 -4.92 1.47 -4.92 C 1.73 -4.92 1.95 -5.12 1.95 -5.41 Z M 1.95 -5.41 "/>
</g>
<g id="pc-dilution-ph--glyph-1-20">
<path d="M 7.45 0 L 7.45 -0.28 C 7 -0.28 6.78 -0.28 6.77 -0.56 L 6.77 -2.28 C 6.77 -3.05 6.77 -3.30 6.47 -3.64 C 6.28 -3.84 5.92 -3.95 5.52 -3.95 C 4.88 -3.95 4.44 -3.58 4.19 -3.11 C 4.08 -3.64 3.72 -3.95 2.97 -3.95 C 2.25 -3.95 1.81 -3.48 1.62 -3.08 L 1.61 -3.08 L 1.61 -3.95 L 0.31 -3.86 L 0.31 -3.58 C 0.92 -3.58 1 -3.52 1 -3.08 L 1 -0.69 C 1 -0.28 0.91 -0.28 0.31 -0.28 L 0.31 0 C 0.73 -0.02 0.91 -0.03 1.33 -0.03 C 1.77 -0.03 1.88 -0.02 2.36 0 L 2.36 -0.28 C 1.77 -0.28 1.67 -0.28 1.67 -0.69 L 1.67 -2.31 C 1.67 -3.28 2.36 -3.73 2.91 -3.73 C 3.39 -3.73 3.55 -3.39 3.55 -2.75 L 3.55 -0.69 C 3.55 -0.28 3.45 -0.28 2.86 -0.28 L 2.86 0 C 3.28 -0.02 3.45 -0.03 3.89 -0.03 C 4.31 -0.03 4.44 -0.02 4.91 0 L 4.91 -0.28 C 4.31 -0.28 4.22 -0.28 4.22 -0.69 L 4.22 -2.31 C 4.22 -3.28 4.92 -3.73 5.45 -3.73 C 5.94 -3.73 6.11 -3.39 6.11 -2.75 L 6.11 -0.69 C 6.11 -0.28 6 -0.28 5.42 -0.28 L 5.42 0 C 5.84 -0.02 6 -0.03 6.44 -0.03 C 6.86 -0.03 6.98 -0.02 7.45 0 Z M 7.45 0 "/>
</g>
<g id="pc-dilution-ph--glyph-1-21">
<path d="M 1.75 -0.48 C 1.75 -0.75 1.55 -0.97 1.27 -0.97 C 1 -0.97 0.78 -0.75 0.78 -0.48 C 0.78 -0.22 1 0 1.27 0 C 1.55 0 1.75 -0.22 1.75 -0.48 Z M 1.75 -0.48 "/>
</g>
<g id="pc-dilution-ph--glyph-2-0">
<path d="M 3.59 -2.22 C 3.59 -2.98 3.5 -3.55 3.19 -4.03 C 2.97 -4.34 2.53 -4.62 1.98 -4.62 C 0.36 -4.62 0.36 -2.72 0.36 -2.22 C 0.36 -1.72 0.36 0.14 1.98 0.14 C 3.59 0.14 3.59 -1.72 3.59 -2.22 Z M 2.97 -2.31 C 2.97 -1.80 2.97 -1.28 2.88 -0.84 C 2.73 -0.20 2.27 -0.06 1.98 -0.06 C 1.66 -0.06 1.23 -0.25 1.09 -0.81 C 1 -1.22 1 -1.80 1 -2.31 C 1 -2.83 1 -3.36 1.09 -3.73 C 1.25 -4.28 1.69 -4.44 1.98 -4.44 C 2.36 -4.44 2.72 -4.20 2.84 -3.80 C 2.95 -3.42 2.97 -2.92 2.97 -2.31 Z M 2.97 -2.31 "/>
</g>
<g id="pc-dilution-ph--glyph-2-1">
<path d="M 3.80 -4.48 L 1.97 -4.48 C 1.69 -4.48 1.61 -4.5 1.36 -4.52 C 1 -4.55 0.98 -4.59 0.97 -4.70 L 0.73 -4.70 L 0.48 -3.22 L 0.72 -3.22 C 0.73 -3.33 0.81 -3.78 0.92 -3.86 C 0.97 -3.89 1.55 -3.89 1.64 -3.89 L 3.16 -3.89 L 2.44 -2.97 C 1.53 -1.78 1.44 -0.67 1.44 -0.27 C 1.44 -0.19 1.44 0.14 1.77 0.14 C 2.11 0.14 2.11 -0.17 2.11 -0.27 L 2.11 -0.55 C 2.11 -1.89 2.39 -2.52 2.69 -2.89 L 3.73 -4.20 C 3.80 -4.30 3.80 -4.31 3.80 -4.48 Z M 3.80 -4.48 "/>
</g>
<g id="pc-dilution-ph--glyph-2-2">
<path d="M 3.30 0 L 3.30 -0.25 L 3.03 -0.25 C 2.33 -0.25 2.33 -0.34 2.33 -0.58 L 2.33 -4.44 C 2.33 -4.62 2.33 -4.62 2.12 -4.62 C 1.67 -4.19 1.05 -4.19 0.77 -4.19 L 0.77 -3.94 C 0.92 -3.94 1.39 -3.94 1.77 -4.12 L 1.77 -0.58 C 1.77 -0.34 1.77 -0.25 1.08 -0.25 L 0.81 -0.25 L 0.81 0 L 2.05 -0.03 Z M 3.30 0 "/>
</g>
<g id="pc-dilution-ph--glyph-2-3">
<path d="M 3.69 -1.14 L 3.69 -1.39 L 2.91 -1.39 L 2.91 -4.5 C 2.91 -4.64 2.91 -4.70 2.77 -4.70 C 2.67 -4.70 2.64 -4.70 2.58 -4.59 L 0.27 -1.39 L 0.27 -1.14 L 2.33 -1.14 L 2.33 -0.58 C 2.33 -0.33 2.33 -0.25 1.75 -0.25 L 1.56 -0.25 L 1.56 0 L 2.61 -0.03 L 3.67 0 L 3.67 -0.25 L 3.48 -0.25 C 2.91 -0.25 2.91 -0.33 2.91 -0.58 L 2.91 -1.14 Z M 2.38 -1.39 L 0.53 -1.39 L 2.38 -3.94 Z M 2.38 -1.39 "/>
</g>
<g id="pc-dilution-ph--glyph-2-4">
<path d="M 2.84 -0.91 C 2.84 -1.17 2.72 -1.39 2.53 -1.55 C 2.27 -1.80 1.95 -1.86 1.70 -1.89 C 1.16 -2 0.70 -2.08 0.70 -2.45 C 0.70 -2.67 0.89 -2.94 1.55 -2.94 C 2.36 -2.94 2.39 -2.38 2.41 -2.17 C 2.41 -2.09 2.5 -2.09 2.52 -2.09 C 2.64 -2.09 2.64 -2.14 2.64 -2.28 L 2.64 -2.92 C 2.64 -3.05 2.64 -3.11 2.55 -3.11 C 2.52 -3.11 2.5 -3.11 2.41 -3.03 C 2.39 -3.02 2.33 -2.95 2.28 -2.92 C 2.06 -3.06 1.81 -3.11 1.55 -3.11 C 0.55 -3.11 0.31 -2.58 0.31 -2.23 C 0.31 -2.02 0.41 -1.83 0.58 -1.69 C 0.84 -1.47 1.11 -1.42 1.55 -1.34 C 1.89 -1.28 2.45 -1.19 2.45 -0.72 C 2.45 -0.45 2.27 -0.12 1.59 -0.12 C 0.92 -0.12 0.69 -0.56 0.56 -1.03 C 0.53 -1.12 0.53 -1.16 0.44 -1.16 C 0.31 -1.16 0.31 -1.11 0.31 -0.97 L 0.31 -0.11 C 0.31 0 0.31 0.06 0.41 0.06 C 0.47 0.06 0.61 -0.08 0.75 -0.23 C 1.05 0.06 1.42 0.06 1.59 0.06 C 2.5 0.06 2.84 -0.42 2.84 -0.91 Z M 2.84 -0.91 "/>
</g>
<g id="pc-dilution-ph--glyph-2-5">
<path d="M 3.69 -1.48 C 3.69 -2.36 2.94 -3.11 1.98 -3.11 C 1.02 -3.11 0.27 -2.36 0.27 -1.48 C 0.27 -0.62 1.03 0.06 1.98 0.06 C 2.92 0.06 3.69 -0.62 3.69 -1.48 Z M 3.05 -1.55 C 3.05 -1.22 3.03 -0.84 2.83 -0.56 C 2.64 -0.30 2.33 -0.16 1.98 -0.16 C 1.72 -0.16 1.34 -0.23 1.11 -0.58 C 0.92 -0.86 0.91 -1.22 0.91 -1.55 C 0.91 -1.84 0.91 -2.27 1.16 -2.56 C 1.33 -2.77 1.62 -2.91 1.98 -2.91 C 2.39 -2.91 2.69 -2.72 2.84 -2.5 C 3.03 -2.23 3.05 -1.88 3.05 -1.55 Z M 3.05 -1.55 "/>
</g>
<g id="pc-dilution-ph--glyph-2-6">
<path d="M 1.95 0 L 1.95 -0.25 C 1.5 -0.25 1.44 -0.25 1.44 -0.55 L 1.44 -4.84 L 0.39 -4.77 L 0.39 -4.52 C 0.86 -4.52 0.91 -4.45 0.91 -4.12 L 0.91 -0.55 C 0.91 -0.25 0.84 -0.25 0.39 -0.25 L 0.39 0 C 0.39 0 0.89 -0.03 1.17 -0.03 C 1.44 -0.03 1.69 -0.02 1.95 0 Z M 1.95 0 "/>
</g>
<g id="pc-dilution-ph--glyph-2-7">
<path d="M 4.11 0 L 4.11 -0.25 C 3.64 -0.25 3.59 -0.30 3.59 -0.64 L 3.59 -3.08 L 2.52 -3 L 2.52 -2.75 C 2.98 -2.75 3.03 -2.70 3.03 -2.36 L 3.03 -1.16 C 3.03 -0.55 2.64 -0.12 2.11 -0.12 C 1.48 -0.12 1.45 -0.42 1.45 -0.78 L 1.45 -3.08 L 0.38 -3 L 0.38 -2.75 C 0.91 -2.75 0.91 -2.72 0.91 -2.11 L 0.91 -1.06 C 0.91 -0.58 0.91 0.06 2.06 0.06 C 2.22 0.06 2.72 0.06 3.06 -0.52 L 3.06 0.06 Z M 4.11 0 "/>
</g>
<g id="pc-dilution-ph--glyph-2-8">
<path d="M 2.61 -0.88 L 2.61 -1.27 L 2.38 -1.27 L 2.38 -0.89 C 2.38 -0.41 2.16 -0.16 1.88 -0.16 C 1.41 -0.16 1.41 -0.73 1.41 -0.86 L 1.41 -2.75 L 2.48 -2.75 L 2.48 -3 L 1.41 -3 L 1.41 -4.28 L 1.16 -4.28 C 1.16 -3.66 0.88 -2.97 0.20 -2.95 L 0.20 -2.75 L 0.84 -2.75 L 0.84 -0.88 C 0.84 -0.09 1.44 0.06 1.83 0.06 C 2.30 0.06 2.61 -0.33 2.61 -0.88 Z M 2.61 -0.88 "/>
</g>
<g id="pc-dilution-ph--glyph-2-9">
<path d="M 1.91 0 L 1.91 -0.25 C 1.5 -0.25 1.44 -0.25 1.44 -0.55 L 1.44 -3.08 L 0.41 -3 L 0.41 -2.75 C 0.84 -2.75 0.91 -2.70 0.91 -2.36 L 0.91 -0.55 C 0.91 -0.25 0.84 -0.25 0.39 -0.25 L 0.39 0 C 0.39 0 0.89 -0.03 1.17 -0.03 C 1.42 -0.03 1.67 -0.02 1.91 0 Z M 1.53 -4.19 C 1.53 -4.42 1.36 -4.59 1.12 -4.59 C 0.89 -4.59 0.73 -4.41 0.73 -4.20 C 0.73 -3.98 0.91 -3.80 1.12 -3.80 C 1.36 -3.80 1.53 -4 1.53 -4.19 Z M 1.53 -4.19 "/>
</g>
<g id="pc-dilution-ph--glyph-2-10">
<path d="M 4.11 0 L 4.11 -0.25 C 3.66 -0.25 3.59 -0.25 3.59 -0.55 L 3.59 -2.11 C 3.59 -2.72 3.30 -3.08 2.55 -3.08 C 1.97 -3.08 1.61 -2.77 1.41 -2.39 L 1.41 -3.08 L 0.38 -3 L 0.38 -2.75 C 0.84 -2.75 0.91 -2.70 0.91 -2.36 L 0.91 -0.55 C 0.91 -0.25 0.83 -0.25 0.38 -0.25 L 0.38 0 C 0.38 0 0.88 -0.03 1.17 -0.03 C 1.42 -0.03 1.91 0 1.97 0 L 1.97 -0.25 C 1.52 -0.25 1.45 -0.25 1.45 -0.55 L 1.45 -1.81 C 1.45 -2.53 2.03 -2.88 2.48 -2.88 C 2.97 -2.88 3.03 -2.5 3.03 -2.14 L 3.03 -0.55 C 3.03 -0.25 2.97 -0.25 2.52 -0.25 L 2.52 0 C 2.52 0 3.02 -0.03 3.31 -0.03 C 3.56 -0.03 4.05 0 4.11 0 Z M 4.11 0 "/>
</g>
<g id="pc-dilution-ph--glyph-2-11">
<path d="M 3.80 -0.62 L 3.80 -1.02 L 3.55 -1.02 L 3.55 -0.64 C 3.55 -0.56 3.55 -0.23 3.30 -0.23 C 3.03 -0.23 3.03 -0.56 3.03 -0.64 L 3.03 -1.88 C 3.03 -2.23 3.03 -2.5 2.72 -2.77 C 2.44 -3 2.09 -3.11 1.69 -3.11 C 1.03 -3.11 0.56 -2.86 0.56 -2.44 C 0.56 -2.20 0.70 -2.09 0.89 -2.09 C 1.08 -2.09 1.22 -2.23 1.22 -2.42 C 1.22 -2.53 1.16 -2.69 0.97 -2.73 C 1.22 -2.91 1.62 -2.91 1.67 -2.91 C 2.06 -2.91 2.48 -2.66 2.48 -2.06 L 2.48 -1.86 C 2.11 -1.84 1.64 -1.81 1.14 -1.62 C 0.52 -1.41 0.31 -1.02 0.31 -0.70 C 0.31 -0.11 1.03 0.06 1.53 0.06 C 2.09 0.06 2.42 -0.25 2.56 -0.52 C 2.59 -0.23 2.78 0.03 3.09 0.03 C 3.09 0.03 3.80 0.03 3.80 -0.62 Z M 2.48 -0.98 C 2.48 -0.31 1.91 -0.12 1.59 -0.12 C 1.23 -0.12 0.91 -0.36 0.91 -0.70 C 0.91 -1.09 1.23 -1.62 2.48 -1.67 Z M 2.48 -0.98 "/>
</g>
<g id="pc-dilution-ph--glyph-2-12">
<path d="M 3.95 -2.75 L 3.95 -3 C 3.78 -2.98 3.61 -2.97 3.42 -2.97 C 3.23 -2.97 2.98 -2.98 2.80 -3 L 2.80 -2.75 C 3.09 -2.73 3.09 -2.52 3.09 -2.48 C 3.09 -2.45 3.08 -2.39 3.03 -2.28 L 2.25 -0.56 L 1.38 -2.45 C 1.38 -2.45 1.34 -2.55 1.34 -2.59 C 1.34 -2.75 1.58 -2.75 1.69 -2.75 L 1.69 -3 C 1.69 -3 1.19 -2.97 0.91 -2.97 C 0.69 -2.97 0.42 -2.98 0.22 -3 L 0.22 -2.75 C 0.59 -2.75 0.69 -2.73 0.78 -2.5 L 1.89 -0.08 C 1.92 0 1.97 0.06 2.08 0.06 C 2.22 0.06 2.25 0 2.28 -0.06 L 3.30 -2.33 C 3.5 -2.75 3.84 -2.75 3.95 -2.75 Z M 3.95 -2.75 "/>
</g>
<g id="pc-dilution-ph--glyph-2-13">
<path d="M 4.05 0 L 4.05 -0.25 C 3.58 -0.25 3.53 -0.30 3.53 -0.64 L 3.53 -4.84 L 2.48 -4.77 L 2.48 -4.52 C 2.95 -4.52 3 -4.45 3 -4.12 L 3 -2.67 C 2.75 -2.92 2.41 -3.08 2.03 -3.08 C 1.09 -3.08 0.33 -2.38 0.33 -1.5 C 0.33 -0.62 1.06 0.06 1.94 0.06 C 2.52 0.06 2.86 -0.23 2.97 -0.36 L 2.97 0.06 Z M 2.97 -0.73 C 2.80 -0.41 2.44 -0.12 1.98 -0.12 C 1.59 -0.12 1.31 -0.36 1.17 -0.56 C 1.03 -0.77 0.95 -1.05 0.95 -1.48 C 0.95 -1.66 0.95 -2.17 1.23 -2.5 C 1.52 -2.81 1.86 -2.88 2.06 -2.88 C 2.39 -2.88 2.70 -2.72 2.89 -2.47 C 2.97 -2.36 2.97 -2.36 2.97 -2.22 Z M 2.97 -0.73 "/>
</g>
<g id="pc-dilution-ph--glyph-2-14">
<path d="M 1.53 -2.59 C 1.53 -2.84 1.33 -3 1.12 -3 C 0.89 -3 0.72 -2.81 0.72 -2.61 C 0.72 -2.36 0.92 -2.20 1.12 -2.20 C 1.36 -2.20 1.53 -2.39 1.53 -2.59 Z M 1.53 -0.39 C 1.53 -0.64 1.33 -0.80 1.12 -0.80 C 0.89 -0.80 0.72 -0.61 0.72 -0.41 C 0.72 -0.16 0.92 0 1.12 0 C 1.36 0 1.53 -0.19 1.53 -0.39 Z M 1.53 -0.39 "/>
</g>
<g id="pc-dilution-ph--glyph-2-15">
<path d="M 4.06 -1.5 C 4.06 -2.36 3.36 -3.08 2.47 -3.08 C 2.08 -3.08 1.67 -2.92 1.39 -2.64 L 1.39 -3.08 L 0.34 -3 L 0.34 -2.75 C 0.83 -2.75 0.86 -2.70 0.86 -2.42 L 0.86 0.80 C 0.86 1.09 0.80 1.09 0.34 1.09 L 0.34 1.36 C 0.34 1.36 0.84 1.33 1.14 1.33 C 1.39 1.33 1.88 1.34 1.94 1.36 L 1.94 1.09 C 1.48 1.09 1.42 1.09 1.42 0.80 L 1.42 -0.33 C 1.45 -0.30 1.78 0.06 2.36 0.06 C 3.28 0.06 4.06 -0.62 4.06 -1.5 Z M 3.44 -1.5 C 3.44 -0.70 2.91 -0.12 2.33 -0.12 C 1.70 -0.12 1.44 -0.66 1.42 -0.70 L 1.42 -2.33 C 1.62 -2.67 2.03 -2.84 2.39 -2.84 C 2.98 -2.84 3.44 -2.23 3.44 -1.5 Z M 3.44 -1.5 "/>
</g>
<g id="pc-dilution-ph--glyph-2-16">
<path d="M 5.48 0 L 5.48 -0.25 L 5.31 -0.25 C 4.78 -0.25 4.77 -0.33 4.77 -0.56 L 4.77 -4.19 C 4.77 -4.44 4.78 -4.52 5.31 -4.52 L 5.48 -4.52 L 5.48 -4.77 L 4.44 -4.73 L 3.38 -4.77 L 3.38 -4.52 L 3.55 -4.52 C 4.08 -4.52 4.09 -4.44 4.09 -4.19 L 4.09 -2.59 L 1.77 -2.59 L 1.77 -4.19 C 1.77 -4.44 1.78 -4.52 2.33 -4.52 L 2.48 -4.52 L 2.48 -4.77 L 1.44 -4.73 L 0.39 -4.77 L 0.39 -4.52 L 0.56 -4.52 C 1.09 -4.52 1.11 -4.44 1.11 -4.19 L 1.11 -0.56 C 1.11 -0.33 1.09 -0.25 0.56 -0.25 L 0.39 -0.25 L 0.39 0 L 1.44 -0.03 L 2.48 0 L 2.48 -0.25 L 2.33 -0.25 C 1.78 -0.25 1.77 -0.33 1.77 -0.56 L 1.77 -2.34 L 4.09 -2.34 L 4.09 -0.56 C 4.09 -0.33 4.08 -0.25 3.55 -0.25 L 3.38 -0.25 L 3.38 0 L 4.42 -0.03 Z M 5.48 0 "/>
</g>
<g id="pc-dilution-ph--glyph-2-17">
<path d="M 3.52 -1.27 L 3.28 -1.27 C 3.27 -1.11 3.19 -0.70 3.09 -0.64 C 3.05 -0.59 2.52 -0.59 2.41 -0.59 L 1.12 -0.59 C 1.86 -1.23 2.11 -1.44 2.52 -1.77 C 3.03 -2.17 3.52 -2.61 3.52 -3.27 C 3.52 -4.11 2.78 -4.62 1.89 -4.62 C 1.03 -4.62 0.44 -4.02 0.44 -3.38 C 0.44 -3.03 0.73 -2.98 0.81 -2.98 C 0.97 -2.98 1.17 -3.11 1.17 -3.36 C 1.17 -3.48 1.12 -3.73 0.77 -3.73 C 0.98 -4.22 1.45 -4.38 1.78 -4.38 C 2.48 -4.38 2.84 -3.83 2.84 -3.27 C 2.84 -2.66 2.41 -2.19 2.19 -1.94 L 0.52 -0.27 C 0.44 -0.20 0.44 -0.19 0.44 0 L 3.31 0 Z M 3.52 -1.27 "/>
</g>
<g id="pc-dilution-ph--glyph-2-18">
<path d="M 1.61 -0.05 C 1.61 -0.45 1.45 -0.80 1.12 -0.80 C 0.88 -0.80 0.72 -0.61 0.72 -0.39 C 0.72 -0.23 0.84 0 1.12 0 C 1.30 0 1.42 -0.11 1.42 -0.11 C 1.42 0.08 1.42 0.67 0.88 1.16 C 0.84 1.19 0.83 1.22 0.83 1.25 C 0.83 1.30 0.88 1.36 0.92 1.36 C 1.02 1.36 1.61 0.80 1.61 -0.05 Z M 1.61 -0.05 "/>
</g>
<g id="pc-dilution-ph--glyph-2-19">
<path d="M 3.27 -0.84 C 3.27 -0.86 3.25 -0.94 3.14 -0.94 C 3.05 -0.94 3.03 -0.89 3.02 -0.83 C 2.80 -0.27 2.27 -0.16 2.02 -0.16 C 1.69 -0.16 1.38 -0.30 1.17 -0.56 C 0.91 -0.89 0.91 -1.31 0.91 -1.59 L 3.06 -1.59 C 3.22 -1.59 3.27 -1.59 3.27 -1.73 C 3.27 -2.36 2.92 -3.11 1.88 -3.11 C 0.97 -3.11 0.27 -2.39 0.27 -1.53 C 0.27 -0.64 1.05 0.06 1.97 0.06 C 2.91 0.06 3.27 -0.69 3.27 -0.84 Z M 2.78 -1.77 L 0.91 -1.77 C 0.98 -2.75 1.61 -2.91 1.88 -2.91 C 2.73 -2.91 2.77 -1.94 2.78 -1.77 Z M 2.78 -1.77 "/>
</g>
<g id="pc-dilution-ph--glyph-2-20">
<path d="M 3.27 -0.84 C 3.27 -0.86 3.25 -0.94 3.14 -0.94 C 3.05 -0.94 3.03 -0.89 3.02 -0.83 C 2.80 -0.27 2.27 -0.16 2.02 -0.16 C 1.69 -0.16 1.38 -0.30 1.17 -0.56 C 0.91 -0.89 0.91 -1.31 0.91 -1.59 L 3.06 -1.59 C 3.22 -1.59 3.27 -1.59 3.27 -1.73 C 3.27 -2.36 2.92 -3.11 1.88 -3.11 C 0.97 -3.11 0.27 -2.39 0.27 -1.53 C 0.27 -0.64 1.05 0.06 1.97 0.06 C 2.91 0.06 3.27 -0.69 3.27 -0.84 Z M 2.78 -1.77 L 0.91 -1.77 C 0.98 -2.75 1.61 -2.91 1.88 -2.91 C 2.73 -2.91 2.77 -1.94 2.78 -1.77 Z M 2.72 -4.58 C 2.72 -4.70 2.61 -4.86 2.44 -4.86 C 2.33 -4.86 2.27 -4.80 2.20 -4.72 L 1.30 -3.70 L 1.45 -3.53 L 2.55 -4.33 C 2.66 -4.39 2.72 -4.45 2.72 -4.58 Z M 2.72 -4.58 "/>
</g>
<g id="pc-dilution-ph--glyph-2-21">
<path d="M 3.58 -1.20 C 3.58 -1.75 3.14 -2.30 2.38 -2.45 C 3.09 -2.72 3.36 -3.23 3.36 -3.67 C 3.36 -4.22 2.73 -4.62 1.95 -4.62 C 1.19 -4.62 0.59 -4.25 0.59 -3.69 C 0.59 -3.45 0.75 -3.33 0.95 -3.33 C 1.17 -3.33 1.31 -3.48 1.31 -3.67 C 1.31 -3.88 1.17 -4.03 0.95 -4.05 C 1.20 -4.34 1.67 -4.42 1.94 -4.42 C 2.25 -4.42 2.69 -4.27 2.69 -3.67 C 2.69 -3.38 2.59 -3.05 2.41 -2.84 C 2.19 -2.58 1.98 -2.56 1.64 -2.53 C 1.47 -2.52 1.45 -2.52 1.42 -2.52 C 1.42 -2.52 1.34 -2.5 1.34 -2.42 C 1.34 -2.33 1.41 -2.33 1.53 -2.33 L 1.91 -2.33 C 2.45 -2.33 2.84 -1.95 2.84 -1.20 C 2.84 -0.34 2.33 -0.08 1.94 -0.08 C 1.66 -0.08 1.03 -0.16 0.75 -0.58 C 1.08 -0.58 1.16 -0.81 1.16 -0.97 C 1.16 -1.19 0.98 -1.34 0.77 -1.34 C 0.58 -1.34 0.38 -1.22 0.38 -0.94 C 0.38 -0.28 1.09 0.14 1.94 0.14 C 2.91 0.14 3.58 -0.52 3.58 -1.20 Z M 3.58 -1.20 "/>
</g>
<g id="pc-dilution-ph--glyph-2-22">
<path d="M 3.80 -2.78 C 3.80 -2.95 3.67 -3.14 3.39 -3.14 C 3.28 -3.14 2.91 -3.12 2.58 -2.83 C 2.38 -2.97 2.08 -3.08 1.77 -3.08 C 1.05 -3.08 0.53 -2.59 0.53 -2.05 C 0.53 -1.78 0.67 -1.53 0.86 -1.34 C 0.81 -1.28 0.66 -1.05 0.66 -0.78 C 0.66 -0.69 0.67 -0.36 0.95 -0.16 C 0.64 -0.06 0.27 0.17 0.27 0.53 C 0.27 1.05 1.03 1.42 1.98 1.42 C 2.86 1.42 3.69 1.08 3.69 0.52 C 3.69 0.31 3.61 -0.06 3.22 -0.27 C 2.81 -0.48 2.39 -0.48 1.72 -0.48 C 1.56 -0.48 1.31 -0.48 1.27 -0.5 C 1.03 -0.55 0.91 -0.75 0.91 -0.95 C 0.91 -1.12 0.97 -1.19 1 -1.23 C 1.11 -1.17 1.36 -1.03 1.77 -1.03 C 2.48 -1.03 3 -1.5 3 -2.05 C 3 -2.33 2.88 -2.53 2.70 -2.72 C 3.03 -2.94 3.30 -2.95 3.42 -2.95 C 3.39 -2.92 3.36 -2.89 3.36 -2.78 C 3.36 -2.64 3.45 -2.56 3.58 -2.56 C 3.67 -2.56 3.80 -2.62 3.80 -2.78 Z M 2.45 -2.05 C 2.45 -1.94 2.45 -1.66 2.31 -1.48 C 2.20 -1.36 2.02 -1.23 1.77 -1.23 C 1.09 -1.23 1.09 -1.91 1.09 -2.05 C 1.09 -2.16 1.09 -2.44 1.22 -2.62 C 1.33 -2.73 1.52 -2.86 1.77 -2.86 C 2.45 -2.86 2.45 -2.19 2.45 -2.05 Z M 3.27 0.53 C 3.27 0.91 2.70 1.22 1.98 1.22 C 1.25 1.22 0.70 0.89 0.70 0.53 C 0.70 0.28 0.92 -0.02 1.36 -0.02 L 1.77 -0.02 C 2.39 -0.02 3.27 -0.02 3.27 0.53 Z M 3.27 0.53 "/>
</g>
<g id="pc-dilution-ph--glyph-2-23">
<path d="M 6.25 0 L 6.25 -0.25 C 5.80 -0.25 5.73 -0.25 5.73 -0.55 L 5.73 -2.11 C 5.73 -2.72 5.42 -3.08 4.69 -3.08 C 4.12 -3.08 3.75 -2.78 3.56 -2.42 C 3.42 -2.92 3.05 -3.08 2.55 -3.08 C 1.97 -3.08 1.61 -2.77 1.41 -2.39 L 1.41 -3.08 L 0.38 -3 L 0.38 -2.75 C 0.84 -2.75 0.91 -2.70 0.91 -2.36 L 0.91 -0.55 C 0.91 -0.25 0.83 -0.25 0.38 -0.25 L 0.38 0 C 0.38 0 0.88 -0.03 1.17 -0.03 C 1.42 -0.03 1.91 0 1.97 0 L 1.97 -0.25 C 1.52 -0.25 1.45 -0.25 1.45 -0.55 L 1.45 -1.81 C 1.45 -2.53 2.03 -2.88 2.48 -2.88 C 2.97 -2.88 3.03 -2.5 3.03 -2.14 L 3.03 -0.55 C 3.03 -0.25 2.97 -0.25 2.52 -0.25 L 2.52 0 C 2.52 0 3.02 -0.03 3.31 -0.03 C 3.56 -0.03 4.05 0 4.11 0 L 4.11 -0.25 C 3.66 -0.25 3.59 -0.25 3.59 -0.55 L 3.59 -1.81 C 3.59 -2.53 4.17 -2.88 4.62 -2.88 C 5.11 -2.88 5.17 -2.5 5.17 -2.14 L 5.17 -0.55 C 5.17 -0.25 5.11 -0.25 4.66 -0.25 L 4.66 0 C 4.66 0 5.16 -0.03 5.45 -0.03 C 5.70 -0.03 6.19 0 6.25 0 Z M 6.25 0 "/>
</g>
<g id="pc-dilution-ph--glyph-2-24">
<path d="M 2.84 -2.62 C 2.84 -2.86 2.61 -3.08 2.28 -3.08 C 1.94 -3.08 1.55 -2.86 1.34 -2.33 L 1.34 -3.08 L 0.34 -3 L 0.34 -2.75 C 0.81 -2.75 0.86 -2.70 0.86 -2.36 L 0.86 -0.55 C 0.86 -0.25 0.80 -0.25 0.34 -0.25 L 0.34 0 C 0.38 0 0.84 -0.03 1.14 -0.03 L 2.05 0 L 2.05 -0.25 L 1.91 -0.25 C 1.39 -0.25 1.39 -0.33 1.39 -0.56 L 1.39 -1.59 C 1.39 -2.17 1.66 -2.88 2.33 -2.88 C 2.27 -2.83 2.20 -2.73 2.20 -2.62 C 2.20 -2.39 2.39 -2.31 2.52 -2.31 C 2.69 -2.31 2.84 -2.42 2.84 -2.62 Z M 2.84 -2.62 "/>
</g>
<g id="pc-dilution-ph--glyph-2-25">
<path d="M 3.27 -0.84 C 3.27 -0.92 3.17 -0.92 3.14 -0.92 C 3.05 -0.92 3.05 -0.91 3.02 -0.80 C 2.86 -0.38 2.48 -0.16 2.06 -0.16 C 1.58 -0.16 0.95 -0.52 0.95 -1.52 C 0.95 -2.39 1.39 -2.89 2.03 -2.89 C 2.12 -2.89 2.45 -2.89 2.70 -2.78 C 2.58 -2.72 2.52 -2.61 2.52 -2.47 C 2.52 -2.28 2.64 -2.14 2.84 -2.14 C 3.03 -2.14 3.17 -2.27 3.17 -2.48 C 3.17 -3.11 2.20 -3.11 2.02 -3.11 C 0.97 -3.11 0.33 -2.31 0.33 -1.5 C 0.33 -0.62 1.06 0.06 1.98 0.06 C 3.02 0.06 3.27 -0.75 3.27 -0.84 Z M 3.27 -0.84 "/>
</g>
<g id="pc-dilution-ph--glyph-3-0">
<path d="M 3.22 -1.58 L 5.36 -1.58 C 5.45 -1.58 5.61 -1.58 5.61 -1.73 C 5.61 -1.92 5.45 -1.92 5.36 -1.92 L 3.22 -1.92 L 3.22 -4.06 C 3.22 -4.14 3.22 -4.31 3.06 -4.31 C 2.89 -4.31 2.89 -4.16 2.89 -4.06 L 2.89 -1.92 L 0.75 -1.92 C 0.66 -1.92 0.48 -1.92 0.48 -1.75 C 0.48 -1.58 0.64 -1.58 0.75 -1.58 L 2.89 -1.58 L 2.89 0.56 C 2.89 0.66 2.89 0.83 3.05 0.83 C 3.22 0.83 3.22 0.66 3.22 0.56 Z M 3.22 -1.58 "/>
</g>
</g>
<clipPath id="pc-dilution-ph--clip-0">
<path clip-rule="nonzero" d="M 3 219 L 248 219 L 248 261.45 L 3 261.45 Z M 3 219 "/>
</clipPath>
</defs>
<g fill="rgb(0%, 0%, 0%)" fill-opacity="1">
<use xlink:href="#pc-dilution-ph--glyph-0-0" x="7.834964" y="13.549608"/>
<use xlink:href="#pc-dilution-ph--glyph-0-1" x="15.493084" y="13.549608"/>
<use xlink:href="#pc-dilution-ph--glyph-0-2" x="20.643282" y="13.549608"/>
</g>
<g fill="rgb(0%, 0%, 0%)" fill-opacity="1">
<use xlink:href="#pc-dilution-ph--glyph-0-3" x="28.355144" y="13.549608"/>
</g>
<g fill="rgb(0%, 0%, 0%)" fill-opacity="1">
<use xlink:href="#pc-dilution-ph--glyph-0-4" x="37.186614" y="13.549608"/>
</g>
<g fill="rgb(0%, 0%, 0%)" fill-opacity="1">
<use xlink:href="#pc-dilution-ph--glyph-0-5" x="44.835777" y="13.549608"/>
<use xlink:href="#pc-dilution-ph--glyph-0-6" x="50.138242" y="13.549608"/>
</g>
<g fill="rgb(0%, 0%, 0%)" fill-opacity="1">
<use xlink:href="#pc-dilution-ph--glyph-0-7" x="59.551908" y="13.549608"/>
<use xlink:href="#pc-dilution-ph--glyph-0-8" x="65.436569" y="13.549608"/>
<use xlink:href="#pc-dilution-ph--glyph-0-9" x="68.383378" y="13.549608"/>
<use xlink:href="#pc-dilution-ph--glyph-0-10" x="71.330187" y="13.549608"/>
<use xlink:href="#pc-dilution-ph--glyph-0-11" x="77.214848" y="13.549608"/>
</g>
<g fill="rgb(0%, 0%, 0%)" fill-opacity="1">
<use xlink:href="#pc-dilution-ph--glyph-0-10" x="85.607432" y="13.549608"/>
<use xlink:href="#pc-dilution-ph--glyph-0-6" x="91.492093" y="13.549608"/>
<use xlink:href="#pc-dilution-ph--glyph-0-11" x="97.376754" y="13.549608"/>
</g>
<g fill="rgb(0%, 0%, 0%)" fill-opacity="1">
<use xlink:href="#pc-dilution-ph--glyph-0-2" x="105.769337" y="13.549608"/>
<use xlink:href="#pc-dilution-ph--glyph-0-5" x="109.952194" y="13.549608"/>
<use xlink:href="#pc-dilution-ph--glyph-0-9" x="115.254658" y="13.549608"/>
<use xlink:href="#pc-dilution-ph--glyph-0-10" x="118.201467" y="13.549608"/>
<use xlink:href="#pc-dilution-ph--glyph-0-12" x="124.086128" y="13.549608"/>
<use xlink:href="#pc-dilution-ph--glyph-0-8" x="128.206287" y="13.549608"/>
<use xlink:href="#pc-dilution-ph--glyph-0-5" x="131.153096" y="13.549608"/>
<use xlink:href="#pc-dilution-ph--glyph-0-6" x="136.45556" y="13.549608"/>
</g>
<g fill="rgb(88.233948%, 21.569824%, 9.803772%)" fill-opacity="1">
<use xlink:href="#pc-dilution-ph--glyph-0-1" x="145.872341" y="13.549608"/>
<use xlink:href="#pc-dilution-ph--glyph-0-13" x="151.022539" y="13.549608"/>
<use xlink:href="#pc-dilution-ph--glyph-0-8" x="155.733851" y="13.549608"/>
<use xlink:href="#pc-dilution-ph--glyph-0-7" x="158.680659" y="13.549608"/>
<use xlink:href="#pc-dilution-ph--glyph-0-11" x="164.56532" y="13.549608"/>
</g>
<path fill="none" stroke-width="0.59776" stroke-linecap="butt" stroke-linejoin="miter" stroke="rgb(0%, 0%, 0%)" stroke-opacity="1" stroke-miterlimit="10" d="M -10.92 0.00 L 229.19 0.00 " transform="matrix(0.998939, 0, 0, -0.998939, 15.220119, 71.357205)"/>
<path fill-rule="nonzero" fill="rgb(0%, 0%, 0%)" fill-opacity="1" stroke-width="0.59776" stroke-linecap="butt" stroke-linejoin="miter" stroke="rgb(0%, 0%, 0%)" stroke-opacity="1" stroke-miterlimit="10" d="M 4.13 0.00 L 0.97 1.20 L 2.01 0.00 L 0.97 -1.19 Z M 4.13 0.00 " transform="matrix(0.998939, 0, 0, -0.998939, 242.300785, 71.357205)"/>
<g fill="rgb(0%, 0%, 0%)" fill-opacity="1">
<use xlink:href="#pc-dilution-ph--glyph-1-0" x="250.558144" y="73.546879"/>
<use xlink:href="#pc-dilution-ph--glyph-1-1" x="255.672515" y="73.546879"/>
</g>
<path fill="none" stroke-width="0.3985" stroke-linecap="butt" stroke-linejoin="miter" stroke="rgb(0%, 0%, 0%)" stroke-opacity="1" stroke-miterlimit="10" d="M -0.00 -2.55 L -0.00 2.55 " transform="matrix(0.998939, 0, 0, -0.998939, 15.220119, 71.357205)"/>
<path fill="none" stroke-width="0.3985" stroke-linecap="butt" stroke-linejoin="miter" stroke="rgb(0%, 0%, 0%)" stroke-opacity="1" stroke-miterlimit="10" d="M 31.18 -2.55 L 31.18 2.55 " transform="matrix(0.998939, 0, 0, -0.998939, 15.220119, 71.357205)"/>
<path fill="none" stroke-width="0.3985" stroke-linecap="butt" stroke-linejoin="miter" stroke="rgb(0%, 0%, 0%)" stroke-opacity="1" stroke-miterlimit="10" d="M 62.36 -2.55 L 62.36 2.55 " transform="matrix(0.998939, 0, 0, -0.998939, 15.220119, 71.357205)"/>
<path fill="none" stroke-width="0.3985" stroke-linecap="butt" stroke-linejoin="miter" stroke="rgb(0%, 0%, 0%)" stroke-opacity="1" stroke-miterlimit="10" d="M 93.54 -2.55 L 93.54 2.55 " transform="matrix(0.998939, 0, 0, -0.998939, 15.220119, 71.357205)"/>
<path fill="none" stroke-width="0.3985" stroke-linecap="butt" stroke-linejoin="miter" stroke="rgb(0%, 0%, 0%)" stroke-opacity="1" stroke-miterlimit="10" d="M 124.72 -2.55 L 124.72 2.55 " transform="matrix(0.998939, 0, 0, -0.998939, 15.220119, 71.357205)"/>
<path fill="none" stroke-width="0.3985" stroke-linecap="butt" stroke-linejoin="miter" stroke="rgb(0%, 0%, 0%)" stroke-opacity="1" stroke-miterlimit="10" d="M 155.91 -2.55 L 155.91 2.55 " transform="matrix(0.998939, 0, 0, -0.998939, 15.220119, 71.357205)"/>
<path fill="none" stroke-width="0.3985" stroke-linecap="butt" stroke-linejoin="miter" stroke="rgb(0%, 0%, 0%)" stroke-opacity="1" stroke-miterlimit="10" d="M 187.09 -2.55 L 187.09 2.55 " transform="matrix(0.998939, 0, 0, -0.998939, 15.220119, 71.357205)"/>
<path fill="none" stroke-width="0.3985" stroke-linecap="butt" stroke-linejoin="miter" stroke="rgb(0%, 0%, 0%)" stroke-opacity="1" stroke-miterlimit="10" d="M 218.27 -2.55 L 218.27 2.55 " transform="matrix(0.998939, 0, 0, -0.998939, 15.220119, 71.357205)"/>
<g fill="rgb(0%, 0%, 0%)" fill-opacity="1">
<use xlink:href="#pc-dilution-ph--glyph-2-0" x="13.238224" y="82.565299"/>
</g>
<g fill="rgb(0%, 0%, 0%)" fill-opacity="1">
<use xlink:href="#pc-dilution-ph--glyph-2-1" x="122.257425" y="82.64921"/>
</g>
<g fill="rgb(0%, 0%, 0%)" fill-opacity="1">
<use xlink:href="#pc-dilution-ph--glyph-2-2" x="229.293731" y="82.635225"/>
<use xlink:href="#pc-dilution-ph--glyph-2-3" x="233.257641" y="82.635225"/>
</g>
<path fill="none" stroke-width="0.49814" stroke-linecap="butt" stroke-linejoin="miter" stroke="rgb(88.233948%, 21.569824%, 9.803772%)" stroke-opacity="1" stroke-miterlimit="10" d="M 31.18 0.00 L 31.18 32.60 " transform="matrix(0.998939, 0, 0, -0.998939, 15.220119, 71.357205)"/>
<path fill-rule="nonzero" fill="rgb(88.233948%, 21.569824%, 9.803772%)" fill-opacity="1" d="M 48.49 71.36 C 48.49 70.18 47.54 69.23 46.37 69.23 C 45.20 69.23 44.25 70.18 44.25 71.36 C 44.25 72.53 45.20 73.48 46.37 73.48 C 47.54 73.48 48.49 72.53 48.49 71.36 Z M 48.49 71.36 "/>
<path fill="none" stroke-width="0.69739" stroke-linecap="butt" stroke-linejoin="miter" stroke="rgb(0%, 0%, 0%)" stroke-opacity="1" stroke-miterlimit="10" d="M 31.18 -3.12 L 31.18 3.12 " transform="matrix(0.998939, 0, 0, -0.998939, 15.220119, 71.357205)"/>
<g fill="rgb(88.233948%, 21.569824%, 9.803772%)" fill-opacity="1">
<use xlink:href="#pc-dilution-ph--glyph-2-4" x="21.91301" y="27.856411"/>
<use xlink:href="#pc-dilution-ph--glyph-2-5" x="25.068812" y="27.856411"/>
<use xlink:href="#pc-dilution-ph--glyph-2-6" x="29.032722" y="27.856411"/>
<use xlink:href="#pc-dilution-ph--glyph-2-7" x="31.282886" y="27.856411"/>
<use xlink:href="#pc-dilution-ph--glyph-2-8" x="35.678716" y="27.856411"/>
<use xlink:href="#pc-dilution-ph--glyph-2-9" x="38.785753" y="27.856411"/>
<use xlink:href="#pc-dilution-ph--glyph-2-5" x="41.035916" y="27.856411"/>
<use xlink:href="#pc-dilution-ph--glyph-2-10" x="44.999826" y="27.856411"/>
</g>
<g fill="rgb(88.233948%, 21.569824%, 9.803772%)" fill-opacity="1">
<use xlink:href="#pc-dilution-ph--glyph-2-11" x="52.07774" y="27.856411"/>
</g>
<g fill="rgb(88.233948%, 21.569824%, 9.803772%)" fill-opacity="1">
<use xlink:href="#pc-dilution-ph--glyph-2-12" x="55.82569" y="27.856411"/>
</g>
<g fill="rgb(88.233948%, 21.569824%, 9.803772%)" fill-opacity="1">
<use xlink:href="#pc-dilution-ph--glyph-2-11" x="59.57364" y="27.856411"/>
<use xlink:href="#pc-dilution-ph--glyph-2-10" x="63.53755" y="27.856411"/>
</g>
<g fill="rgb(88.233948%, 21.569824%, 9.803772%)" fill-opacity="1">
<use xlink:href="#pc-dilution-ph--glyph-2-8" x="67.717421" y="27.856411"/>
</g>
<g fill="rgb(88.233948%, 21.569824%, 9.803772%)" fill-opacity="1">
<use xlink:href="#pc-dilution-ph--glyph-2-13" x="17.045181" y="35.818953"/>
<use xlink:href="#pc-dilution-ph--glyph-2-9" x="21.441011" y="35.818953"/>
<use xlink:href="#pc-dilution-ph--glyph-2-6" x="23.691174" y="35.818953"/>
<use xlink:href="#pc-dilution-ph--glyph-2-7" x="25.941338" y="35.818953"/>
<use xlink:href="#pc-dilution-ph--glyph-2-8" x="30.337168" y="35.818953"/>
<use xlink:href="#pc-dilution-ph--glyph-2-9" x="33.444205" y="35.818953"/>
<use xlink:href="#pc-dilution-ph--glyph-2-5" x="35.694368" y="35.818953"/>
<use xlink:href="#pc-dilution-ph--glyph-2-10" x="39.658278" y="35.818953"/>
</g>
<g fill="rgb(88.233948%, 21.569824%, 9.803772%)" fill-opacity="1">
<use xlink:href="#pc-dilution-ph--glyph-2-14" x="46.736192" y="35.818953"/>
</g>
<g fill="rgb(88.233948%, 21.569824%, 9.803772%)" fill-opacity="1">
<use xlink:href="#pc-dilution-ph--glyph-2-15" x="52.560144" y="35.818953"/>
<use xlink:href="#pc-dilution-ph--glyph-2-16" x="56.955974" y="35.818953"/>
</g>
<g fill="rgb(88.233948%, 21.569824%, 9.803772%)" fill-opacity="1">
<use xlink:href="#pc-dilution-ph--glyph-2-17" x="65.510775" y="35.818953"/>
<use xlink:href="#pc-dilution-ph--glyph-2-18" x="69.474685" y="35.818953"/>
<use xlink:href="#pc-dilution-ph--glyph-2-0" x="71.724849" y="35.818953"/>
</g>
<path fill="none" stroke-width="0.49814" stroke-linecap="butt" stroke-linejoin="miter" stroke="rgb(29.998779%, 29.998779%, 29.998779%)" stroke-opacity="1" stroke-miterlimit="10" d="M 109.13 0.00 L 109.13 32.60 " transform="matrix(0.998939, 0, 0, -0.998939, 15.220119, 71.357205)"/>
<path fill-rule="nonzero" fill="rgb(29.998779%, 29.998779%, 29.998779%)" fill-opacity="1" d="M 126.36 71.36 C 126.36 70.18 125.41 69.23 124.24 69.23 C 123.07 69.23 122.12 70.18 122.12 71.36 C 122.12 72.53 123.07 73.48 124.24 73.48 C 125.41 73.48 126.36 72.53 126.36 71.36 Z M 126.36 71.36 "/>
<path fill="none" stroke-width="0.69739" stroke-linecap="butt" stroke-linejoin="miter" stroke="rgb(0%, 0%, 0%)" stroke-opacity="1" stroke-miterlimit="10" d="M 109.13 -3.12 L 109.13 3.12 " transform="matrix(0.998939, 0, 0, -0.998939, 15.220119, 71.357205)"/>
<g fill="rgb(0%, 0%, 0%)" fill-opacity="1">
<use xlink:href="#pc-dilution-ph--glyph-2-19" x="103.580263" y="27.856411"/>
<use xlink:href="#pc-dilution-ph--glyph-2-11" x="107.11922" y="27.856411"/>
<use xlink:href="#pc-dilution-ph--glyph-2-7" x="111.08313" y="27.856411"/>
</g>
<g fill="rgb(0%, 0%, 0%)" fill-opacity="1">
<use xlink:href="#pc-dilution-ph--glyph-2-13" x="118.161044" y="27.856411"/>
<use xlink:href="#pc-dilution-ph--glyph-2-9" x="122.556874" y="27.856411"/>
<use xlink:href="#pc-dilution-ph--glyph-2-4" x="124.807037" y="27.856411"/>
<use xlink:href="#pc-dilution-ph--glyph-2-8" x="127.962839" y="27.856411"/>
<use xlink:href="#pc-dilution-ph--glyph-2-9" x="131.069876" y="27.856411"/>
<use xlink:href="#pc-dilution-ph--glyph-2-6" x="133.32004" y="27.856411"/>
<use xlink:href="#pc-dilution-ph--glyph-2-6" x="135.570203" y="27.856411"/>
<use xlink:href="#pc-dilution-ph--glyph-2-20" x="137.820367" y="27.856411"/>
<use xlink:href="#pc-dilution-ph--glyph-2-19" x="141.359323" y="27.856411"/>
</g>
<g fill="rgb(0%, 0%, 0%)" fill-opacity="1">
<use xlink:href="#pc-dilution-ph--glyph-2-15" x="112.674603" y="35.818953"/>
<use xlink:href="#pc-dilution-ph--glyph-2-16" x="117.070434" y="35.818953"/>
</g>
<g fill="rgb(0%, 0%, 0%)" fill-opacity="1">
<use xlink:href="#pc-dilution-ph--glyph-2-1" x="125.625235" y="35.818953"/>
<use xlink:href="#pc-dilution-ph--glyph-2-18" x="129.589145" y="35.818953"/>
<use xlink:href="#pc-dilution-ph--glyph-2-0" x="131.839308" y="35.818953"/>
</g>
<path fill="none" stroke-width="0.49814" stroke-linecap="butt" stroke-linejoin="miter" stroke="rgb(7.841492%, 58.822632%, 35.293579%)" stroke-opacity="1" stroke-miterlimit="10" d="M 46.77 0.00 L 46.77 14.74 " transform="matrix(0.998939, 0, 0, -0.998939, 15.220119, 71.357205)"/>
<path fill-rule="nonzero" fill="rgb(7.841492%, 58.822632%, 35.293579%)" fill-opacity="1" d="M 64.07 71.36 C 64.07 70.18 63.12 69.23 61.94 69.23 C 60.77 69.23 59.82 70.18 59.82 71.36 C 59.82 72.53 60.77 73.48 61.94 73.48 C 63.12 73.48 64.07 72.53 64.07 71.36 Z M 64.07 71.36 "/>
<path fill="none" stroke-width="0.69739" stroke-linecap="butt" stroke-linejoin="miter" stroke="rgb(0%, 0%, 0%)" stroke-opacity="1" stroke-miterlimit="10" d="M 46.77 -3.12 L 46.77 3.12 " transform="matrix(0.998939, 0, 0, -0.998939, 15.220119, 71.357205)"/>
<g fill="rgb(7.841492%, 58.822632%, 35.293579%)" fill-opacity="1">
<use xlink:href="#pc-dilution-ph--glyph-2-4" x="68.804202" y="54.407209"/>
<use xlink:href="#pc-dilution-ph--glyph-2-5" x="71.960004" y="54.407209"/>
<use xlink:href="#pc-dilution-ph--glyph-2-6" x="75.923915" y="54.407209"/>
<use xlink:href="#pc-dilution-ph--glyph-2-7" x="78.174078" y="54.407209"/>
<use xlink:href="#pc-dilution-ph--glyph-2-8" x="82.569908" y="54.407209"/>
<use xlink:href="#pc-dilution-ph--glyph-2-9" x="85.676945" y="54.407209"/>
<use xlink:href="#pc-dilution-ph--glyph-2-5" x="87.927108" y="54.407209"/>
<use xlink:href="#pc-dilution-ph--glyph-2-10" x="91.891019" y="54.407209"/>
</g>
<g fill="rgb(7.841492%, 58.822632%, 35.293579%)" fill-opacity="1">
<use xlink:href="#pc-dilution-ph--glyph-2-13" x="98.968932" y="54.407209"/>
<use xlink:href="#pc-dilution-ph--glyph-2-9" x="103.364762" y="54.407209"/>
<use xlink:href="#pc-dilution-ph--glyph-2-6" x="105.614926" y="54.407209"/>
<use xlink:href="#pc-dilution-ph--glyph-2-7" x="107.865089" y="54.407209"/>
<use xlink:href="#pc-dilution-ph--glyph-2-20" x="112.260919" y="54.407209"/>
<use xlink:href="#pc-dilution-ph--glyph-2-19" x="115.799876" y="54.407209"/>
</g>
<g fill="rgb(7.841492%, 58.822632%, 35.293579%)" fill-opacity="1">
<use xlink:href="#pc-dilution-ph--glyph-2-15" x="82.507647" y="62.368752"/>
<use xlink:href="#pc-dilution-ph--glyph-2-16" x="86.903477" y="62.368752"/>
</g>
<g fill="rgb(7.841492%, 58.822632%, 35.293579%)" fill-opacity="1">
<use xlink:href="#pc-dilution-ph--glyph-2-21" x="95.458278" y="62.368752"/>
<use xlink:href="#pc-dilution-ph--glyph-2-18" x="99.422188" y="62.368752"/>
<use xlink:href="#pc-dilution-ph--glyph-2-0" x="101.672351" y="62.368752"/>
</g>
<path fill="none" stroke-width="0.99628" stroke-linecap="butt" stroke-linejoin="miter" stroke="rgb(17.64679%, 29.412842%, 80.39093%)" stroke-opacity="1" stroke-miterlimit="10" d="M 31.18 -7.94 C 34.30 -17.58 43.65 -17.58 45.94 -10.52 " transform="matrix(0.998939, 0, 0, -0.998939, 15.220119, 71.357205)"/>
<path fill-rule="nonzero" fill="rgb(17.64679%, 29.412842%, 80.39093%)" fill-opacity="1" stroke-width="0.75653" stroke-linecap="butt" stroke-linejoin="miter" stroke="rgb(17.64679%, 29.412842%, 80.39093%)" stroke-opacity="1" stroke-miterlimit="10" d="M 3.41 -0.00 L 1.22 0.83 L 1.96 -0.00 L 1.22 -0.83 Z M 3.41 -0.00 " transform="matrix(0.307473, -0.95042, -0.95042, -0.307473, 60.564485, 83.546807)"/>
<g fill="rgb(17.64679%, 29.412842%, 80.39093%)" fill-opacity="1">
<use xlink:href="#pc-dilution-ph--glyph-3-0" x="68.804202" y="90.088309"/>
</g>
<g fill="rgb(17.64679%, 29.412842%, 80.39093%)" fill-opacity="1">
<use xlink:href="#pc-dilution-ph--glyph-2-19" x="77.595864" y="90.088309"/>
<use xlink:href="#pc-dilution-ph--glyph-2-11" x="81.134821" y="90.088309"/>
<use xlink:href="#pc-dilution-ph--glyph-2-7" x="85.098731" y="90.088309"/>
</g>
<path fill="none" stroke-width="0.69739" stroke-linecap="butt" stroke-linejoin="miter" stroke="rgb(43.136597%, 23.527527%, 70.588684%)" stroke-opacity="1" stroke-miterlimit="10" d="M 31.18 -28.92 C 31.78 -30.12 33.17 -30.91 35.16 -30.91 L 66.17 -30.91 C 68.16 -30.91 69.56 -31.71 70.16 -32.91 C 70.76 -31.71 72.15 -30.91 74.14 -30.91 L 105.15 -30.91 C 107.14 -30.91 108.54 -30.12 109.13 -28.92 " transform="matrix(0.998939, 0, 0, -0.998939, 15.220119, 71.357205)"/>
<g fill="rgb(43.136597%, 23.527527%, 70.588684%)" fill-opacity="1">
<use xlink:href="#pc-dilution-ph--glyph-2-6" x="25.778904" y="112.388621"/>
<use xlink:href="#pc-dilution-ph--glyph-2-19" x="28.029067" y="112.388621"/>
</g>
<g fill="rgb(43.136597%, 23.527527%, 70.588684%)" fill-opacity="1">
<use xlink:href="#pc-dilution-ph--glyph-2-15" x="34.250107" y="112.388621"/>
<use xlink:href="#pc-dilution-ph--glyph-2-16" x="38.645937" y="112.388621"/>
</g>
<g fill="rgb(43.136597%, 23.527527%, 70.588684%)" fill-opacity="1">
<use xlink:href="#pc-dilution-ph--glyph-2-11" x="47.200738" y="112.388621"/>
<use xlink:href="#pc-dilution-ph--glyph-2-7" x="51.164648" y="112.388621"/>
<use xlink:href="#pc-dilution-ph--glyph-2-22" x="55.560479" y="112.388621"/>
<use xlink:href="#pc-dilution-ph--glyph-2-23" x="59.524389" y="112.388621"/>
<use xlink:href="#pc-dilution-ph--glyph-2-19" x="66.065886" y="112.388621"/>
<use xlink:href="#pc-dilution-ph--glyph-2-10" x="69.604842" y="112.388621"/>
</g>
<g fill="rgb(43.136597%, 23.527527%, 70.588684%)" fill-opacity="1">
<use xlink:href="#pc-dilution-ph--glyph-2-8" x="73.784713" y="112.388621"/>
<use xlink:href="#pc-dilution-ph--glyph-2-19" x="76.891749" y="112.388621"/>
<use xlink:href="#pc-dilution-ph--glyph-2-18" x="80.430706" y="112.388621"/>
</g>
<g fill="rgb(43.136597%, 23.527527%, 70.588684%)" fill-opacity="1">
<use xlink:href="#pc-dilution-ph--glyph-2-4" x="85.362953" y="112.388621"/>
<use xlink:href="#pc-dilution-ph--glyph-2-11" x="88.518755" y="112.388621"/>
<use xlink:href="#pc-dilution-ph--glyph-2-10" x="92.482665" y="112.388621"/>
<use xlink:href="#pc-dilution-ph--glyph-2-4" x="96.878495" y="112.388621"/>
</g>
<g fill="rgb(43.136597%, 23.527527%, 70.588684%)" fill-opacity="1">
<use xlink:href="#pc-dilution-ph--glyph-2-13" x="102.71638" y="112.388621"/>
<use xlink:href="#pc-dilution-ph--glyph-2-20" x="107.112211" y="112.388621"/>
<use xlink:href="#pc-dilution-ph--glyph-2-15" x="110.651167" y="112.388621"/>
<use xlink:href="#pc-dilution-ph--glyph-2-11" x="115.046997" y="112.388621"/>
<use xlink:href="#pc-dilution-ph--glyph-2-4" x="119.010908" y="112.388621"/>
<use xlink:href="#pc-dilution-ph--glyph-2-4" x="122.16671" y="112.388621"/>
<use xlink:href="#pc-dilution-ph--glyph-2-19" x="125.322512" y="112.388621"/>
<use xlink:href="#pc-dilution-ph--glyph-2-24" x="128.861468" y="112.388621"/>
</g>
<g fill="rgb(43.136597%, 23.527527%, 70.588684%)" fill-opacity="1">
<use xlink:href="#pc-dilution-ph--glyph-2-1" x="134.650588" y="112.388621"/>
<use xlink:href="#pc-dilution-ph--glyph-2-18" x="138.614499" y="112.388621"/>
<use xlink:href="#pc-dilution-ph--glyph-2-0" x="140.864662" y="112.388621"/>
</g>
<g fill="rgb(0%, 0%, 0%)" fill-opacity="1">
<use xlink:href="#pc-dilution-ph--glyph-0-0" x="7.834964" y="127.41566"/>
<use xlink:href="#pc-dilution-ph--glyph-0-1" x="15.493084" y="127.41566"/>
<use xlink:href="#pc-dilution-ph--glyph-0-2" x="20.643282" y="127.41566"/>
</g>
<g fill="rgb(0%, 0%, 0%)" fill-opacity="1">
<use xlink:href="#pc-dilution-ph--glyph-0-14" x="28.355144" y="127.41566"/>
</g>
<g fill="rgb(0%, 0%, 0%)" fill-opacity="1">
<use xlink:href="#pc-dilution-ph--glyph-0-4" x="37.186614" y="127.41566"/>
</g>
<g fill="rgb(0%, 0%, 0%)" fill-opacity="1">
<use xlink:href="#pc-dilution-ph--glyph-0-5" x="44.835777" y="127.41566"/>
<use xlink:href="#pc-dilution-ph--glyph-0-6" x="50.138242" y="127.41566"/>
</g>
<g fill="rgb(0%, 0%, 0%)" fill-opacity="1">
<use xlink:href="#pc-dilution-ph--glyph-0-7" x="59.551908" y="127.41566"/>
<use xlink:href="#pc-dilution-ph--glyph-0-8" x="65.436569" y="127.41566"/>
<use xlink:href="#pc-dilution-ph--glyph-0-9" x="68.383378" y="127.41566"/>
<use xlink:href="#pc-dilution-ph--glyph-0-10" x="71.330187" y="127.41566"/>
<use xlink:href="#pc-dilution-ph--glyph-0-11" x="77.214848" y="127.41566"/>
</g>
<g fill="rgb(0%, 0%, 0%)" fill-opacity="1">
<use xlink:href="#pc-dilution-ph--glyph-0-10" x="85.607432" y="127.41566"/>
<use xlink:href="#pc-dilution-ph--glyph-0-6" x="91.492093" y="127.41566"/>
<use xlink:href="#pc-dilution-ph--glyph-0-11" x="97.376754" y="127.41566"/>
</g>
<g fill="rgb(0%, 0%, 0%)" fill-opacity="1">
<use xlink:href="#pc-dilution-ph--glyph-0-2" x="105.769337" y="127.41566"/>
<use xlink:href="#pc-dilution-ph--glyph-0-5" x="109.952194" y="127.41566"/>
<use xlink:href="#pc-dilution-ph--glyph-0-9" x="115.254658" y="127.41566"/>
<use xlink:href="#pc-dilution-ph--glyph-0-10" x="118.201467" y="127.41566"/>
<use xlink:href="#pc-dilution-ph--glyph-0-12" x="124.086128" y="127.41566"/>
<use xlink:href="#pc-dilution-ph--glyph-0-8" x="128.206287" y="127.41566"/>
<use xlink:href="#pc-dilution-ph--glyph-0-5" x="131.153096" y="127.41566"/>
<use xlink:href="#pc-dilution-ph--glyph-0-6" x="136.45556" y="127.41566"/>
</g>
<g fill="rgb(17.64679%, 29.412842%, 80.39093%)" fill-opacity="1">
<use xlink:href="#pc-dilution-ph--glyph-0-15" x="145.872341" y="127.41566"/>
<use xlink:href="#pc-dilution-ph--glyph-0-1" x="151.757002" y="127.41566"/>
<use xlink:href="#pc-dilution-ph--glyph-0-2" x="156.9072" y="127.41566"/>
<use xlink:href="#pc-dilution-ph--glyph-0-8" x="161.090056" y="127.41566"/>
<use xlink:href="#pc-dilution-ph--glyph-0-16" x="164.036865" y="127.41566"/>
<use xlink:href="#pc-dilution-ph--glyph-0-10" x="169.634907" y="127.41566"/>
<use xlink:href="#pc-dilution-ph--glyph-0-11" x="175.519568" y="127.41566"/>
</g>
<path fill="none" stroke-width="0.59776" stroke-linecap="butt" stroke-linejoin="miter" stroke="rgb(0%, 0%, 0%)" stroke-opacity="1" stroke-miterlimit="10" d="M -10.92 -114.80 L 229.19 -114.80 " transform="matrix(0.998939, 0, 0, -0.998939, 15.220119, 71.357205)"/>
<path fill-rule="nonzero" fill="rgb(0%, 0%, 0%)" fill-opacity="1" stroke-width="0.59776" stroke-linecap="butt" stroke-linejoin="miter" stroke="rgb(0%, 0%, 0%)" stroke-opacity="1" stroke-miterlimit="10" d="M 4.13 0.00 L 0.97 1.20 L 2.01 0.00 L 0.97 -1.20 Z M 4.13 0.00 " transform="matrix(0.998939, 0, 0, -0.998939, 242.300785, 186.040029)"/>
<g fill="rgb(0%, 0%, 0%)" fill-opacity="1">
<use xlink:href="#pc-dilution-ph--glyph-1-0" x="250.558144" y="188.228065"/>
<use xlink:href="#pc-dilution-ph--glyph-1-1" x="255.672515" y="188.228065"/>
</g>
<path fill="none" stroke-width="0.3985" stroke-linecap="butt" stroke-linejoin="miter" stroke="rgb(0%, 0%, 0%)" stroke-opacity="1" stroke-miterlimit="10" d="M -0.00 -117.36 L -0.00 -112.25 " transform="matrix(0.998939, 0, 0, -0.998939, 15.220119, 71.357205)"/>
<path fill="none" stroke-width="0.3985" stroke-linecap="butt" stroke-linejoin="miter" stroke="rgb(0%, 0%, 0%)" stroke-opacity="1" stroke-miterlimit="10" d="M 31.18 -117.36 L 31.18 -112.25 " transform="matrix(0.998939, 0, 0, -0.998939, 15.220119, 71.357205)"/>
<path fill="none" stroke-width="0.3985" stroke-linecap="butt" stroke-linejoin="miter" stroke="rgb(0%, 0%, 0%)" stroke-opacity="1" stroke-miterlimit="10" d="M 62.36 -117.36 L 62.36 -112.25 " transform="matrix(0.998939, 0, 0, -0.998939, 15.220119, 71.357205)"/>
<path fill="none" stroke-width="0.3985" stroke-linecap="butt" stroke-linejoin="miter" stroke="rgb(0%, 0%, 0%)" stroke-opacity="1" stroke-miterlimit="10" d="M 93.54 -117.36 L 93.54 -112.25 " transform="matrix(0.998939, 0, 0, -0.998939, 15.220119, 71.357205)"/>
<path fill="none" stroke-width="0.3985" stroke-linecap="butt" stroke-linejoin="miter" stroke="rgb(0%, 0%, 0%)" stroke-opacity="1" stroke-miterlimit="10" d="M 124.72 -117.36 L 124.72 -112.25 " transform="matrix(0.998939, 0, 0, -0.998939, 15.220119, 71.357205)"/>
<path fill="none" stroke-width="0.3985" stroke-linecap="butt" stroke-linejoin="miter" stroke="rgb(0%, 0%, 0%)" stroke-opacity="1" stroke-miterlimit="10" d="M 155.91 -117.36 L 155.91 -112.25 " transform="matrix(0.998939, 0, 0, -0.998939, 15.220119, 71.357205)"/>
<path fill="none" stroke-width="0.3985" stroke-linecap="butt" stroke-linejoin="miter" stroke="rgb(0%, 0%, 0%)" stroke-opacity="1" stroke-miterlimit="10" d="M 187.09 -117.36 L 187.09 -112.25 " transform="matrix(0.998939, 0, 0, -0.998939, 15.220119, 71.357205)"/>
<path fill="none" stroke-width="0.3985" stroke-linecap="butt" stroke-linejoin="miter" stroke="rgb(0%, 0%, 0%)" stroke-opacity="1" stroke-miterlimit="10" d="M 218.27 -117.36 L 218.27 -112.25 " transform="matrix(0.998939, 0, 0, -0.998939, 15.220119, 71.357205)"/>
<g fill="rgb(0%, 0%, 0%)" fill-opacity="1">
<use xlink:href="#pc-dilution-ph--glyph-2-0" x="13.238224" y="197.246486"/>
</g>
<g fill="rgb(0%, 0%, 0%)" fill-opacity="1">
<use xlink:href="#pc-dilution-ph--glyph-2-1" x="122.257425" y="197.330396"/>
</g>
<g fill="rgb(0%, 0%, 0%)" fill-opacity="1">
<use xlink:href="#pc-dilution-ph--glyph-2-2" x="229.293731" y="197.316411"/>
<use xlink:href="#pc-dilution-ph--glyph-2-3" x="233.257641" y="197.316411"/>
</g>
<path fill="none" stroke-width="0.49814" stroke-linecap="butt" stroke-linejoin="miter" stroke="rgb(88.233948%, 21.569824%, 9.803772%)" stroke-opacity="1" stroke-miterlimit="10" d="M 187.09 -114.80 L 187.09 -82.21 " transform="matrix(0.998939, 0, 0, -0.998939, 15.220119, 71.357205)"/>
<path fill-rule="nonzero" fill="rgb(88.233948%, 21.569824%, 9.803772%)" fill-opacity="1" d="M 204.23 186.04 C 204.23 184.87 203.29 183.92 202.11 183.92 C 200.94 183.92 199.99 184.87 199.99 186.04 C 199.99 187.21 200.94 188.16 202.11 188.16 C 203.29 188.16 204.23 187.21 204.23 186.04 Z M 204.23 186.04 "/>
<path fill="none" stroke-width="0.69739" stroke-linecap="butt" stroke-linejoin="miter" stroke="rgb(0%, 0%, 0%)" stroke-opacity="1" stroke-miterlimit="10" d="M 187.09 -117.92 L 187.09 -111.69 " transform="matrix(0.998939, 0, 0, -0.998939, 15.220119, 71.357205)"/>
<g fill="rgb(88.233948%, 21.569824%, 9.803772%)" fill-opacity="1">
<use xlink:href="#pc-dilution-ph--glyph-2-4" x="177.653583" y="142.538596"/>
<use xlink:href="#pc-dilution-ph--glyph-2-5" x="180.809385" y="142.538596"/>
<use xlink:href="#pc-dilution-ph--glyph-2-6" x="184.773295" y="142.538596"/>
<use xlink:href="#pc-dilution-ph--glyph-2-7" x="187.023459" y="142.538596"/>
<use xlink:href="#pc-dilution-ph--glyph-2-8" x="191.419289" y="142.538596"/>
<use xlink:href="#pc-dilution-ph--glyph-2-9" x="194.526326" y="142.538596"/>
<use xlink:href="#pc-dilution-ph--glyph-2-5" x="196.776489" y="142.538596"/>
<use xlink:href="#pc-dilution-ph--glyph-2-10" x="200.740399" y="142.538596"/>
</g>
<g fill="rgb(88.233948%, 21.569824%, 9.803772%)" fill-opacity="1">
<use xlink:href="#pc-dilution-ph--glyph-2-11" x="207.818313" y="142.538596"/>
</g>
<g fill="rgb(88.233948%, 21.569824%, 9.803772%)" fill-opacity="1">
<use xlink:href="#pc-dilution-ph--glyph-2-12" x="211.566263" y="142.538596"/>
</g>
<g fill="rgb(88.233948%, 21.569824%, 9.803772%)" fill-opacity="1">
<use xlink:href="#pc-dilution-ph--glyph-2-11" x="215.314213" y="142.538596"/>
<use xlink:href="#pc-dilution-ph--glyph-2-10" x="219.278123" y="142.538596"/>
</g>
<g fill="rgb(88.233948%, 21.569824%, 9.803772%)" fill-opacity="1">
<use xlink:href="#pc-dilution-ph--glyph-2-8" x="223.457994" y="142.538596"/>
</g>
<g fill="rgb(88.233948%, 21.569824%, 9.803772%)" fill-opacity="1">
<use xlink:href="#pc-dilution-ph--glyph-2-13" x="170.804858" y="150.500139"/>
<use xlink:href="#pc-dilution-ph--glyph-2-9" x="175.200688" y="150.500139"/>
<use xlink:href="#pc-dilution-ph--glyph-2-6" x="177.450851" y="150.500139"/>
<use xlink:href="#pc-dilution-ph--glyph-2-7" x="179.701015" y="150.500139"/>
<use xlink:href="#pc-dilution-ph--glyph-2-8" x="184.096845" y="150.500139"/>
<use xlink:href="#pc-dilution-ph--glyph-2-9" x="187.203882" y="150.500139"/>
<use xlink:href="#pc-dilution-ph--glyph-2-5" x="189.454045" y="150.500139"/>
<use xlink:href="#pc-dilution-ph--glyph-2-10" x="193.417955" y="150.500139"/>
</g>
<g fill="rgb(88.233948%, 21.569824%, 9.803772%)" fill-opacity="1">
<use xlink:href="#pc-dilution-ph--glyph-2-14" x="200.495869" y="150.500139"/>
</g>
<g fill="rgb(88.233948%, 21.569824%, 9.803772%)" fill-opacity="1">
<use xlink:href="#pc-dilution-ph--glyph-2-15" x="206.319821" y="150.500139"/>
<use xlink:href="#pc-dilution-ph--glyph-2-16" x="210.715651" y="150.500139"/>
</g>
<g fill="rgb(88.233948%, 21.569824%, 9.803772%)" fill-opacity="1">
<use xlink:href="#pc-dilution-ph--glyph-2-2" x="219.270452" y="150.500139"/>
<use xlink:href="#pc-dilution-ph--glyph-2-17" x="223.234362" y="150.500139"/>
<use xlink:href="#pc-dilution-ph--glyph-2-18" x="227.198273" y="150.500139"/>
<use xlink:href="#pc-dilution-ph--glyph-2-0" x="229.448436" y="150.500139"/>
</g>
<path fill="none" stroke-width="0.49814" stroke-linecap="butt" stroke-linejoin="miter" stroke="rgb(29.998779%, 29.998779%, 29.998779%)" stroke-opacity="1" stroke-miterlimit="10" d="M 109.13 -114.80 L 109.13 -82.21 " transform="matrix(0.998939, 0, 0, -0.998939, 15.220119, 71.357205)"/>
<path fill-rule="nonzero" fill="rgb(29.998779%, 29.998779%, 29.998779%)" fill-opacity="1" d="M 126.36 186.04 C 126.36 184.87 125.41 183.92 124.24 183.92 C 123.07 183.92 122.12 184.87 122.12 186.04 C 122.12 187.21 123.07 188.16 124.24 188.16 C 125.41 188.16 126.36 187.21 126.36 186.04 Z M 126.36 186.04 "/>
<path fill="none" stroke-width="0.69739" stroke-linecap="butt" stroke-linejoin="miter" stroke="rgb(0%, 0%, 0%)" stroke-opacity="1" stroke-miterlimit="10" d="M 109.13 -117.92 L 109.13 -111.69 " transform="matrix(0.998939, 0, 0, -0.998939, 15.220119, 71.357205)"/>
<g fill="rgb(0%, 0%, 0%)" fill-opacity="1">
<use xlink:href="#pc-dilution-ph--glyph-2-19" x="103.580263" y="142.538596"/>
<use xlink:href="#pc-dilution-ph--glyph-2-11" x="107.11922" y="142.538596"/>
<use xlink:href="#pc-dilution-ph--glyph-2-7" x="111.08313" y="142.538596"/>
</g>
<g fill="rgb(0%, 0%, 0%)" fill-opacity="1">
<use xlink:href="#pc-dilution-ph--glyph-2-13" x="118.161044" y="142.538596"/>
<use xlink:href="#pc-dilution-ph--glyph-2-9" x="122.556874" y="142.538596"/>
<use xlink:href="#pc-dilution-ph--glyph-2-4" x="124.807037" y="142.538596"/>
<use xlink:href="#pc-dilution-ph--glyph-2-8" x="127.962839" y="142.538596"/>
<use xlink:href="#pc-dilution-ph--glyph-2-9" x="131.069876" y="142.538596"/>
<use xlink:href="#pc-dilution-ph--glyph-2-6" x="133.32004" y="142.538596"/>
<use xlink:href="#pc-dilution-ph--glyph-2-6" x="135.570203" y="142.538596"/>
<use xlink:href="#pc-dilution-ph--glyph-2-20" x="137.820367" y="142.538596"/>
<use xlink:href="#pc-dilution-ph--glyph-2-19" x="141.359323" y="142.538596"/>
</g>
<g fill="rgb(0%, 0%, 0%)" fill-opacity="1">
<use xlink:href="#pc-dilution-ph--glyph-2-15" x="112.674603" y="150.500139"/>
<use xlink:href="#pc-dilution-ph--glyph-2-16" x="117.070434" y="150.500139"/>
</g>
<g fill="rgb(0%, 0%, 0%)" fill-opacity="1">
<use xlink:href="#pc-dilution-ph--glyph-2-1" x="125.625235" y="150.500139"/>
<use xlink:href="#pc-dilution-ph--glyph-2-18" x="129.589145" y="150.500139"/>
<use xlink:href="#pc-dilution-ph--glyph-2-0" x="131.839308" y="150.500139"/>
</g>
<path fill="none" stroke-width="0.49814" stroke-linecap="butt" stroke-linejoin="miter" stroke="rgb(7.841492%, 58.822632%, 35.293579%)" stroke-opacity="1" stroke-miterlimit="10" d="M 171.50 -114.80 L 171.50 -100.07 " transform="matrix(0.998939, 0, 0, -0.998939, 15.220119, 71.357205)"/>
<path fill-rule="nonzero" fill="rgb(7.841492%, 58.822632%, 35.293579%)" fill-opacity="1" d="M 188.66 186.04 C 188.66 184.87 187.71 183.92 186.54 183.92 C 185.36 183.92 184.41 184.87 184.41 186.04 C 184.41 187.21 185.36 188.16 186.54 188.16 C 187.71 188.16 188.66 187.21 188.66 186.04 Z M 188.66 186.04 "/>
<path fill="none" stroke-width="0.69739" stroke-linecap="butt" stroke-linejoin="miter" stroke="rgb(0%, 0%, 0%)" stroke-opacity="1" stroke-miterlimit="10" d="M 171.50 -117.92 L 171.50 -111.69 " transform="matrix(0.998939, 0, 0, -0.998939, 15.220119, 71.357205)"/>
<g fill="rgb(7.841492%, 58.822632%, 35.293579%)" fill-opacity="1">
<use xlink:href="#pc-dilution-ph--glyph-2-4" x="129.139115" y="169.088395"/>
<use xlink:href="#pc-dilution-ph--glyph-2-5" x="132.294917" y="169.088395"/>
<use xlink:href="#pc-dilution-ph--glyph-2-6" x="136.258827" y="169.088395"/>
<use xlink:href="#pc-dilution-ph--glyph-2-7" x="138.508991" y="169.088395"/>
<use xlink:href="#pc-dilution-ph--glyph-2-8" x="142.904821" y="169.088395"/>
<use xlink:href="#pc-dilution-ph--glyph-2-9" x="146.011857" y="169.088395"/>
<use xlink:href="#pc-dilution-ph--glyph-2-5" x="148.262021" y="169.088395"/>
<use xlink:href="#pc-dilution-ph--glyph-2-10" x="152.225931" y="169.088395"/>
</g>
<g fill="rgb(7.841492%, 58.822632%, 35.293579%)" fill-opacity="1">
<use xlink:href="#pc-dilution-ph--glyph-2-13" x="159.303845" y="169.088395"/>
<use xlink:href="#pc-dilution-ph--glyph-2-9" x="163.699675" y="169.088395"/>
<use xlink:href="#pc-dilution-ph--glyph-2-6" x="165.949838" y="169.088395"/>
<use xlink:href="#pc-dilution-ph--glyph-2-7" x="168.200002" y="169.088395"/>
<use xlink:href="#pc-dilution-ph--glyph-2-20" x="172.595832" y="169.088395"/>
<use xlink:href="#pc-dilution-ph--glyph-2-19" x="176.134788" y="169.088395"/>
</g>
<g fill="rgb(7.841492%, 58.822632%, 35.293579%)" fill-opacity="1">
<use xlink:href="#pc-dilution-ph--glyph-2-15" x="140.859665" y="177.049938"/>
<use xlink:href="#pc-dilution-ph--glyph-2-16" x="145.255496" y="177.049938"/>
</g>
<g fill="rgb(7.841492%, 58.822632%, 35.293579%)" fill-opacity="1">
<use xlink:href="#pc-dilution-ph--glyph-2-2" x="153.810296" y="177.049938"/>
<use xlink:href="#pc-dilution-ph--glyph-2-2" x="157.774207" y="177.049938"/>
<use xlink:href="#pc-dilution-ph--glyph-2-18" x="161.738117" y="177.049938"/>
<use xlink:href="#pc-dilution-ph--glyph-2-0" x="163.98828" y="177.049938"/>
</g>
<path fill="none" stroke-width="0.99628" stroke-linecap="butt" stroke-linejoin="miter" stroke="rgb(17.64679%, 29.412842%, 80.39093%)" stroke-opacity="1" stroke-miterlimit="10" d="M 187.09 -122.74 C 183.97 -132.38 174.62 -132.38 172.33 -125.33 " transform="matrix(0.998939, 0, 0, -0.998939, 15.220119, 71.357205)"/>
<path fill-rule="nonzero" fill="rgb(17.64679%, 29.412842%, 80.39093%)" fill-opacity="1" stroke-width="0.75653" stroke-linecap="butt" stroke-linejoin="miter" stroke="rgb(17.64679%, 29.412842%, 80.39093%)" stroke-opacity="1" stroke-miterlimit="10" d="M 3.41 0.00 L 1.22 0.83 L 1.96 0.00 L 1.22 -0.83 Z M 3.41 0.00 " transform="matrix(-0.307473, -0.95042, -0.95042, 0.307473, 187.915743, 198.229641)"/>
<g fill="rgb(17.64679%, 29.412842%, 80.39093%)" fill-opacity="1">
<use xlink:href="#pc-dilution-ph--glyph-3-0" x="158.983414" y="204.770494"/>
</g>
<g fill="rgb(17.64679%, 29.412842%, 80.39093%)" fill-opacity="1">
<use xlink:href="#pc-dilution-ph--glyph-2-19" x="167.775076" y="204.770494"/>
<use xlink:href="#pc-dilution-ph--glyph-2-11" x="171.314033" y="204.770494"/>
<use xlink:href="#pc-dilution-ph--glyph-2-7" x="175.277943" y="204.770494"/>
</g>
<path fill="none" stroke-width="0.69739" stroke-linecap="butt" stroke-linejoin="miter" stroke="rgb(43.136597%, 23.527527%, 70.588684%)" stroke-opacity="1" stroke-miterlimit="10" d="M 109.13 -143.72 C 109.73 -144.92 111.13 -145.72 113.12 -145.72 L 144.13 -145.72 C 146.12 -145.72 147.51 -146.52 148.11 -147.71 C 148.71 -146.52 150.11 -145.72 152.10 -145.72 L 183.10 -145.72 C 185.10 -145.72 186.49 -144.92 187.09 -143.72 " transform="matrix(0.998939, 0, 0, -0.998939, 15.220119, 71.357205)"/>
<g fill="rgb(43.136597%, 23.527527%, 70.588684%)" fill-opacity="1">
<use xlink:href="#pc-dilution-ph--glyph-2-6" x="95.634703" y="227.041837"/>
<use xlink:href="#pc-dilution-ph--glyph-2-19" x="97.884867" y="227.041837"/>
</g>
<g fill="rgb(43.136597%, 23.527527%, 70.588684%)" fill-opacity="1">
<use xlink:href="#pc-dilution-ph--glyph-2-15" x="104.105907" y="227.041837"/>
<use xlink:href="#pc-dilution-ph--glyph-2-16" x="108.501737" y="227.041837"/>
</g>
<g fill="rgb(43.136597%, 23.527527%, 70.588684%)" fill-opacity="1">
<use xlink:href="#pc-dilution-ph--glyph-2-13" x="117.056538" y="227.041837"/>
<use xlink:href="#pc-dilution-ph--glyph-2-9" x="121.452368" y="227.041837"/>
<use xlink:href="#pc-dilution-ph--glyph-2-23" x="123.702531" y="227.041837"/>
<use xlink:href="#pc-dilution-ph--glyph-2-9" x="130.244028" y="227.041837"/>
<use xlink:href="#pc-dilution-ph--glyph-2-10" x="132.494192" y="227.041837"/>
</g>
<g fill="rgb(43.136597%, 23.527527%, 70.588684%)" fill-opacity="1">
<use xlink:href="#pc-dilution-ph--glyph-2-7" x="136.674062" y="227.041837"/>
<use xlink:href="#pc-dilution-ph--glyph-2-19" x="141.069892" y="227.041837"/>
<use xlink:href="#pc-dilution-ph--glyph-2-18" x="144.608849" y="227.041837"/>
</g>
<g fill="rgb(43.136597%, 23.527527%, 70.588684%)" fill-opacity="1">
<use xlink:href="#pc-dilution-ph--glyph-2-4" x="149.541095" y="227.041837"/>
<use xlink:href="#pc-dilution-ph--glyph-2-11" x="152.696897" y="227.041837"/>
<use xlink:href="#pc-dilution-ph--glyph-2-10" x="156.660808" y="227.041837"/>
<use xlink:href="#pc-dilution-ph--glyph-2-4" x="161.056638" y="227.041837"/>
</g>
<g fill="rgb(43.136597%, 23.527527%, 70.588684%)" fill-opacity="1">
<use xlink:href="#pc-dilution-ph--glyph-2-13" x="166.894523" y="227.041837"/>
<use xlink:href="#pc-dilution-ph--glyph-2-19" x="171.290353" y="227.041837"/>
<use xlink:href="#pc-dilution-ph--glyph-2-4" x="174.82931" y="227.041837"/>
<use xlink:href="#pc-dilution-ph--glyph-2-25" x="177.985112" y="227.041837"/>
<use xlink:href="#pc-dilution-ph--glyph-2-19" x="181.524069" y="227.041837"/>
<use xlink:href="#pc-dilution-ph--glyph-2-10" x="185.063025" y="227.041837"/>
<use xlink:href="#pc-dilution-ph--glyph-2-13" x="189.458855" y="227.041837"/>
<use xlink:href="#pc-dilution-ph--glyph-2-24" x="193.854685" y="227.041837"/>
<use xlink:href="#pc-dilution-ph--glyph-2-19" x="196.961722" y="227.041837"/>
</g>
<g fill="rgb(43.136597%, 23.527527%, 70.588684%)" fill-opacity="1">
<use xlink:href="#pc-dilution-ph--glyph-2-4" x="203.182762" y="227.041837"/>
<use xlink:href="#pc-dilution-ph--glyph-2-5" x="206.338564" y="227.041837"/>
<use xlink:href="#pc-dilution-ph--glyph-2-7" x="210.302475" y="227.041837"/>
<use xlink:href="#pc-dilution-ph--glyph-2-4" x="214.698305" y="227.041837"/>
</g>
<g fill="rgb(43.136597%, 23.527527%, 70.588684%)" fill-opacity="1">
<use xlink:href="#pc-dilution-ph--glyph-2-1" x="220.53619" y="227.041837"/>
<use xlink:href="#pc-dilution-ph--glyph-2-18" x="224.5001" y="227.041837"/>
<use xlink:href="#pc-dilution-ph--glyph-2-0" x="226.750264" y="227.041837"/>
</g>
<path fill-rule="nonzero" fill="rgb(96.998596%, 96.998596%, 96.998596%)" fill-opacity="1" d="M 237.25 228.18 L 14.35 228.18 C 13.25 228.18 12.36 229.07 12.36 230.17 L 12.36 255.18 C 12.36 256.28 13.25 257.17 14.35 257.17 L 237.25 257.17 C 238.35 257.17 239.24 256.28 239.24 255.18 L 239.24 230.17 C 239.24 229.07 238.35 228.18 237.25 228.18 Z M 237.25 228.18 "/>
<g clip-path="url(#pc-dilution-ph--clip-0)">
<path fill="none" stroke-width="0.59776" stroke-linecap="butt" stroke-linejoin="miter" stroke="rgb(0%, 0%, 0%)" stroke-opacity="1" stroke-miterlimit="10" d="M 222.26 -156.99 L -0.87 -156.99 C -1.98 -156.99 -2.87 -157.88 -2.87 -158.98 L -2.87 -184.01 C -2.87 -185.12 -1.98 -186.01 -0.87 -186.01 L 222.26 -186.01 C 223.36 -186.01 224.26 -185.12 224.26 -184.01 L 224.26 -158.98 C 224.26 -157.88 223.36 -156.99 222.26 -156.99 Z M 222.26 -156.99 " transform="matrix(0.998939, 0, 0, -0.998939, 15.220119, 71.357205)"/>
</g>
<g fill="rgb(0%, 0%, 0%)" fill-opacity="1">
<use xlink:href="#pc-dilution-ph--glyph-1-2" x="17.332875" y="239.405704"/>
<use xlink:href="#pc-dilution-ph--glyph-1-3" x="23.083183" y="239.405704"/>
</g>
<g fill="rgb(0%, 0%, 0%)" fill-opacity="1">
<use xlink:href="#pc-dilution-ph--glyph-1-4" x="30.759217" y="239.405704"/>
<use xlink:href="#pc-dilution-ph--glyph-1-5" x="35.873588" y="239.405704"/>
<use xlink:href="#pc-dilution-ph--glyph-1-6" x="38.435251" y="239.405704"/>
<use xlink:href="#pc-dilution-ph--glyph-1-7" x="40.996915" y="239.405704"/>
<use xlink:href="#pc-dilution-ph--glyph-1-8" x="46.111286" y="239.405704"/>
<use xlink:href="#pc-dilution-ph--glyph-1-5" x="49.694032" y="239.405704"/>
<use xlink:href="#pc-dilution-ph--glyph-1-9" x="52.255696" y="239.405704"/>
<use xlink:href="#pc-dilution-ph--glyph-1-10" x="56.859525" y="239.405704"/>
</g>
<g fill="rgb(0%, 0%, 0%)" fill-opacity="1">
<use xlink:href="#pc-dilution-ph--glyph-1-11" x="65.046101" y="239.405704"/>
<use xlink:href="#pc-dilution-ph--glyph-1-3" x="68.646761" y="239.405704"/>
<use xlink:href="#pc-dilution-ph--glyph-1-0" x="73.25059" y="239.405704"/>
<use xlink:href="#pc-dilution-ph--glyph-1-0" x="78.36496" y="239.405704"/>
<use xlink:href="#pc-dilution-ph--glyph-1-11" x="83.479331" y="239.405704"/>
<use xlink:href="#pc-dilution-ph--glyph-1-9" x="87.079991" y="239.405704"/>
</g>
<g fill="rgb(0%, 0%, 0%)" fill-opacity="1">
<use xlink:href="#pc-dilution-ph--glyph-1-12" x="91.943569" y="239.405704"/>
</g>
<g fill="rgb(0%, 0%, 0%)" fill-opacity="1">
<use xlink:href="#pc-dilution-ph--glyph-1-13" x="95.777108" y="239.405704"/>
<use xlink:href="#pc-dilution-ph--glyph-1-14" x="100.891478" y="239.405704"/>
</g>
<g fill="rgb(0%, 0%, 0%)" fill-opacity="1">
<use xlink:href="#pc-dilution-ph--glyph-1-6" x="108.056971" y="239.405704"/>
<use xlink:href="#pc-dilution-ph--glyph-1-14" x="110.618635" y="239.405704"/>
</g>
<g fill="rgb(0%, 0%, 0%)" fill-opacity="1">
<use xlink:href="#pc-dilution-ph--glyph-1-0" x="117.784128" y="239.405704"/>
<use xlink:href="#pc-dilution-ph--glyph-1-1" x="122.898498" y="239.405704"/>
</g>
<g fill="rgb(0%, 0%, 0%)" fill-opacity="1">
<use xlink:href="#pc-dilution-ph--glyph-1-4" x="132.876447" y="239.405704"/>
<use xlink:href="#pc-dilution-ph--glyph-1-14" x="137.990818" y="239.405704"/>
</g>
<g fill="rgb(0%, 0%, 0%)" fill-opacity="1">
<use xlink:href="#pc-dilution-ph--glyph-1-12" x="145.156311" y="239.405704"/>
<use xlink:href="#pc-dilution-ph--glyph-1-14" x="149.249598" y="239.405704"/>
<use xlink:href="#pc-dilution-ph--glyph-1-6" x="153.342886" y="239.405704"/>
<use xlink:href="#pc-dilution-ph--glyph-1-7" x="155.90455" y="239.405704"/>
<use xlink:href="#pc-dilution-ph--glyph-1-5" x="161.01892" y="239.405704"/>
</g>
<g fill="rgb(0%, 0%, 0%)" fill-opacity="1">
<use xlink:href="#pc-dilution-ph--glyph-1-4" x="166.652789" y="239.405704"/>
<use xlink:href="#pc-dilution-ph--glyph-1-14" x="171.76716" y="239.405704"/>
</g>
<g fill="rgb(0%, 0%, 0%)" fill-opacity="1">
<use xlink:href="#pc-dilution-ph--glyph-1-6" x="178.932652" y="239.405704"/>
<use xlink:href="#pc-dilution-ph--glyph-1-15" x="181.494316" y="239.405704"/>
<use xlink:href="#pc-dilution-ph--glyph-1-14" x="184.05598" y="239.405704"/>
<use xlink:href="#pc-dilution-ph--glyph-1-3" x="188.149268" y="239.405704"/>
<use xlink:href="#pc-dilution-ph--glyph-1-7" x="192.753097" y="239.405704"/>
</g>
<g fill="rgb(0%, 0%, 0%)" fill-opacity="1">
<use xlink:href="#pc-dilution-ph--glyph-1-4" x="200.939672" y="239.405704"/>
<use xlink:href="#pc-dilution-ph--glyph-1-5" x="206.054043" y="239.405704"/>
<use xlink:href="#pc-dilution-ph--glyph-1-16" x="208.615707" y="239.405704"/>
<use xlink:href="#pc-dilution-ph--glyph-1-8" x="212.243237" y="239.405704"/>
<use xlink:href="#pc-dilution-ph--glyph-1-5" x="215.825984" y="239.405704"/>
<use xlink:href="#pc-dilution-ph--glyph-1-6" x="218.387647" y="239.405704"/>
<use xlink:href="#pc-dilution-ph--glyph-1-6" x="220.949311" y="239.405704"/>
<use xlink:href="#pc-dilution-ph--glyph-1-17" x="223.510975" y="239.405704"/>
<use xlink:href="#pc-dilution-ph--glyph-1-14" x="227.604263" y="239.405704"/>
<use xlink:href="#pc-dilution-ph--glyph-1-18" x="231.69755" y="239.405704"/>
</g>
<g fill="rgb(0%, 0%, 0%)" fill-opacity="1">
<use xlink:href="#pc-dilution-ph--glyph-1-16" x="78.217204" y="250.353076"/>
<use xlink:href="#pc-dilution-ph--glyph-1-3" x="81.844735" y="250.353076"/>
<use xlink:href="#pc-dilution-ph--glyph-1-10" x="86.448564" y="250.353076"/>
<use xlink:href="#pc-dilution-ph--glyph-1-16" x="91.562934" y="250.353076"/>
</g>
<g fill="rgb(0%, 0%, 0%)" fill-opacity="1">
<use xlink:href="#pc-dilution-ph--glyph-1-19" x="98.26267" y="250.353076"/>
<use xlink:href="#pc-dilution-ph--glyph-1-3" x="101.075126" y="250.353076"/>
<use xlink:href="#pc-dilution-ph--glyph-1-20" x="105.678955" y="250.353076"/>
<use xlink:href="#pc-dilution-ph--glyph-1-3" x="113.346033" y="250.353076"/>
<use xlink:href="#pc-dilution-ph--glyph-1-5" x="117.949862" y="250.353076"/>
<use xlink:href="#pc-dilution-ph--glyph-1-16" x="120.511525" y="250.353076"/>
</g>
<g fill="rgb(0%, 0%, 0%)" fill-opacity="1">
<use xlink:href="#pc-dilution-ph--glyph-1-6" x="127.211261" y="250.353076"/>
<use xlink:href="#pc-dilution-ph--glyph-1-14" x="129.772925" y="250.353076"/>
</g>
<g fill="rgb(0%, 0%, 0%)" fill-opacity="1">
<use xlink:href="#pc-dilution-ph--glyph-1-4" x="136.938418" y="250.353076"/>
<use xlink:href="#pc-dilution-ph--glyph-1-17" x="142.052788" y="250.353076"/>
<use xlink:href="#pc-dilution-ph--glyph-1-0" x="146.146076" y="250.353076"/>
<use xlink:href="#pc-dilution-ph--glyph-1-3" x="151.260447" y="250.353076"/>
<use xlink:href="#pc-dilution-ph--glyph-1-16" x="155.864276" y="250.353076"/>
<use xlink:href="#pc-dilution-ph--glyph-1-16" x="159.491807" y="250.353076"/>
<use xlink:href="#pc-dilution-ph--glyph-1-14" x="163.119337" y="250.353076"/>
<use xlink:href="#pc-dilution-ph--glyph-1-11" x="167.212625" y="250.353076"/>
<use xlink:href="#pc-dilution-ph--glyph-1-21" x="170.813285" y="250.353076"/>
</g>
</svg>