<svg class="fig" role="img" data-fig="pc-bilan-convertisseur-muet" xmlns="http://www.w3.org/2000/svg" xmlns:xlink="http://www.w3.org/1999/xlink" width="228.385pt" height="88.336pt" viewBox="0 0 228.385 88.336">
<defs>
<g>
<g id="pc-bilan-convertisseur-muet--glyph-0-0">
<path d="M 6.08 -2.17 L 5.62 -2.17 C 5.44 -1.05 5.16 -0.41 3.72 -0.41 L 2.41 -0.41 L 2.41 -2.58 L 2.88 -2.58 C 3.62 -2.58 3.75 -2.31 3.75 -1.67 L 4.20 -1.67 L 4.20 -3.91 L 3.75 -3.91 C 3.75 -3.27 3.62 -3 2.88 -3 L 2.41 -3 L 2.41 -4.97 L 3.69 -4.97 C 4.83 -4.97 5.22 -4.58 5.36 -3.45 L 5.80 -3.45 L 5.55 -5.38 L 0.38 -5.38 L 0.38 -4.97 L 1.22 -4.97 L 1.22 -0.41 L 0.38 -0.41 L 0.38 0 L 5.69 0 Z M 4.47 -6.61 C 4.55 -6.92 4.31 -7.22 4 -7.22 C 3.88 -7.22 3.77 -7.17 3.67 -7.09 L 2.52 -6.25 L 2.72 -5.86 L 4.09 -6.23 C 4.17 -6.27 4.42 -6.33 4.47 -6.61 Z M 4.47 -6.61 "/>
</g>
<g id="pc-bilan-convertisseur-muet--glyph-0-1">
<path d="M 5.14 0 L 5.14 -0.41 L 4.62 -0.41 L 4.62 -2.39 C 4.62 -3.36 4.02 -3.56 3.31 -3.56 C 2.36 -3.56 1.92 -2.94 1.83 -2.77 L 1.83 -3.56 L 0.44 -3.5 L 0.44 -3.09 C 0.91 -3.09 0.97 -3.09 0.97 -2.78 L 0.97 -0.41 L 0.44 -0.41 L 0.44 0 C 0.88 -0.03 1.14 -0.03 1.45 -0.03 C 1.75 -0.03 2.03 -0.03 2.45 0 L 2.45 -0.41 L 1.92 -0.41 L 1.92 -2 C 1.92 -2.88 2.69 -3.23 3.19 -3.23 C 3.47 -3.23 3.66 -3.09 3.66 -2.48 L 3.66 -0.41 L 3.12 -0.41 L 3.12 0 C 3.56 -0.03 3.83 -0.03 4.14 -0.03 C 4.44 -0.03 4.72 -0.03 5.14 0 Z M 5.14 0 "/>
</g>
<g id="pc-bilan-convertisseur-muet--glyph-0-2">
<path d="M 4.16 -0.91 C 4.16 -1.08 4 -1.08 3.94 -1.08 C 3.80 -1.08 3.77 -1.06 3.70 -0.92 C 3.45 -0.38 2.78 -0.31 2.56 -0.31 C 1.39 -0.31 1.36 -1.23 1.34 -1.67 L 3.89 -1.67 C 4.06 -1.67 4.16 -1.67 4.16 -1.91 C 4.16 -2.25 4.08 -2.77 3.69 -3.16 C 3.23 -3.59 2.53 -3.59 2.34 -3.59 C 0.94 -3.59 0.27 -2.72 0.27 -1.78 C 0.27 -0.77 1.06 0.06 2.47 0.06 C 3.86 0.06 4.16 -0.80 4.16 -0.91 Z M 3.39 -1.98 L 1.34 -1.98 C 1.34 -2.30 1.38 -3.27 2.36 -3.27 C 3.34 -3.27 3.38 -2.30 3.39 -1.98 Z M 3.39 -1.98 "/>
</g>
<g id="pc-bilan-convertisseur-muet--glyph-0-3">
<path d="M 3.72 -2.88 C 3.72 -3.31 3.28 -3.56 2.83 -3.56 C 2.16 -3.56 1.83 -3.02 1.70 -2.72 L 1.70 -3.56 L 0.36 -3.5 L 0.36 -3.09 C 0.83 -3.09 0.89 -3.09 0.89 -2.78 L 0.89 -0.41 L 0.36 -0.41 L 0.36 0 C 0.83 -0.03 0.91 -0.03 1.38 -0.03 L 2.45 0 L 2.45 -0.41 L 1.80 -0.41 L 1.80 -1.69 C 1.80 -2.31 2.05 -3.20 2.81 -3.23 C 2.81 -3.23 2.69 -3.09 2.69 -2.88 C 2.69 -2.56 2.91 -2.36 3.20 -2.36 C 3.5 -2.36 3.72 -2.56 3.72 -2.88 Z M 3.72 -2.88 "/>
</g>
<g id="pc-bilan-convertisseur-muet--glyph-0-4">
<path d="M 4.70 -3.11 C 4.70 -3.34 4.52 -3.62 4.16 -3.62 C 3.84 -3.62 3.48 -3.5 3.25 -3.31 C 2.97 -3.47 2.66 -3.56 2.16 -3.56 C 0.88 -3.56 0.48 -2.88 0.48 -2.39 C 0.48 -1.92 0.75 -1.69 0.89 -1.56 C 0.73 -1.38 0.62 -1.12 0.62 -0.86 C 0.62 -0.58 0.75 -0.30 0.95 -0.11 C 0.62 -0.02 0.27 0.20 0.27 0.58 C 0.27 1 0.73 1.59 2.42 1.59 C 3.91 1.59 4.56 1.12 4.56 0.56 C 4.56 -0.20 3.98 -0.45 3.81 -0.52 C 3.39 -0.69 2.91 -0.69 2.19 -0.69 L 1.77 -0.69 C 1.53 -0.69 1.39 -0.69 1.27 -0.80 C 1.19 -0.88 1.08 -0.98 1.08 -1.17 C 1.08 -1.25 1.11 -1.34 1.14 -1.41 C 1.47 -1.23 1.86 -1.20 2.16 -1.20 C 3.44 -1.20 3.81 -1.89 3.81 -2.38 C 3.81 -2.81 3.55 -3.08 3.5 -3.12 C 3.72 -3.23 3.88 -3.25 3.98 -3.27 C 3.97 -3.22 3.95 -3.14 3.95 -3.11 C 3.95 -2.89 4.11 -2.73 4.33 -2.73 C 4.53 -2.73 4.70 -2.89 4.70 -3.11 Z M 2.91 -2.39 C 2.91 -2.06 2.91 -1.55 2.16 -1.55 C 1.41 -1.55 1.41 -2.06 1.41 -2.38 C 1.41 -2.72 1.41 -3.22 2.16 -3.22 C 2.91 -3.22 2.91 -2.70 2.91 -2.39 Z M 3.83 0.58 C 3.83 0.86 3.5 1.25 2.42 1.25 C 1.38 1.25 1 0.88 1 0.58 C 1 0.14 1.52 0.14 1.64 0.14 L 2.64 0.14 C 2.88 0.14 3.83 0.14 3.83 0.58 Z M 3.83 0.58 "/>
</g>
<g id="pc-bilan-convertisseur-muet--glyph-0-5">
<path d="M 2.38 0 L 2.38 -0.41 L 1.91 -0.41 L 1.91 -3.56 L 0.48 -3.5 L 0.48 -3.09 C 0.94 -3.09 0.98 -3.09 0.98 -2.80 L 0.98 -0.41 L 0.47 -0.41 L 0.47 0 C 0.92 -0.03 1.02 -0.03 1.44 -0.03 C 1.75 -0.03 1.98 -0.03 2.38 0 Z M 1.98 -4.78 C 1.98 -5.14 1.69 -5.42 1.36 -5.42 C 1 -5.42 0.72 -5.12 0.72 -4.78 C 0.72 -4.42 1.02 -4.16 1.34 -4.16 C 1.70 -4.16 1.98 -4.44 1.98 -4.78 Z M 1.98 -4.78 "/>
</g>
<g id="pc-bilan-convertisseur-muet--glyph-0-6">
<path d="M 4.66 -0.20 C 4.66 -0.41 4.53 -0.41 4.42 -0.41 C 3.92 -0.41 3.92 -0.48 3.92 -0.67 L 3.92 -2.34 C 3.92 -3.05 3.36 -3.59 2.08 -3.59 C 1.69 -3.59 0.55 -3.59 0.55 -2.81 C 0.55 -2.47 0.83 -2.28 1.08 -2.28 C 1.41 -2.28 1.62 -2.5 1.62 -2.81 C 1.62 -3.06 1.45 -3.20 1.45 -3.20 C 1.52 -3.22 1.75 -3.27 2.06 -3.27 C 2.69 -3.27 2.97 -2.92 2.97 -2.34 L 2.97 -2.12 C 1.78 -2.11 0.23 -1.84 0.23 -0.89 C 0.23 -0.22 1 0.06 1.86 0.06 C 2.67 0.06 3.02 -0.38 3.11 -0.53 C 3.11 -0.30 3.20 0 3.97 0 L 4.39 0 C 4.53 0 4.66 0 4.66 -0.20 Z M 2.97 -1.08 C 2.97 -0.28 2.02 -0.28 1.98 -0.28 C 1.58 -0.28 1.20 -0.52 1.20 -0.91 C 1.20 -1.45 1.94 -1.80 2.97 -1.81 Z M 2.97 -1.08 "/>
</g>
<g id="pc-bilan-convertisseur-muet--glyph-0-7">
<path d="M 5.05 -1.75 C 5.05 -2.81 4.28 -3.56 3.03 -3.56 C 2.42 -3.56 2 -3.34 1.80 -3.20 L 1.80 -5.48 L 0.36 -5.42 L 0.36 -5.02 C 0.83 -5.02 0.89 -5.02 0.89 -4.70 L 0.89 0 L 1.33 0 L 1.69 -0.44 C 2.05 -0.09 2.45 0.06 2.92 0.06 C 4.27 0.06 5.05 -0.73 5.05 -1.75 Z M 3.98 -1.78 C 3.98 -1.28 3.98 -0.28 2.86 -0.28 C 2.27 -0.28 1.94 -0.72 1.84 -0.84 L 1.84 -2.72 C 2 -2.92 2.39 -3.23 2.95 -3.23 C 3.98 -3.23 3.98 -2.27 3.98 -1.78 Z M 3.98 -1.78 "/>
</g>
<g id="pc-bilan-convertisseur-muet--glyph-0-8">
<path d="M 3.48 -1.11 C 3.48 -1.47 3.33 -1.70 3.14 -1.86 C 2.80 -2.19 2.39 -2.25 2.09 -2.30 C 1.38 -2.42 0.94 -2.48 0.94 -2.84 C 0.94 -3.31 1.70 -3.31 1.86 -3.31 C 2.75 -3.31 2.80 -2.88 2.81 -2.66 C 2.83 -2.53 2.94 -2.53 3.03 -2.53 C 3.23 -2.53 3.25 -2.58 3.25 -2.78 L 3.25 -3.36 C 3.25 -3.5 3.25 -3.59 3.08 -3.59 C 3.02 -3.59 2.98 -3.59 2.72 -3.47 C 2.39 -3.59 2.02 -3.59 1.88 -3.59 C 1.61 -3.59 0.33 -3.59 0.33 -2.53 C 0.33 -2.19 0.53 -1.95 0.73 -1.80 C 1.05 -1.58 1.39 -1.53 1.89 -1.44 C 2.30 -1.38 2.88 -1.28 2.88 -0.84 C 2.88 -0.30 2.19 -0.28 1.94 -0.28 C 1.12 -0.28 0.91 -0.73 0.78 -1.09 C 0.73 -1.23 0.72 -1.25 0.55 -1.25 C 0.33 -1.25 0.33 -1.19 0.33 -1 L 0.33 -0.19 C 0.33 -0.05 0.33 0.06 0.5 0.06 C 0.56 0.06 0.58 0.06 0.75 -0.05 L 0.95 -0.19 C 1.36 0.06 1.77 0.06 1.94 0.06 C 2.19 0.06 3.48 0.06 3.48 -1.11 Z M 3.48 -1.11 "/>
</g>
<g id="pc-bilan-convertisseur-muet--glyph-0-9">
<path d="M 4.56 -1.72 C 4.56 -2.72 3.86 -3.59 2.42 -3.59 C 0.97 -3.59 0.27 -2.72 0.27 -1.72 C 0.27 -0.78 0.97 0.06 2.42 0.06 C 3.89 0.06 4.56 -0.80 4.56 -1.72 Z M 3.5 -1.81 C 3.5 -1.12 3.5 -0.31 2.42 -0.31 C 1.34 -0.31 1.34 -1.12 1.34 -1.81 C 1.34 -2.47 1.34 -3.27 2.42 -3.27 C 3.5 -3.27 3.5 -2.45 3.5 -1.81 Z M 3.5 -1.81 "/>
</g>
<g id="pc-bilan-convertisseur-muet--glyph-0-10">
<path d="M 4.16 -0.91 C 4.16 -1.08 4 -1.08 3.94 -1.08 C 3.80 -1.08 3.77 -1.06 3.70 -0.92 C 3.45 -0.38 2.78 -0.31 2.56 -0.31 C 1.39 -0.31 1.36 -1.23 1.34 -1.67 L 3.89 -1.67 C 4.06 -1.67 4.16 -1.67 4.16 -1.91 C 4.16 -2.25 4.08 -2.77 3.69 -3.16 C 3.23 -3.59 2.53 -3.59 2.34 -3.59 C 0.94 -3.59 0.27 -2.72 0.27 -1.78 C 0.27 -0.77 1.06 0.06 2.47 0.06 C 3.86 0.06 4.16 -0.80 4.16 -0.91 Z M 3.39 -1.98 L 1.34 -1.98 C 1.34 -2.30 1.38 -3.27 2.36 -3.27 C 3.34 -3.27 3.38 -2.30 3.39 -1.98 Z M 3.45 -5.03 C 3.45 -5.28 3.22 -5.56 2.94 -5.56 C 2.80 -5.56 2.69 -5.5 2.58 -5.39 L 1.59 -4.34 L 1.84 -4 L 3.14 -4.61 C 3.20 -4.66 3.45 -4.77 3.45 -5.03 Z M 3.45 -5.03 "/>
</g>
<g id="pc-bilan-convertisseur-muet--glyph-0-11">
<path d="M 6.45 -1.80 C 6.45 -1.98 6.36 -1.98 6.23 -1.98 C 6.03 -1.98 6.02 -1.95 6.02 -1.75 C 5.95 -0.94 5.12 -0.30 4.08 -0.30 C 3.20 -0.30 2.62 -0.61 2.31 -0.95 C 1.95 -1.34 1.80 -1.89 1.80 -2.72 C 1.80 -3.06 1.81 -3.92 2.30 -4.45 C 2.86 -5.06 3.69 -5.12 4.06 -5.12 C 4.86 -5.12 5.73 -4.62 5.92 -3.5 C 5.95 -3.34 6.02 -3.34 6.19 -3.34 C 6.42 -3.34 6.45 -3.36 6.45 -3.59 L 6.45 -5.30 C 6.45 -5.44 6.45 -5.53 6.28 -5.53 C 6.20 -5.53 6.19 -5.53 6.09 -5.45 L 5.58 -5 C 5.22 -5.23 4.72 -5.53 3.89 -5.53 C 1.73 -5.53 0.53 -4.28 0.53 -2.72 C 0.53 -1.16 1.72 0.11 3.91 0.11 C 5.47 0.11 6.45 -0.83 6.45 -1.80 Z M 6.45 -1.80 "/>
</g>
<g id="pc-bilan-convertisseur-muet--glyph-0-12">
<path d="M 4.88 -3.09 L 4.88 -3.52 C 4.56 -3.48 4.55 -3.48 4.22 -3.48 C 4.16 -3.48 3.73 -3.48 3.5 -3.52 L 3.5 -3.09 C 3.70 -3.09 3.77 -3.08 3.84 -3.03 C 3.83 -3.02 3.83 -3 3.80 -2.94 L 2.83 -0.98 L 1.75 -3.09 L 2.14 -3.09 L 2.14 -3.52 C 1.66 -3.48 1.56 -3.48 1.16 -3.48 C 0.91 -3.48 0.58 -3.48 0.23 -3.52 L 0.23 -3.09 L 0.73 -3.09 L 2.20 -0.19 C 2.27 -0.05 2.31 0.05 2.55 0.05 C 2.69 0.05 2.81 0.05 2.92 -0.19 L 4.30 -2.94 C 4.36 -3.06 4.38 -3.09 4.88 -3.09 Z M 4.88 -3.09 "/>
</g>
<g id="pc-bilan-convertisseur-muet--glyph-0-13">
<path d="M 3.22 -0.97 L 3.22 -1.38 L 2.78 -1.38 L 2.78 -0.98 C 2.78 -0.44 2.47 -0.31 2.30 -0.31 C 1.83 -0.31 1.83 -0.73 1.83 -0.95 L 1.83 -3.09 L 3.06 -3.09 L 3.06 -3.52 L 1.83 -3.52 L 1.83 -5.02 L 1.39 -5.02 C 1.38 -4.23 0.97 -3.45 0.19 -3.44 L 0.19 -3.09 L 0.86 -3.09 L 0.86 -0.97 C 0.86 -0.16 1.5 0.06 2.17 0.06 C 2.78 0.06 3.22 -0.34 3.22 -0.97 Z M 3.22 -0.97 "/>
</g>
<g id="pc-bilan-convertisseur-muet--glyph-0-14">
<path d="M 5.14 0 L 5.14 -0.41 C 4.67 -0.41 4.62 -0.41 4.62 -0.72 L 4.62 -3.56 L 3.12 -3.5 L 3.12 -3.09 C 3.59 -3.09 3.66 -3.09 3.66 -2.78 L 3.66 -1.28 C 3.66 -0.69 3.23 -0.28 2.59 -0.28 C 1.95 -0.28 1.92 -0.45 1.92 -0.86 L 1.92 -3.56 L 0.44 -3.5 L 0.44 -3.09 C 0.91 -3.09 0.97 -3.09 0.97 -2.78 L 0.97 -0.97 C 0.97 -0.09 1.70 0.06 2.48 0.06 C 2.75 0.06 3.27 0.06 3.70 -0.5 L 3.70 0.06 Z M 5.14 0 "/>
</g>
<g id="pc-bilan-convertisseur-muet--glyph-0-15">
<path d="M 2.42 0 L 2.42 -0.41 L 1.91 -0.41 L 1.91 -5.48 L 0.47 -5.42 L 0.47 -5.02 C 0.94 -5.02 0.98 -5.02 0.98 -4.70 L 0.98 -0.41 L 0.47 -0.41 L 0.47 0 C 0.92 -0.03 1 -0.03 1.45 -0.03 C 1.89 -0.03 1.97 -0.03 2.42 0 Z M 2.42 0 "/>
</g>
<g id="pc-bilan-convertisseur-muet--glyph-0-16">
<path d="M 6.06 -3.86 C 6.06 -4.72 5.25 -5.42 3.83 -5.42 L 0.38 -5.42 L 0.38 -5.02 L 1.22 -5.02 L 1.22 -0.41 L 0.38 -0.41 L 0.38 0 C 0.67 -0.03 1.47 -0.03 1.81 -0.03 C 2.16 -0.03 2.95 -0.03 3.25 0 L 3.25 -0.41 L 2.41 -0.41 L 2.41 -2.34 L 3.83 -2.34 C 5.25 -2.34 6.06 -3.02 6.06 -3.86 Z M 4.80 -3.86 C 4.80 -3.33 4.80 -2.72 3.53 -2.72 L 2.36 -2.72 L 2.36 -5.02 L 3.55 -5.02 C 4.80 -5.02 4.80 -4.41 4.80 -3.86 Z M 4.80 -3.86 "/>
</g>
</g>
<clipPath id="pc-bilan-convertisseur-muet--clip-0">
<path clip-rule="nonzero" d="M 0.55 0 L 66 0 L 66 48 L 0.55 48 Z M 0.55 0 "/>
</clipPath>
<clipPath id="pc-bilan-convertisseur-muet--clip-1">
<path clip-rule="nonzero" d="M 162 0 L 227.23 0 L 227.23 48 L 162 48 Z M 162 0 "/>
</clipPath>
<clipPath id="pc-bilan-convertisseur-muet--clip-2">
<path clip-rule="nonzero" d="M 83 49 L 147 49 L 147 87.68 L 83 87.68 Z M 83 49 "/>
</clipPath>
</defs>
<g clip-path="url(#pc-bilan-convertisseur-muet--clip-0)">
<path fill="none" stroke-width="0.99628" stroke-linecap="butt" stroke-linejoin="miter" stroke="rgb(92.156982%, 58.822632%, 7.841492%)" stroke-opacity="1" stroke-miterlimit="10" d="M 20.26 14.17 L -20.26 14.17 C -21.92 14.17 -23.25 12.84 -23.25 11.18 L -23.25 -11.18 C -23.25 -12.84 -21.92 -14.17 -20.26 -14.17 L 20.26 -14.17 C 21.92 -14.17 23.25 -12.84 23.25 -11.18 L 23.25 11.18 C 23.25 12.84 21.92 14.17 20.26 14.17 Z M 20.26 14.17 " transform="matrix(0.992539, 0, 0, -0.992539, 28.075818, 19.924234)"/>
</g>
<g fill="rgb(92.156982%, 58.822632%, 7.841492%)" fill-opacity="1">
<use xlink:href="#pc-bilan-convertisseur-muet--glyph-0-0" x="11.996681" y="18.814575"/>
<use xlink:href="#pc-bilan-convertisseur-muet--glyph-0-1" x="18.348931" y="18.814575"/>
<use xlink:href="#pc-bilan-convertisseur-muet--glyph-0-2" x="23.736082" y="18.814575"/>
<use xlink:href="#pc-bilan-convertisseur-muet--glyph-0-3" x="28.173955" y="18.814575"/>
<use xlink:href="#pc-bilan-convertisseur-muet--glyph-0-4" x="32.176743" y="18.814575"/>
<use xlink:href="#pc-bilan-convertisseur-muet--glyph-0-5" x="37.02597" y="18.814575"/>
<use xlink:href="#pc-bilan-convertisseur-muet--glyph-0-2" x="39.71559" y="18.814575"/>
</g>
<g fill="rgb(92.156982%, 58.822632%, 7.841492%)" fill-opacity="1">
<use xlink:href="#pc-bilan-convertisseur-muet--glyph-0-6" x="9.422034" y="28.207968"/>
<use xlink:href="#pc-bilan-convertisseur-muet--glyph-0-7" x="14.13678" y="28.207968"/>
<use xlink:href="#pc-bilan-convertisseur-muet--glyph-0-8" x="19.523931" y="28.207968"/>
<use xlink:href="#pc-bilan-convertisseur-muet--glyph-0-9" x="23.344774" y="28.207968"/>
<use xlink:href="#pc-bilan-convertisseur-muet--glyph-0-3" x="28.194001" y="28.207968"/>
<use xlink:href="#pc-bilan-convertisseur-muet--glyph-0-7" x="32.196788" y="28.207968"/>
</g>
<g fill="rgb(92.156982%, 58.822632%, 7.841492%)" fill-opacity="1">
<use xlink:href="#pc-bilan-convertisseur-muet--glyph-0-10" x="37.852901" y="28.207968"/>
<use xlink:href="#pc-bilan-convertisseur-muet--glyph-0-2" x="42.290775" y="28.207968"/>
</g>
<path fill="none" stroke-width="0.99628" stroke-linecap="butt" stroke-linejoin="miter" stroke="rgb(7.841492%, 58.822632%, 35.293579%)" stroke-opacity="1" stroke-miterlimit="10" d="M 130.74 -0.00 C 130.74 8.61 111.55 15.59 87.88 15.59 C 64.20 15.59 45.01 8.61 45.01 -0.00 C 45.01 -8.61 64.20 -15.59 87.88 -15.59 C 111.55 -15.59 130.74 -8.61 130.74 -0.00 Z M 130.74 -0.00 " transform="matrix(0.992539, 0, 0, -0.992539, 28.075818, 19.924234)"/>
<g fill="rgb(7.841492%, 58.822632%, 35.293579%)" fill-opacity="1">
<use xlink:href="#pc-bilan-convertisseur-muet--glyph-0-11" x="86.202891" y="22.636844"/>
<use xlink:href="#pc-bilan-convertisseur-muet--glyph-0-9" x="93.203814" y="22.636844"/>
<use xlink:href="#pc-bilan-convertisseur-muet--glyph-0-1" x="98.053041" y="22.636844"/>
</g>
<g fill="rgb(7.841492%, 58.822632%, 35.293579%)" fill-opacity="1">
<use xlink:href="#pc-bilan-convertisseur-muet--glyph-0-12" x="103.17123" y="22.636844"/>
</g>
<g fill="rgb(7.841492%, 58.822632%, 35.293579%)" fill-opacity="1">
<use xlink:href="#pc-bilan-convertisseur-muet--glyph-0-2" x="108.020457" y="22.636844"/>
<use xlink:href="#pc-bilan-convertisseur-muet--glyph-0-3" x="112.45833" y="22.636844"/>
<use xlink:href="#pc-bilan-convertisseur-muet--glyph-0-13" x="116.461118" y="22.636844"/>
<use xlink:href="#pc-bilan-convertisseur-muet--glyph-0-5" x="120.226586" y="22.636844"/>
<use xlink:href="#pc-bilan-convertisseur-muet--glyph-0-8" x="122.916207" y="22.636844"/>
<use xlink:href="#pc-bilan-convertisseur-muet--glyph-0-8" x="126.737049" y="22.636844"/>
<use xlink:href="#pc-bilan-convertisseur-muet--glyph-0-2" x="130.557892" y="22.636844"/>
<use xlink:href="#pc-bilan-convertisseur-muet--glyph-0-14" x="134.995765" y="22.636844"/>
<use xlink:href="#pc-bilan-convertisseur-muet--glyph-0-3" x="140.382916" y="22.636844"/>
</g>
<g clip-path="url(#pc-bilan-convertisseur-muet--clip-1)">
<path fill="none" stroke-width="0.99628" stroke-linecap="butt" stroke-linejoin="miter" stroke="rgb(17.64679%, 29.412842%, 80.39093%)" stroke-opacity="1" stroke-miterlimit="10" d="M 193.18 14.17 L 152.65 14.17 C 151.00 14.17 149.66 12.84 149.66 11.18 L 149.66 -11.18 C 149.66 -12.84 151.00 -14.17 152.65 -14.17 L 193.18 -14.17 C 194.83 -14.17 196.17 -12.84 196.17 -11.18 L 196.17 11.18 C 196.17 12.84 194.83 14.17 193.18 14.17 Z M 193.18 14.17 " transform="matrix(0.992539, 0, 0, -0.992539, 28.075818, 19.924234)"/>
</g>
<g fill="rgb(17.64679%, 29.412842%, 80.39093%)" fill-opacity="1">
<use xlink:href="#pc-bilan-convertisseur-muet--glyph-0-0" x="183.620626" y="18.814575"/>
<use xlink:href="#pc-bilan-convertisseur-muet--glyph-0-1" x="189.972876" y="18.814575"/>
<use xlink:href="#pc-bilan-convertisseur-muet--glyph-0-2" x="195.360027" y="18.814575"/>
<use xlink:href="#pc-bilan-convertisseur-muet--glyph-0-3" x="199.7979" y="18.814575"/>
<use xlink:href="#pc-bilan-convertisseur-muet--glyph-0-4" x="203.800688" y="18.814575"/>
<use xlink:href="#pc-bilan-convertisseur-muet--glyph-0-5" x="208.649915" y="18.814575"/>
<use xlink:href="#pc-bilan-convertisseur-muet--glyph-0-2" x="211.339535" y="18.814575"/>
</g>
<g fill="rgb(17.64679%, 29.412842%, 80.39093%)" fill-opacity="1">
<use xlink:href="#pc-bilan-convertisseur-muet--glyph-0-14" x="190.214065" y="28.207968"/>
<use xlink:href="#pc-bilan-convertisseur-muet--glyph-0-13" x="195.601216" y="28.207968"/>
<use xlink:href="#pc-bilan-convertisseur-muet--glyph-0-5" x="199.366684" y="28.207968"/>
<use xlink:href="#pc-bilan-convertisseur-muet--glyph-0-15" x="202.056304" y="28.207968"/>
<use xlink:href="#pc-bilan-convertisseur-muet--glyph-0-2" x="204.745924" y="28.207968"/>
</g>
<path fill="none" stroke-width="2.1918" stroke-linecap="butt" stroke-linejoin="miter" stroke="rgb(92.156982%, 58.822632%, 7.841492%)" stroke-opacity="1" stroke-miterlimit="10" d="M 23.75 -0.00 L 39.64 -0.00 " transform="matrix(0.992539, 0, 0, -0.992539, 28.075818, 19.924234)"/>
<path fill-rule="nonzero" fill="rgb(92.156982%, 58.822632%, 7.841492%)" fill-opacity="1" stroke-width="1.34497" stroke-linecap="butt" stroke-linejoin="miter" stroke="rgb(92.156982%, 58.822632%, 7.841492%)" stroke-opacity="1" stroke-miterlimit="10" d="M 6.29 -0.00 L 1.98 1.91 L 3.43 -0.00 L 1.98 -1.91 Z M 6.29 -0.00 " transform="matrix(0.992539, 0, 0, -0.992539, 64.349835, 19.924234)"/>
<path fill="none" stroke-width="2.1918" stroke-linecap="butt" stroke-linejoin="miter" stroke="rgb(7.841492%, 58.822632%, 35.293579%)" stroke-opacity="1" stroke-miterlimit="10" d="M 131.24 -0.00 L 144.29 -0.00 " transform="matrix(0.992539, 0, 0, -0.992539, 28.075818, 19.924234)"/>
<path fill-rule="nonzero" fill="rgb(7.841492%, 58.822632%, 35.293579%)" fill-opacity="1" stroke-width="1.34497" stroke-linecap="butt" stroke-linejoin="miter" stroke="rgb(7.841492%, 58.822632%, 35.293579%)" stroke-opacity="1" stroke-miterlimit="10" d="M 6.29 -0.00 L 1.98 1.91 L 3.43 -0.00 L 1.98 -1.91 Z M 6.29 -0.00 " transform="matrix(0.992539, 0, 0, -0.992539, 168.2171, 19.924234)"/>
<g clip-path="url(#pc-bilan-convertisseur-muet--clip-2)">
<path fill="none" stroke-width="0.99628" stroke-linecap="butt" stroke-linejoin="miter" stroke="rgb(42.350769%, 50.588989%, 86.274719%)" stroke-opacity="1" stroke-miterlimit="10" d="M 102.47 -43.94 L 73.28 -43.94 C 71.63 -43.94 70.29 -45.28 70.29 -46.93 L 70.29 -60.79 C 70.29 -62.44 71.63 -63.78 73.28 -63.78 L 102.47 -63.78 C 104.12 -63.78 105.46 -62.44 105.46 -60.79 L 105.46 -46.93 C 105.46 -45.28 104.12 -43.94 102.47 -43.94 Z M 102.47 -43.94 " transform="matrix(0.992539, 0, 0, -0.992539, 28.075818, 19.924234)"/>
</g>
<g fill="rgb(42.350769%, 50.588989%, 86.274719%)" fill-opacity="1">
<use xlink:href="#pc-bilan-convertisseur-muet--glyph-0-16" x="101.892953" y="76.065236"/>
</g>
<g fill="rgb(42.350769%, 50.588989%, 86.274719%)" fill-opacity="1">
<use xlink:href="#pc-bilan-convertisseur-muet--glyph-0-2" x="108.229381" y="76.065236"/>
<use xlink:href="#pc-bilan-convertisseur-muet--glyph-0-3" x="112.667255" y="76.065236"/>
<use xlink:href="#pc-bilan-convertisseur-muet--glyph-0-13" x="116.670042" y="76.065236"/>
<use xlink:href="#pc-bilan-convertisseur-muet--glyph-0-2" x="120.435511" y="76.065236"/>
<use xlink:href="#pc-bilan-convertisseur-muet--glyph-0-8" x="124.873384" y="76.065236"/>
</g>
<path fill="none" stroke-width="2.1918" stroke-linecap="butt" stroke-linejoin="miter" stroke="rgb(7.841492%, 58.822632%, 35.293579%)" stroke-opacity="1" stroke-miterlimit="10" d="M 87.88 -16.09 L 87.88 -38.56 " transform="matrix(0.992539, 0, 0, -0.992539, 28.075818, 19.924234)"/>
<path fill-rule="nonzero" fill="rgb(7.841492%, 58.822632%, 35.293579%)" fill-opacity="1" stroke-width="1.34497" stroke-linecap="butt" stroke-linejoin="miter" stroke="rgb(7.841492%, 58.822632%, 35.293579%)" stroke-opacity="1" stroke-miterlimit="10" d="M 6.29 0.00 L 1.98 1.91 L 3.43 0.00 L 1.98 -1.91 Z M 6.29 0.00 " transform="matrix(0, 0.992539, 0.992539, 0, 115.295479, 55.128671)"/>
</svg>