<svg class="fig" role="img" data-fig="statique-couple-muet" xmlns="http://www.w3.org/2000/svg" xmlns:xlink="http://www.w3.org/1999/xlink" width="100.464pt" height="102.012pt" viewBox="0 0 100.464 102.012">
<defs>
<g>
<g id="statique-couple-muet--glyph-0-0">
<path d="M 3.58 -3.59 C 3.30 -3.55 3.14 -3.30 3.14 -3.11 C 3.14 -2.94 3.27 -2.78 3.48 -2.78 C 3.73 -2.78 3.97 -2.98 3.97 -3.31 C 3.97 -3.67 3.66 -3.92 3.22 -3.92 C 2.56 -3.92 2.19 -3.42 2.06 -3.25 C 1.95 -3.75 1.55 -3.92 1.22 -3.92 C 0.89 -3.92 0.69 -3.73 0.55 -3.42 C 0.38 -3.09 0.25 -2.59 0.25 -2.56 C 0.25 -2.47 0.31 -2.45 0.38 -2.45 C 0.48 -2.45 0.5 -2.5 0.55 -2.67 C 0.70 -3.38 0.89 -3.70 1.20 -3.70 C 1.47 -3.70 1.47 -3.42 1.47 -3.28 C 1.47 -3.09 1.39 -2.83 1.34 -2.59 C 1.28 -2.36 1.19 -1.98 1.16 -1.88 L 0.80 -0.42 C 0.73 -0.20 0.73 -0.19 0.73 -0.16 C 0.73 -0.05 0.81 0.09 1.02 0.09 C 1.30 0.09 1.36 -0.14 1.42 -0.41 C 1.53 -0.78 1.53 -0.80 1.61 -1.16 C 1.94 -2.5 2 -2.70 2.02 -2.75 C 2.06 -2.86 2.47 -3.70 3.22 -3.70 C 3.42 -3.70 3.55 -3.62 3.58 -3.59 Z M 3.58 -3.59 "/>
</g>
<g id="statique-couple-muet--glyph-0-1">
<path d="M 4.81 -5.27 C 4.80 -5.25 4.41 -4.91 4.41 -4.77 C 4.41 -4.66 4.48 -4.58 4.59 -4.58 C 4.69 -4.58 4.73 -4.62 4.77 -4.67 C 4.86 -4.80 5.06 -5.05 5.47 -5.25 C 5.58 -5.30 5.66 -5.34 5.66 -5.47 C 5.66 -5.56 5.58 -5.62 5.53 -5.66 C 5.39 -5.73 5.25 -5.86 5.14 -6.14 C 5.11 -6.25 5.08 -6.36 4.94 -6.36 C 4.86 -6.36 4.75 -6.30 4.75 -6.16 C 4.75 -6 4.94 -5.70 4.97 -5.66 L 1.95 -5.66 C 1.80 -5.66 1.62 -5.66 1.62 -5.47 C 1.62 -5.27 1.80 -5.27 1.95 -5.27 Z M 4.81 -5.27 "/>
</g>
<g id="statique-couple-muet--glyph-0-2">
<path d="M 2.77 -2.89 L 3.62 -2.89 C 4.27 -2.89 4.39 -2.78 4.39 -2.5 C 4.39 -2.47 4.38 -2.31 4.33 -2.09 C 4.28 -1.98 4.28 -1.98 4.28 -1.97 C 4.28 -1.92 4.31 -1.84 4.41 -1.84 C 4.52 -1.84 4.52 -1.89 4.55 -2.03 L 5.05 -3.95 C 5.05 -3.98 5.06 -4.03 5.06 -4.08 C 5.06 -4.14 5.03 -4.20 4.94 -4.20 C 4.84 -4.20 4.83 -4.14 4.80 -3.98 C 4.61 -3.30 4.36 -3.16 3.64 -3.16 L 2.83 -3.16 C 2.95 -3.64 3.41 -5.47 3.44 -5.58 C 3.5 -5.77 3.59 -5.77 3.86 -5.77 L 5.08 -5.77 C 6.20 -5.77 6.41 -5.47 6.41 -4.78 C 6.41 -4.48 6.36 -4.25 6.36 -4.17 C 6.36 -4.09 6.41 -4.03 6.48 -4.03 C 6.58 -4.03 6.59 -4.09 6.61 -4.27 L 6.80 -5.91 C 6.80 -6.03 6.70 -6.03 6.55 -6.03 L 2.09 -6.03 C 1.92 -6.03 1.83 -6.03 1.83 -5.88 C 1.83 -5.77 1.92 -5.77 2.11 -5.77 C 2.14 -5.77 2.30 -5.77 2.44 -5.73 C 2.64 -5.72 2.64 -5.69 2.64 -5.59 C 2.64 -5.58 2.64 -5.56 2.59 -5.39 L 1.42 -0.67 C 1.34 -0.36 1.33 -0.28 0.66 -0.28 C 0.48 -0.28 0.39 -0.28 0.39 -0.11 C 0.39 -0.06 0.42 0 0.53 0 C 0.62 0 1.03 -0.02 1.12 -0.02 C 1.20 -0.03 1.52 -0.03 1.70 -0.03 C 1.88 -0.03 2.12 -0.02 2.33 -0.02 C 2.55 -0.02 2.80 0 3.02 0 C 3.08 0 3.19 0 3.19 -0.16 C 3.19 -0.28 3.11 -0.28 2.92 -0.28 C 2.91 -0.28 2.67 -0.28 2.45 -0.30 C 2.19 -0.31 2.17 -0.36 2.17 -0.47 C 2.17 -0.48 2.17 -0.53 2.20 -0.67 Z M 2.77 -2.89 "/>
</g>
<g id="statique-couple-muet--glyph-0-3">
<path d="M 3.89 -5.41 C 3.95 -5.59 3.97 -5.69 4.12 -5.72 C 4.19 -5.73 4.47 -5.73 4.66 -5.73 C 5.69 -5.73 5.98 -5.67 5.98 -4.98 C 5.98 -4.86 5.98 -4.73 5.91 -4.20 L 5.89 -4.14 C 5.89 -4.08 5.92 -4.02 6.02 -4.02 C 6.12 -4.02 6.14 -4.09 6.16 -4.22 L 6.39 -5.77 C 6.41 -5.80 6.41 -5.86 6.41 -5.89 C 6.41 -6.02 6.31 -6.02 6.16 -6.02 L 1.09 -6.02 C 0.89 -6.02 0.88 -6 0.81 -5.83 L 0.27 -4.27 C 0.23 -4.16 0.23 -4.14 0.23 -4.12 C 0.23 -4.08 0.25 -4.02 0.34 -4.02 C 0.44 -4.02 0.47 -4.06 0.52 -4.22 C 1 -5.61 1.28 -5.73 2.56 -5.73 L 2.91 -5.73 C 3.16 -5.73 3.16 -5.70 3.16 -5.64 C 3.16 -5.58 3.14 -5.52 3.12 -5.45 L 1.94 -0.70 C 1.86 -0.38 1.83 -0.28 0.89 -0.28 C 0.61 -0.28 0.53 -0.28 0.53 -0.11 C 0.53 0 0.64 0 0.67 0 C 0.91 0 1.16 -0.02 1.41 -0.02 C 1.66 -0.02 1.91 -0.03 2.16 -0.03 C 2.55 -0.03 2.56 -0.03 2.89 -0.02 C 3.02 -0.02 3.59 0 3.67 0 C 3.75 0 3.86 0 3.86 -0.16 C 3.86 -0.28 3.77 -0.28 3.55 -0.28 C 3.33 -0.28 3.22 -0.28 2.98 -0.30 C 2.78 -0.31 2.67 -0.33 2.67 -0.48 C 2.67 -0.53 2.69 -0.59 2.70 -0.66 Z M 3.89 -5.41 "/>
</g>
<g id="statique-couple-muet--glyph-1-0">
<path d="M 2.12 -3.77 C 2.12 -3.94 2.11 -3.94 1.92 -3.94 C 1.53 -3.56 0.94 -3.56 0.72 -3.56 L 0.72 -3.33 C 0.88 -3.33 1.27 -3.33 1.61 -3.5 L 1.61 -0.5 C 1.61 -0.31 1.61 -0.23 1 -0.23 L 0.75 -0.23 L 0.75 0 C 1.08 -0.03 1.55 -0.03 1.88 -0.03 C 2.20 -0.03 2.67 -0.03 2.98 0 L 2.98 -0.23 L 2.73 -0.23 C 2.12 -0.23 2.12 -0.31 2.12 -0.5 Z M 2.12 -3.77 "/>
</g>
<g id="statique-couple-muet--glyph-1-1">
<path d="M 3.19 -1.11 L 2.97 -1.11 C 2.95 -1.03 2.89 -0.64 2.81 -0.56 C 2.77 -0.53 2.28 -0.53 2.20 -0.53 L 1.09 -0.53 L 1.86 -1.16 C 2.06 -1.31 2.58 -1.69 2.77 -1.86 C 2.94 -2.05 3.19 -2.34 3.19 -2.77 C 3.19 -3.5 2.52 -3.94 1.72 -3.94 C 0.95 -3.94 0.42 -3.44 0.42 -2.88 C 0.42 -2.58 0.69 -2.55 0.75 -2.55 C 0.89 -2.55 1.06 -2.64 1.06 -2.86 C 1.06 -2.98 0.98 -3.19 0.73 -3.19 C 0.86 -3.48 1.22 -3.70 1.64 -3.70 C 2.25 -3.70 2.59 -3.25 2.59 -2.77 C 2.59 -2.34 2.31 -1.91 1.89 -1.53 L 0.48 -0.25 C 0.44 -0.19 0.42 -0.19 0.42 0 L 3 0 Z M 3.19 -1.11 "/>
</g>
</g>
<clipPath id="statique-couple-muet--clip-0">
<path clip-rule="nonzero" d="M 0.21 62 L 27 62 L 27 95 L 0.21 95 Z M 0.21 62 "/>
</clipPath>
</defs>
<path fill="none" stroke-width="0.49814" stroke-linecap="butt" stroke-linejoin="miter" stroke="rgb(39.99939%, 39.99939%, 39.99939%)" stroke-opacity="1" stroke-dasharray="5.97766 1.99255 0.99628 1.99255" stroke-miterlimit="10" d="M 0.00 -12.76 L 0.00 80.79 " transform="matrix(0.990408, 0, 0, -0.990408, 46.19906, 84.206449)"/>
<path fill-rule="nonzero" fill="rgb(91.999817%, 91.999817%, 91.999817%)" fill-opacity="1" d="M 11.11 54.73 L 11.11 78.59 C 11.11 85.11 26.82 90.38 46.20 90.38 C 65.58 90.38 81.29 85.11 81.29 78.59 L 81.29 54.73 Z M 11.11 54.73 "/>
<path fill="none" stroke-width="0.69739" stroke-linecap="butt" stroke-linejoin="miter" stroke="rgb(34.999084%, 34.999084%, 34.999084%)" stroke-opacity="1" stroke-miterlimit="10" d="M -35.43 29.77 L -35.43 5.67 C -35.43 -0.91 -19.57 -6.24 0.00 -6.24 C 19.57 -6.24 35.43 -0.91 35.43 5.67 L 35.43 29.77 " transform="matrix(0.990408, 0, 0, -0.990408, 46.19906, 84.206449)"/>
<path fill-rule="nonzero" fill="rgb(95.999146%, 95.999146%, 95.999146%)" fill-opacity="1" stroke-width="0.69739" stroke-linecap="butt" stroke-linejoin="miter" stroke="rgb(34.999084%, 34.999084%, 34.999084%)" stroke-opacity="1" stroke-miterlimit="10" d="M 35.43 29.77 C 35.43 36.34 19.57 41.67 0.00 41.67 C -19.57 41.67 -35.43 36.34 -35.43 29.77 C -35.43 23.19 -19.57 17.86 0.00 17.86 C 19.57 17.86 35.43 23.19 35.43 29.77 Z M 35.43 29.77 " transform="matrix(0.990408, 0, 0, -0.990408, 46.19906, 84.206449)"/>
<path fill="none" stroke-width="0.89664" stroke-linecap="butt" stroke-linejoin="miter" stroke="rgb(92.156982%, 58.822632%, 7.841492%)" stroke-opacity="1" stroke-miterlimit="10" d="M 0.00 29.77 L -35.43 29.77 " transform="matrix(0.990408, 0, 0, -0.990408, 46.19906, 84.206449)"/>
<path fill="none" stroke-width="0.89664" stroke-linecap="butt" stroke-linejoin="miter" stroke="rgb(92.156982%, 58.822632%, 7.841492%)" stroke-opacity="1" stroke-miterlimit="10" d="M 0.00 29.77 L 35.43 29.77 " transform="matrix(0.990408, 0, 0, -0.990408, 46.19906, 84.206449)"/>
<path fill-rule="nonzero" fill="rgb(92.156982%, 58.822632%, 7.841492%)" fill-opacity="1" d="M 47.68 54.73 C 47.68 53.91 47.02 53.25 46.20 53.25 C 45.38 53.25 44.72 53.91 44.72 54.73 C 44.72 55.55 45.38 56.21 46.20 56.21 C 47.02 56.21 47.68 55.55 47.68 54.73 Z M 47.68 54.73 "/>
<g fill="rgb(92.156982%, 58.822632%, 7.841492%)" fill-opacity="1">
<use xlink:href="#statique-couple-muet--glyph-0-0" x="24.678489" y="50.728686"/>
</g>
<g fill="rgb(92.156982%, 58.822632%, 7.841492%)" fill-opacity="1">
<use xlink:href="#statique-couple-muet--glyph-1-0" x="28.796605" y="51.715132"/>
</g>
<g fill="rgb(92.156982%, 58.822632%, 7.841492%)" fill-opacity="1">
<use xlink:href="#statique-couple-muet--glyph-0-0" x="59.490332" y="50.728686"/>
</g>
<g fill="rgb(92.156982%, 58.822632%, 7.841492%)" fill-opacity="1">
<use xlink:href="#statique-couple-muet--glyph-1-1" x="63.608447" y="51.715132"/>
</g>
<path fill="none" stroke-width="1.19553" stroke-linecap="butt" stroke-linejoin="miter" stroke="rgb(88.233948%, 21.569824%, 9.803772%)" stroke-opacity="1" stroke-miterlimit="10" d="M -35.43 29.77 L -35.43 6.46 " transform="matrix(0.990408, 0, 0, -0.990408, 46.19906, 84.206449)"/>
<path fill-rule="nonzero" fill="rgb(88.233948%, 21.569824%, 9.803772%)" fill-opacity="1" d="M 11.11 79.98 L 12.20 77.09 L 11.11 78.06 L 10.01 77.09 Z M 11.11 79.98 "/>
<g clip-path="url(#statique-couple-muet--clip-0)">
<path fill="none" stroke-width="1.00871" stroke-linecap="butt" stroke-linejoin="miter" stroke="rgb(88.233948%, 21.569824%, 9.803772%)" stroke-opacity="1" stroke-miterlimit="10" d="M 4.54 0.00 L 1.63 1.11 L 2.61 0.00 L 1.63 -1.11 Z M 4.54 0.00 " transform="matrix(0, 0.990408, 0.990408, 0, 11.105456, 75.478481)"/>
</g>
<g fill="rgb(88.233948%, 21.569824%, 9.803772%)" fill-opacity="1">
<use xlink:href="#statique-couple-muet--glyph-0-1" x="8.141651" y="90.318255"/>
</g>
<g fill="rgb(88.233948%, 21.569824%, 9.803772%)" fill-opacity="1">
<use xlink:href="#statique-couple-muet--glyph-0-2" x="6.137065" y="92.56351"/>
</g>
<g fill="rgb(88.233948%, 21.569824%, 9.803772%)" fill-opacity="1">
<use xlink:href="#statique-couple-muet--glyph-1-0" x="11.964625" y="93.549956"/>
</g>
<path fill="none" stroke-width="1.19553" stroke-linecap="butt" stroke-linejoin="miter" stroke="rgb(88.233948%, 21.569824%, 9.803772%)" stroke-opacity="1" stroke-miterlimit="10" d="M 35.43 29.77 L 35.43 50.24 " transform="matrix(0.990408, 0, 0, -0.990408, 46.19906, 84.206449)"/>
<path fill-rule="nonzero" fill="rgb(88.233948%, 21.569824%, 9.803772%)" fill-opacity="1" stroke-width="1.00871" stroke-linecap="butt" stroke-linejoin="miter" stroke="rgb(88.233948%, 21.569824%, 9.803772%)" stroke-opacity="1" stroke-miterlimit="10" d="M 4.54 -0.00 L 1.63 1.11 L 2.61 -0.00 L 1.63 -1.11 Z M 4.54 -0.00 " transform="matrix(0, -0.990408, -0.990408, 0, 81.292663, 36.78422)"/>
<g fill="rgb(88.233948%, 21.569824%, 9.803772%)" fill-opacity="1">
<use xlink:href="#statique-couple-muet--glyph-0-1" x="85.86291" y="32.42595"/>
</g>
<g fill="rgb(88.233948%, 21.569824%, 9.803772%)" fill-opacity="1">
<use xlink:href="#statique-couple-muet--glyph-0-2" x="83.858325" y="34.671205"/>
</g>
<g fill="rgb(88.233948%, 21.569824%, 9.803772%)" fill-opacity="1">
<use xlink:href="#statique-couple-muet--glyph-1-1" x="89.685884" y="35.657651"/>
</g>
<path fill="none" stroke-width="0.99628" stroke-linecap="butt" stroke-linejoin="miter" stroke="rgb(0%, 0%, 0%)" stroke-opacity="1" stroke-miterlimit="10" d="M -16.51 67.32 C -13.20 64.08 -3.11 62.41 6.01 63.59 C 10.89 64.22 14.74 65.59 13.92 64.78 " transform="matrix(0.990408, 0, 0, -0.990408, 46.19906, 84.206449)"/>
<path fill-rule="nonzero" fill="rgb(0%, 0%, 0%)" fill-opacity="1" stroke-width="0.99628" stroke-linecap="butt" stroke-linejoin="miter" stroke="rgb(0%, 0%, 0%)" stroke-opacity="1" stroke-miterlimit="10" d="M 4.56 -0.00 L 1.61 1.13 L 2.60 0.00 L 1.61 -1.12 Z M 4.56 -0.00 " transform="matrix(0.709162, -0.691285, -0.691285, -0.709162, 58.316847, 21.667705)"/>
<g fill="rgb(0%, 0%, 0%)" fill-opacity="1">
<use xlink:href="#statique-couple-muet--glyph-0-1" x="18.450805" y="17.478716"/>
</g>
<g fill="rgb(0%, 0%, 0%)" fill-opacity="1">
<use xlink:href="#statique-couple-muet--glyph-0-3" x="17.359376" y="19.723971"/>
</g>
</svg>